<?xml version="1.0" encoding="UTF-8" standalone="no"?>
<!DOCTYPE svg PUBLIC "-//W3C//DTD SVG 1.1//EN"
 "http://www.w3.org/Graphics/SVG/1.1/DTD/svg11.dtd">
<!-- Generated by graphviz version 9.0.0 (20230911.1827)
 -->
<!-- Title: G Pages: 1 -->
<svg width="124pt" height="221pt"
 viewBox="0.00 0.00 124.00 221.00" xmlns="http://www.w3.org/2000/svg" xmlns:xlink="http://www.w3.org/1999/xlink">
<g id="graph0" class="graph" transform="scale(1 1) rotate(0) translate(4 217)">
<title>G</title>
<polygon fill="white" stroke="none" points="-4,4 -4,-217 120,-217 120,4 -4,4"/>
<!-- 4 -->
<g id="node1" class="node">
<title>4</title>
<ellipse fill="none" stroke="black" cx="44" cy="-195" rx="18" ry="18"/>
<text text-anchor="middle" x="44" y="-189.95" font-family="Times,serif" font-size="14.00">4</text>
</g>
<!-- 0 -->
<g id="node2" class="node">
<title>0</title>
<ellipse fill="none" stroke="black" cx="18" cy="-106.5" rx="18" ry="18"/>
<text text-anchor="middle" x="18" y="-101.45" font-family="Times,serif" font-size="14.00">0</text>
</g>
<!-- 4&#45;&#45;0 -->
<g id="edge1" class="edge">
<title>4&#45;&#45;0</title>
<path fill="none" stroke="black" d="M38.99,-177.32C34.38,-162 27.6,-139.43 23,-124.13"/>
<text text-anchor="middle" x="37" y="-145.7" font-family="Times,serif" font-size="14.00">a</text>
</g>
<!-- 2 -->
<g id="node5" class="node">
<title>2</title>
<ellipse fill="none" stroke="black" cx="72" cy="-106.5" rx="18" ry="18"/>
<text text-anchor="middle" x="72" y="-101.45" font-family="Times,serif" font-size="14.00">2</text>
</g>
<!-- 4&#45;&#45;2 -->
<g id="edge3" class="edge">
<title>4&#45;&#45;2</title>
<path fill="none" stroke="black" d="M49.4,-177.32C54.36,-162 61.66,-139.43 66.62,-124.13"/>
<text text-anchor="middle" x="63.38" y="-145.7" font-family="Times,serif" font-size="14.00">b</text>
</g>
<!-- 1 -->
<g id="node3" class="node">
<title>1</title>
<ellipse fill="none" stroke="black" cx="18" cy="-18" rx="18" ry="18"/>
<text text-anchor="middle" x="18" y="-12.95" font-family="Times,serif" font-size="14.00">1</text>
</g>
<!-- 0&#45;&#45;1 -->
<g id="edge2" class="edge">
<title>0&#45;&#45;1</title>
<path fill="none" stroke="black" d="M18,-88.41C18,-73.34 18,-51.49 18,-36.35"/>
<text text-anchor="middle" x="21" y="-57.2" font-family="Times,serif" font-size="14.00">e</text>
</g>
<!-- 5 -->
<g id="node4" class="node">
<title>5</title>
<ellipse fill="none" stroke="black" cx="98" cy="-195" rx="18" ry="18"/>
<text text-anchor="middle" x="98" y="-189.95" font-family="Times,serif" font-size="14.00">5</text>
</g>
<!-- 3 -->
<g id="node6" class="node">
<title>3</title>
<ellipse fill="none" stroke="black" cx="72" cy="-18" rx="18" ry="18"/>
<text text-anchor="middle" x="72" y="-12.95" font-family="Times,serif" font-size="14.00">3</text>
</g>
<!-- 2&#45;&#45;3 -->
<g id="edge4" class="edge">
<title>2&#45;&#45;3</title>
<path fill="none" stroke="black" d="M72,-88.41C72,-73.34 72,-51.49 72,-36.35"/>
<text text-anchor="middle" x="75" y="-57.2" font-family="Times,serif" font-size="14.00">e</text>
</g>
</g>
</svg>
