<?xml version="1.0" encoding="UTF-8" standalone="no"?>
<!DOCTYPE svg PUBLIC "-//W3C//DTD SVG 1.1//EN"
 "http://www.w3.org/Graphics/SVG/1.1/DTD/svg11.dtd">
<!-- Generated by graphviz version 8.1.0 (20230707.0739)
 -->
<!-- Title: G Pages: 1 -->
<svg width="447pt" height="135pt"
 viewBox="0.00 0.00 446.50 134.75" xmlns="http://www.w3.org/2000/svg" xmlns:xlink="http://www.w3.org/1999/xlink">
<g id="graph0" class="graph" transform="scale(1 1) rotate(0) translate(4 130.75)">
<title>G</title>
<polygon fill="white" stroke="none" points="-4,4 -4,-130.75 442.5,-130.75 442.5,4 -4,4"/>
<!-- 0 -->
<g id="node1" class="node">
<title>0</title>
<ellipse fill="lightgrey" stroke="black" cx="18" cy="-60" rx="18" ry="18"/>
<text text-anchor="middle" x="18" y="-54.58" font-family="Times New Roman,serif" font-size="14.00">0</text>
</g>
<!-- 1 -->
<g id="node2" class="node">
<title>1</title>
<ellipse fill="none" stroke="black" cx="175.5" cy="-75" rx="18" ry="18"/>
<text text-anchor="middle" x="175.5" y="-69.58" font-family="Times New Roman,serif" font-size="14.00">1</text>
</g>
<!-- 0&#45;&gt;1 -->
<g id="edge1" class="edge">
<title>0&#45;&gt;1</title>
<path fill="none" stroke="black" d="M35.63,-64.38C41.41,-65.74 47.96,-67.12 54,-68 85.51,-72.58 122.06,-74.19 146.57,-74.74"/>
<polygon fill="black" stroke="black" points="146.18,-78.25 156.24,-74.93 146.31,-71.25 146.18,-78.25"/>
<text text-anchor="middle" x="96" y="-75.45" font-family="Times New Roman,serif" font-size="14.00">b</text>
</g>
<!-- 2 -->
<g id="node3" class="node">
<title>2</title>
<ellipse fill="none" stroke="black" cx="96" cy="-33" rx="18" ry="18"/>
<text text-anchor="middle" x="96" y="-27.57" font-family="Times New Roman,serif" font-size="14.00">2</text>
</g>
<!-- 0&#45;&gt;2 -->
<g id="edge2" class="edge">
<title>0&#45;&gt;2</title>
<path fill="none" stroke="black" d="M35.49,-54.14C45.05,-50.74 57.32,-46.39 68.23,-42.51"/>
<polygon fill="black" stroke="black" points="69.29,-45.49 77.54,-38.85 66.95,-38.9 69.29,-45.49"/>
<text text-anchor="middle" x="57" y="-50.45" font-family="Times New Roman,serif" font-size="14.00">a</text>
</g>
<!-- 1&#45;&gt;1 -->
<g id="edge3" class="edge">
<title>1&#45;&gt;1</title>
<path fill="none" stroke="black" d="M168.59,-92.04C167.18,-101.86 169.48,-111 175.5,-111 179.17,-111 181.45,-107.61 182.36,-102.73"/>
<polygon fill="black" stroke="black" points="185.87,-103.05 182.41,-93.04 178.87,-103.02 185.87,-103.05"/>
<text text-anchor="middle" x="175.5" y="-113.45" font-family="Times New Roman,serif" font-size="14.00">b</text>
</g>
<!-- 3 -->
<g id="node4" class="node">
<title>3</title>
<ellipse fill="none" stroke="black" cx="253.5" cy="-39" rx="18" ry="18"/>
<text text-anchor="middle" x="253.5" y="-33.58" font-family="Times New Roman,serif" font-size="14.00">3</text>
</g>
<!-- 1&#45;&gt;3 -->
<g id="edge4" class="edge">
<title>1&#45;&gt;3</title>
<path fill="none" stroke="black" d="M192.25,-67.54C202.23,-62.81 215.39,-56.58 226.85,-51.15"/>
<polygon fill="black" stroke="black" points="228.23,-53.89 235.77,-46.45 225.24,-47.57 228.23,-53.89"/>
<text text-anchor="middle" x="214.5" y="-61.45" font-family="Times New Roman,serif" font-size="14.00">a</text>
</g>
<!-- 2&#45;&gt;1 -->
<g id="edge5" class="edge">
<title>2&#45;&gt;1</title>
<path fill="none" stroke="black" d="M112.31,-41.3C122.93,-47.05 137.3,-54.84 149.55,-61.48"/>
<polygon fill="black" stroke="black" points="147.76,-65.03 158.22,-66.72 151.1,-58.88 147.76,-65.03"/>
<text text-anchor="middle" x="135.75" y="-58.45" font-family="Times New Roman,serif" font-size="14.00">b</text>
</g>
<!-- 2&#45;&gt;3 -->
<g id="edge6" class="edge">
<title>2&#45;&gt;3</title>
<path fill="none" stroke="black" d="M114.45,-32.19C133.79,-31.44 165.9,-30.68 193.5,-32.25 203.64,-32.83 214.7,-33.96 224.49,-35.13"/>
<polygon fill="black" stroke="black" points="223.89,-38.71 234.25,-36.5 224.77,-31.77 223.89,-38.71"/>
<text text-anchor="middle" x="175.5" y="-35.45" font-family="Times New Roman,serif" font-size="14.00">a</text>
</g>
<!-- 3&#45;&gt;3 -->
<g id="edge8" class="edge">
<title>3&#45;&gt;3</title>
<path fill="none" stroke="black" d="M246.59,-56.04C245.18,-65.86 247.48,-75 253.5,-75 257.17,-75 259.45,-71.61 260.36,-66.73"/>
<polygon fill="black" stroke="black" points="263.87,-67.05 260.41,-57.04 256.87,-67.02 263.87,-67.05"/>
<text text-anchor="middle" x="253.5" y="-77.45" font-family="Times New Roman,serif" font-size="14.00">a</text>
</g>
<!-- 4 -->
<g id="node5" class="node">
<title>4</title>
<ellipse fill="none" stroke="black" cx="333" cy="-58" rx="18" ry="18"/>
<text text-anchor="middle" x="333" y="-52.58" font-family="Times New Roman,serif" font-size="14.00">4</text>
</g>
<!-- 3&#45;&gt;4 -->
<g id="edge7" class="edge">
<title>3&#45;&gt;4</title>
<path fill="none" stroke="black" d="M269.32,-47.85C275.37,-51.01 282.56,-54.23 289.5,-56 294.09,-57.17 299.05,-57.88 303.9,-58.29"/>
<polygon fill="black" stroke="black" points="303.67,-61.82 313.81,-58.76 303.97,-54.83 303.67,-61.82"/>
<text text-anchor="middle" x="293.25" y="-60.45" font-family="Times New Roman,serif" font-size="14.00">b</text>
</g>
<!-- 4&#45;&gt;3 -->
<g id="edge10" class="edge">
<title>4&#45;&gt;3</title>
<path fill="none" stroke="black" d="M318.22,-46.95C312.09,-42.73 304.57,-38.41 297,-36.25 292.23,-34.89 287.05,-34.43 281.99,-34.49"/>
<polygon fill="black" stroke="black" points="282.03,-31.06 272.33,-35.32 282.57,-38.04 282.03,-31.06"/>
<text text-anchor="middle" x="293.25" y="-39.45" font-family="Times New Roman,serif" font-size="14.00">a</text>
</g>
<!-- 5 -->
<g id="node6" class="node">
<title>5</title>
<ellipse fill="none" stroke="black" cx="416.5" cy="-22" rx="18" ry="18"/>
<ellipse fill="none" stroke="black" cx="416.5" cy="-22" rx="22" ry="22"/>
<text text-anchor="middle" x="416.5" y="-16.57" font-family="Times New Roman,serif" font-size="14.00">5</text>
</g>
<!-- 4&#45;&gt;5 -->
<g id="edge9" class="edge">
<title>4&#45;&gt;5</title>
<path fill="none" stroke="black" d="M349.71,-51.06C359.98,-46.53 373.7,-40.46 385.96,-35.05"/>
<polygon fill="black" stroke="black" points="387.06,-37.95 394.8,-30.7 384.24,-31.54 387.06,-37.95"/>
<text text-anchor="middle" x="372.75" y="-45.45" font-family="Times New Roman,serif" font-size="14.00">b</text>
</g>
<!-- 5&#45;&gt;3 -->
<g id="edge12" class="edge">
<title>5&#45;&gt;3</title>
<path fill="none" stroke="black" d="M394.53,-17.53C374.07,-13.89 342.15,-10.11 315,-15.25 303.03,-17.52 290.39,-22.1 279.78,-26.64"/>
<polygon fill="black" stroke="black" points="278.62,-23.77 270.94,-31.07 281.49,-30.15 278.62,-23.77"/>
<text text-anchor="middle" x="333" y="-18.45" font-family="Times New Roman,serif" font-size="14.00">a</text>
</g>
<!-- 5&#45;&gt;5 -->
<g id="edge11" class="edge">
<title>5&#45;&gt;5</title>
<path fill="none" stroke="black" d="M408.5,-42.99C407.51,-53.09 410.18,-62 416.5,-62 420.35,-62 422.85,-58.69 423.99,-53.82"/>
<polygon fill="black" stroke="black" points="427.52,-54.15 424.5,-43.99 420.53,-53.81 427.52,-54.15"/>
<text text-anchor="middle" x="416.5" y="-64.45" font-family="Times New Roman,serif" font-size="14.00">b</text>
</g>
</g>
</svg>
