<?xml version="1.0" encoding="UTF-8" standalone="no"?>
<!DOCTYPE svg PUBLIC "-//W3C//DTD SVG 1.1//EN"
 "http://www.w3.org/Graphics/SVG/1.1/DTD/svg11.dtd">
<!-- Generated by graphviz version 8.1.0 (20230707.0739)
 -->
<!-- Title: G Pages: 1 -->
<svg width="446pt" height="238pt"
 viewBox="0.00 0.00 445.75 237.75" xmlns="http://www.w3.org/2000/svg" xmlns:xlink="http://www.w3.org/1999/xlink">
<g id="graph0" class="graph" transform="scale(1 1) rotate(0) translate(4 233.75)">
<title>G</title>
<polygon fill="white" stroke="none" points="-4,4 -4,-233.75 441.75,-233.75 441.75,4 -4,4"/>
<!-- 0 -->
<g id="node1" class="node">
<title>0</title>
<ellipse fill="none" stroke="black" cx="18" cy="-191" rx="18" ry="18"/>
<text text-anchor="middle" x="18" y="-185.57" font-family="Times New Roman,serif" font-size="14.00">0</text>
</g>
<!-- 1 -->
<g id="node2" class="node">
<title>1</title>
<ellipse fill="none" stroke="black" cx="419.75" cy="-102" rx="18" ry="18"/>
<text text-anchor="middle" x="419.75" y="-96.58" font-family="Times New Roman,serif" font-size="14.00">1</text>
</g>
<!-- 0&#45;&gt;1 -->
<g id="edge1" class="edge">
<title>0&#45;&gt;1</title>
<path fill="none" stroke="black" d="M34.76,-198.66C49.99,-205.35 73.91,-214 95.75,-214 95.75,-214 95.75,-214 338,-214 379.35,-214 401.64,-163.15 411.78,-129.97"/>
<polygon fill="black" stroke="black" points="415.39,-131.08 414.76,-120.5 408.66,-129.16 415.39,-131.08"/>
<text text-anchor="middle" x="214.88" y="-216.45" font-family="Times New Roman,serif" font-size="14.00">0</text>
</g>
<!-- 2 -->
<g id="node3" class="node">
<title>2</title>
<ellipse fill="none" stroke="black" cx="96.75" cy="-168" rx="18" ry="18"/>
<text text-anchor="middle" x="96.75" y="-162.57" font-family="Times New Roman,serif" font-size="14.00">2</text>
</g>
<!-- 0&#45;&gt;2 -->
<g id="edge2" class="edge">
<title>0&#45;&gt;2</title>
<path fill="none" stroke="black" d="M35.65,-186.01C45.31,-183.12 57.7,-179.4 68.72,-176.1"/>
<polygon fill="black" stroke="black" points="69.55,-179.2 78.13,-172.98 67.55,-172.5 69.55,-179.2"/>
<text text-anchor="middle" x="57.38" y="-183.45" font-family="Times New Roman,serif" font-size="14.00">1</text>
</g>
<!-- 1&#45;&gt;1 -->
<g id="edge3" class="edge">
<title>1&#45;&gt;1</title>
<path fill="none" stroke="black" d="M416.19,-120.15C415.64,-129.54 416.83,-138 419.75,-138 421.44,-138 422.55,-135.17 423.08,-130.97"/>
<polygon fill="black" stroke="black" points="426.6,-131.23 423.31,-121.15 419.6,-131.08 426.6,-131.23"/>
<text text-anchor="middle" x="419.75" y="-140.45" font-family="Times New Roman,serif" font-size="14.00">0</text>
</g>
<!-- 1&#45;&gt;1 -->
<g id="edge4" class="edge">
<title>1&#45;&gt;1</title>
<path fill="none" stroke="black" d="M413.94,-119.42C410.62,-136.79 412.56,-156 419.75,-156 425.48,-156 427.87,-143.8 426.93,-130.06"/>
<polygon fill="black" stroke="black" points="430.31,-129.89 425.56,-120.42 423.37,-130.79 430.31,-129.89"/>
<text text-anchor="middle" x="419.75" y="-158.45" font-family="Times New Roman,serif" font-size="14.00">1</text>
</g>
<!-- 2&#45;&gt;1 -->
<g id="edge6" class="edge">
<title>2&#45;&gt;1</title>
<path fill="none" stroke="black" d="M115.12,-168.71C130.67,-169.29 154.11,-170 174.5,-170 174.5,-170 174.5,-170 338,-170 366,-170 389.35,-145.77 403.62,-126.24"/>
<polygon fill="black" stroke="black" points="406.9,-128.65 409.69,-118.43 401.13,-124.67 406.9,-128.65"/>
<text text-anchor="middle" x="254.25" y="-172.45" font-family="Times New Roman,serif" font-size="14.00">1</text>
</g>
<!-- 3 -->
<g id="node4" class="node">
<title>3</title>
<ellipse fill="none" stroke="black" cx="175.5" cy="-124" rx="18" ry="18"/>
<text text-anchor="middle" x="175.5" y="-118.58" font-family="Times New Roman,serif" font-size="14.00">3</text>
</g>
<!-- 2&#45;&gt;3 -->
<g id="edge5" class="edge">
<title>2&#45;&gt;3</title>
<path fill="none" stroke="black" d="M110.7,-156.2C117.03,-150.84 124.95,-144.73 132.75,-140.25 137.48,-137.54 142.74,-135.09 147.9,-132.97"/>
<polygon fill="black" stroke="black" points="149.02,-135.91 157.12,-129.09 146.53,-129.37 149.02,-135.91"/>
<text text-anchor="middle" x="136.12" y="-143.45" font-family="Times New Roman,serif" font-size="14.00">0</text>
</g>
<!-- 3&#45;&gt;1 -->
<g id="edge8" class="edge">
<title>3&#45;&gt;1</title>
<path fill="none" stroke="black" d="M193.79,-123.75C229.48,-123.03 313.82,-120.29 383.75,-110 386.3,-109.62 388.94,-109.16 391.57,-108.65"/>
<polygon fill="black" stroke="black" points="392.08,-111.9 401.12,-106.36 390.6,-105.06 392.08,-111.9"/>
<text text-anchor="middle" x="293.62" y="-122.45" font-family="Times New Roman,serif" font-size="14.00">1</text>
</g>
<!-- 4 -->
<g id="node5" class="node">
<title>4</title>
<ellipse fill="none" stroke="black" cx="254.25" cy="-78" rx="18" ry="18"/>
<text text-anchor="middle" x="254.25" y="-72.58" font-family="Times New Roman,serif" font-size="14.00">4</text>
</g>
<!-- 3&#45;&gt;4 -->
<g id="edge7" class="edge">
<title>3&#45;&gt;4</title>
<path fill="none" stroke="black" d="M189,-111.59C195.35,-105.77 203.42,-99.07 211.5,-94.25 216.18,-91.46 221.43,-88.98 226.58,-86.85"/>
<polygon fill="black" stroke="black" points="227.69,-89.79 235.81,-82.98 225.21,-83.24 227.69,-89.79"/>
<text text-anchor="middle" x="214.88" y="-97.45" font-family="Times New Roman,serif" font-size="14.00">0</text>
</g>
<!-- 4&#45;&gt;1 -->
<g id="edge9" class="edge">
<title>4&#45;&gt;1</title>
<path fill="none" stroke="black" d="M272.44,-80.52C300.72,-84.68 357.32,-92.98 391.23,-97.96"/>
<polygon fill="black" stroke="black" points="390.39,-101.52 400.79,-99.51 391.41,-94.6 390.39,-101.52"/>
<text text-anchor="middle" x="337" y="-96.45" font-family="Times New Roman,serif" font-size="14.00">0</text>
</g>
<!-- 5 -->
<g id="node6" class="node">
<title>5</title>
<ellipse fill="none" stroke="black" cx="337" cy="-22" rx="18" ry="18"/>
<ellipse fill="none" stroke="black" cx="337" cy="-22" rx="22" ry="22"/>
<text text-anchor="middle" x="337" y="-16.57" font-family="Times New Roman,serif" font-size="14.00">5</text>
</g>
<!-- 4&#45;&gt;5 -->
<g id="edge10" class="edge">
<title>4&#45;&gt;5</title>
<path fill="none" stroke="black" d="M268.6,-66.81C275.01,-61.6 282.89,-55.42 290.25,-50.25 295.97,-46.24 302.25,-42.16 308.28,-38.39"/>
<polygon fill="black" stroke="black" points="309.73,-41 316.43,-32.79 306.07,-35.03 309.73,-41"/>
<text text-anchor="middle" x="293.62" y="-53.45" font-family="Times New Roman,serif" font-size="14.00">1</text>
</g>
<!-- 5&#45;&gt;1 -->
<g id="edge11" class="edge">
<title>5&#45;&gt;1</title>
<path fill="none" stroke="black" d="M357.07,-31.38C365.81,-36.25 375.94,-42.75 383.75,-50.25 391.8,-57.97 399.03,-67.84 404.8,-76.88"/>
<polygon fill="black" stroke="black" points="402.28,-78.48 410.45,-85.23 408.27,-74.86 402.28,-78.48"/>
<text text-anchor="middle" x="380.38" y="-53.45" font-family="Times New Roman,serif" font-size="14.00">0</text>
</g>
<!-- 5&#45;&gt;1 -->
<g id="edge12" class="edge">
<title>5&#45;&gt;1</title>
<path fill="none" stroke="black" d="M359.11,-19.08C367.44,-19 376.69,-20.35 383.75,-25.25 399.74,-36.35 408.56,-56.61 413.34,-73.52"/>
<polygon fill="black" stroke="black" points="410.14,-74.16 415.94,-83.03 416.94,-72.48 410.14,-74.16"/>
<text text-anchor="middle" x="380.38" y="-28.45" font-family="Times New Roman,serif" font-size="14.00">1</text>
</g>
</g>
</svg>
