<?xml version="1.0" encoding="UTF-8" standalone="no"?>
<!DOCTYPE svg PUBLIC "-//W3C//DTD SVG 1.1//EN"
 "http://www.w3.org/Graphics/SVG/1.1/DTD/svg11.dtd">
<!-- Generated by graphviz version 9.0.0 (20230911.1827)
 -->
<!-- Title: G Pages: 1 -->
<svg width="449pt" height="118pt"
 viewBox="0.00 0.00 449.26 118.13" xmlns="http://www.w3.org/2000/svg" xmlns:xlink="http://www.w3.org/1999/xlink">
<g id="graph0" class="graph" transform="scale(1 1) rotate(0) translate(4 114.13)">
<title>G</title>
<polygon fill="white" stroke="none" points="-4,4 -4,-114.13 445.26,-114.13 445.26,4 -4,4"/>
<!-- 0 -->
<g id="node1" class="node">
<title>0</title>
<ellipse fill="lightgrey" stroke="black" cx="18" cy="-56.13" rx="18" ry="18"/>
<text text-anchor="middle" x="18" y="-51.08" font-family="Times,serif" font-size="14.00">0</text>
</g>
<!-- 1 -->
<g id="node2" class="node">
<title>1</title>
<ellipse fill="none" stroke="black" cx="96.75" cy="-56.13" rx="18" ry="18"/>
<text text-anchor="middle" x="96.75" y="-51.08" font-family="Times,serif" font-size="14.00">1</text>
</g>
<!-- 0&#45;&gt;1 -->
<g id="edge1" class="edge">
<title>0&#45;&gt;1</title>
<path fill="none" stroke="black" d="M36.42,-56.13C45.44,-56.13 56.7,-56.13 66.98,-56.13"/>
<polygon fill="black" stroke="black" points="66.89,-59.63 76.89,-56.13 66.89,-52.63 66.89,-59.63"/>
<text text-anchor="middle" x="57.38" y="-59.33" font-family="Times,serif" font-size="14.00">b</text>
</g>
<!-- 4 -->
<g id="node3" class="node">
<title>4</title>
<ellipse fill="none" stroke="black" cx="174.75" cy="-56.13" rx="18" ry="18"/>
<text text-anchor="middle" x="174.75" y="-51.08" font-family="Times,serif" font-size="14.00">4</text>
</g>
<!-- 1&#45;&gt;4 -->
<g id="edge2" class="edge">
<title>1&#45;&gt;4</title>
<path fill="none" stroke="black" d="M115,-56.13C123.87,-56.13 134.93,-56.13 145.05,-56.13"/>
<polygon fill="black" stroke="black" points="144.8,-59.63 154.8,-56.13 144.8,-52.63 144.8,-59.63"/>
<text text-anchor="middle" x="135.75" y="-59.33" font-family="Times,serif" font-size="14.00">a</text>
</g>
<!-- 5 -->
<g id="node4" class="node">
<title>5</title>
<ellipse fill="none" stroke="black" cx="253.5" cy="-56.13" rx="18" ry="18"/>
<text text-anchor="middle" x="253.5" y="-51.08" font-family="Times,serif" font-size="14.00">5</text>
</g>
<!-- 4&#45;&gt;5 -->
<g id="edge3" class="edge">
<title>4&#45;&gt;5</title>
<path fill="none" stroke="black" d="M193.17,-56.13C202.19,-56.13 213.45,-56.13 223.73,-56.13"/>
<polygon fill="black" stroke="black" points="223.64,-59.63 233.64,-56.13 223.64,-52.63 223.64,-59.63"/>
<text text-anchor="middle" x="214.12" y="-59.33" font-family="Times,serif" font-size="14.00">b</text>
</g>
<!-- 7 -->
<g id="node5" class="node">
<title>7</title>
<ellipse fill="none" stroke="black" cx="332.25" cy="-56.13" rx="18" ry="18"/>
<text text-anchor="middle" x="332.25" y="-51.08" font-family="Times,serif" font-size="14.00">7</text>
</g>
<!-- 5&#45;&gt;7 -->
<g id="edge4" class="edge">
<title>5&#45;&gt;7</title>
<path fill="none" stroke="black" d="M271.92,-56.13C280.94,-56.13 292.2,-56.13 302.48,-56.13"/>
<polygon fill="black" stroke="black" points="302.39,-59.63 312.39,-56.13 302.39,-52.63 302.39,-59.63"/>
<text text-anchor="middle" x="292.88" y="-59.33" font-family="Times,serif" font-size="14.00">b</text>
</g>
<!-- 9 -->
<g id="node6" class="node">
<title>9</title>
<ellipse fill="none" stroke="black" cx="417.13" cy="-88.13" rx="18" ry="18"/>
<ellipse fill="none" stroke="black" cx="417.13" cy="-88.13" rx="22" ry="22"/>
<text text-anchor="middle" x="417.13" y="-83.08" font-family="Times,serif" font-size="14.00">9</text>
</g>
<!-- 7&#45;&gt;9 -->
<g id="edge5" class="edge">
<title>7&#45;&gt;9</title>
<path fill="none" stroke="black" d="M349.62,-62.45C359.88,-66.41 373.42,-71.64 385.61,-76.35"/>
<polygon fill="black" stroke="black" points="384.28,-79.59 394.87,-79.92 386.8,-73.06 384.28,-79.59"/>
<text text-anchor="middle" x="371.62" y="-75.33" font-family="Times,serif" font-size="14.00">b</text>
</g>
<!-- 10 -->
<g id="node7" class="node">
<title>10</title>
<ellipse fill="none" stroke="black" cx="417.13" cy="-24.13" rx="20.13" ry="20.13"/>
<ellipse fill="none" stroke="black" cx="417.13" cy="-24.13" rx="24.13" ry="24.13"/>
<text text-anchor="middle" x="417.13" y="-19.08" font-family="Times,serif" font-size="14.00">10</text>
</g>
<!-- 7&#45;&gt;10 -->
<g id="edge6" class="edge">
<title>7&#45;&gt;10</title>
<path fill="none" stroke="black" d="M349.62,-49.81C359.28,-46.08 371.84,-41.23 383.44,-36.75"/>
<polygon fill="black" stroke="black" points="384.66,-40.03 392.73,-33.17 382.14,-33.5 384.66,-40.03"/>
<text text-anchor="middle" x="371.62" y="-45.33" font-family="Times,serif" font-size="14.00">a</text>
</g>
</g>
</svg>
