<?xml version="1.0" encoding="UTF-8" standalone="no"?>
<!DOCTYPE svg PUBLIC "-//W3C//DTD SVG 1.1//EN"
 "http://www.w3.org/Graphics/SVG/1.1/DTD/svg11.dtd">
<!-- Generated by graphviz version 9.0.0 (20230911.1827)
 -->
<!-- Title: G Pages: 1 -->
<svg width="446pt" height="226pt"
 viewBox="0.00 0.00 445.75 225.50" xmlns="http://www.w3.org/2000/svg" xmlns:xlink="http://www.w3.org/1999/xlink">
<g id="graph0" class="graph" transform="scale(1 1) rotate(0) translate(4 221.5)">
<title>G</title>
<polygon fill="white" stroke="none" points="-4,4 -4,-221.5 441.75,-221.5 441.75,4 -4,4"/>
<!-- 0 -->
<g id="node1" class="node">
<title>0</title>
<ellipse fill="none" stroke="black" cx="18" cy="-18" rx="18" ry="18"/>
<text text-anchor="middle" x="18" y="-12.95" font-family="Times,serif" font-size="14.00">0</text>
</g>
<!-- 1 -->
<g id="node2" class="node">
<title>1</title>
<ellipse fill="none" stroke="black" cx="96.75" cy="-132" rx="18" ry="18"/>
<text text-anchor="middle" x="96.75" y="-126.95" font-family="Times,serif" font-size="14.00">1</text>
</g>
<!-- 0&#45;&gt;1 -->
<g id="edge1" class="edge">
<title>0&#45;&gt;1</title>
<path fill="none" stroke="black" d="M28.72,-32.44C41.51,-51.44 64.17,-85.09 79.56,-107.96"/>
<polygon fill="black" stroke="black" points="76.53,-109.72 85.02,-116.06 82.34,-105.81 76.53,-109.72"/>
<text text-anchor="middle" x="57.38" y="-82.2" font-family="Times,serif" font-size="14.00">1</text>
</g>
<!-- 2 -->
<g id="node3" class="node">
<title>2</title>
<ellipse fill="none" stroke="black" cx="419.75" cy="-94" rx="18" ry="18"/>
<text text-anchor="middle" x="419.75" y="-88.95" font-family="Times,serif" font-size="14.00">2</text>
</g>
<!-- 0&#45;&gt;2 -->
<g id="edge2" class="edge">
<title>0&#45;&gt;2</title>
<path fill="none" stroke="black" d="M35.56,-12.49C50.97,-7.87 74.65,-2 95.75,-2 95.75,-2 95.75,-2 338,-2 372.74,-2 396.04,-39.52 408.35,-66.63"/>
<polygon fill="black" stroke="black" points="405.08,-67.9 412.21,-75.73 411.52,-65.16 405.08,-67.9"/>
<text text-anchor="middle" x="214.88" y="-5.2" font-family="Times,serif" font-size="14.00">0</text>
</g>
<!-- 1&#45;&gt;2 -->
<g id="edge3" class="edge">
<title>1&#45;&gt;2</title>
<path fill="none" stroke="black" d="M106.11,-147.66C118.24,-168.02 142.79,-201 174.5,-201 174.5,-201 174.5,-201 338,-201 377.59,-201 400.22,-153.75 410.95,-122.05"/>
<polygon fill="black" stroke="black" points="414.25,-123.22 413.92,-112.63 407.57,-121.12 414.25,-123.22"/>
<text text-anchor="middle" x="254.25" y="-204.2" font-family="Times,serif" font-size="14.00">1</text>
</g>
<!-- 3 -->
<g id="node4" class="node">
<title>3</title>
<ellipse fill="none" stroke="black" cx="175.5" cy="-132" rx="18" ry="18"/>
<text text-anchor="middle" x="175.5" y="-126.95" font-family="Times,serif" font-size="14.00">3</text>
</g>
<!-- 1&#45;&gt;3 -->
<g id="edge4" class="edge">
<title>1&#45;&gt;3</title>
<path fill="none" stroke="black" d="M115.17,-132C124.19,-132 135.45,-132 145.73,-132"/>
<polygon fill="black" stroke="black" points="145.64,-135.5 155.64,-132 145.64,-128.5 145.64,-135.5"/>
<text text-anchor="middle" x="136.12" y="-135.2" font-family="Times,serif" font-size="14.00">0</text>
</g>
<!-- 2&#45;&gt;2 -->
<g id="edge5" class="edge">
<title>2&#45;&gt;2</title>
<path fill="none" stroke="black" d="M416.19,-112.15C415.64,-121.54 416.83,-130 419.75,-130 421.35,-130 422.43,-127.47 422.99,-123.64"/>
<polygon fill="black" stroke="black" points="426.49,-123.76 423.27,-113.67 419.49,-123.56 426.49,-123.76"/>
<text text-anchor="middle" x="419.75" y="-133.2" font-family="Times,serif" font-size="14.00">1</text>
</g>
<!-- 2&#45;&gt;2 -->
<g id="edge6" class="edge">
<title>2&#45;&gt;2</title>
<path fill="none" stroke="black" d="M413.94,-111.42C410.62,-128.79 412.56,-148 419.75,-148 425.42,-148 427.83,-136.04 426.96,-122.46"/>
<polygon fill="black" stroke="black" points="430.48,-122.4 425.75,-112.92 423.54,-123.28 430.48,-122.4"/>
<text text-anchor="middle" x="419.75" y="-151.2" font-family="Times,serif" font-size="14.00">0</text>
</g>
<!-- 3&#45;&gt;2 -->
<g id="edge7" class="edge">
<title>3&#45;&gt;2</title>
<path fill="none" stroke="black" d="M193.07,-137.17C198.84,-138.73 205.4,-140.23 211.5,-141 214.48,-141.38 215.25,-141.14 218.25,-141 281.19,-138.09 298.7,-142.29 359,-124 371.16,-120.31 383.85,-114.29 394.39,-108.61"/>
<polygon fill="black" stroke="black" points="395.8,-111.83 402.8,-103.87 392.37,-105.73 395.8,-111.83"/>
<text text-anchor="middle" x="293.62" y="-141.2" font-family="Times,serif" font-size="14.00">1</text>
</g>
<!-- 4 -->
<g id="node5" class="node">
<title>4</title>
<ellipse fill="none" stroke="black" cx="254.25" cy="-109" rx="18" ry="18"/>
<text text-anchor="middle" x="254.25" y="-103.95" font-family="Times,serif" font-size="14.00">4</text>
</g>
<!-- 3&#45;&gt;4 -->
<g id="edge8" class="edge">
<title>3&#45;&gt;4</title>
<path fill="none" stroke="black" d="M193.15,-127.01C202.71,-124.15 214.94,-120.48 225.87,-117.2"/>
<polygon fill="black" stroke="black" points="226.6,-120.64 235.18,-114.42 224.6,-113.93 226.6,-120.64"/>
<text text-anchor="middle" x="214.88" y="-124.2" font-family="Times,serif" font-size="14.00">0</text>
</g>
<!-- 4&#45;&gt;2 -->
<g id="edge10" class="edge">
<title>4&#45;&gt;2</title>
<path fill="none" stroke="black" d="M272.44,-107.42C300.48,-104.85 356.34,-99.73 390.34,-96.61"/>
<polygon fill="black" stroke="black" points="390.65,-100.09 400.28,-95.69 390.01,-93.12 390.65,-100.09"/>
<text text-anchor="middle" x="337" y="-106.2" font-family="Times,serif" font-size="14.00">0</text>
</g>
<!-- 5 -->
<g id="node6" class="node">
<title>5</title>
<ellipse fill="none" stroke="black" cx="337" cy="-52" rx="18" ry="18"/>
<ellipse fill="none" stroke="black" cx="337" cy="-52" rx="22" ry="22"/>
<text text-anchor="middle" x="337" y="-46.95" font-family="Times,serif" font-size="14.00">5</text>
</g>
<!-- 4&#45;&gt;5 -->
<g id="edge9" class="edge">
<title>4&#45;&gt;5</title>
<path fill="none" stroke="black" d="M268.15,-97.28C274.59,-91.65 282.62,-84.95 290.25,-79.5 295.76,-75.56 301.84,-71.63 307.73,-68.03"/>
<polygon fill="black" stroke="black" points="309.21,-71.22 316.02,-63.1 305.64,-65.21 309.21,-71.22"/>
<text text-anchor="middle" x="293.62" y="-83.2" font-family="Times,serif" font-size="14.00">1</text>
</g>
<!-- 5&#45;&gt;2 -->
<g id="edge11" class="edge">
<title>5&#45;&gt;2</title>
<path fill="none" stroke="black" d="M357.14,-61.95C367.92,-67.56 381.53,-74.64 393.21,-80.72"/>
<polygon fill="black" stroke="black" points="391.44,-83.74 401.92,-85.25 394.67,-77.53 391.44,-83.74"/>
<text text-anchor="middle" x="380.38" y="-79.2" font-family="Times,serif" font-size="14.00">1</text>
</g>
<!-- 5&#45;&gt;2 -->
<g id="edge12" class="edge">
<title>5&#45;&gt;2</title>
<path fill="none" stroke="black" d="M358.87,-48.62C366.98,-48.21 376.13,-48.91 383.75,-52.5 391.6,-56.2 398.34,-62.61 403.74,-69.31"/>
<polygon fill="black" stroke="black" points="400.7,-71.07 409.38,-77.15 406.38,-66.99 400.7,-71.07"/>
<text text-anchor="middle" x="380.38" y="-56.2" font-family="Times,serif" font-size="14.00">0</text>
</g>
</g>
</svg>
