<?xml version="1.0" encoding="UTF-8" standalone="no"?>
<!DOCTYPE svg PUBLIC "-//W3C//DTD SVG 1.1//EN"
 "http://www.w3.org/Graphics/SVG/1.1/DTD/svg11.dtd">
<!-- Generated by graphviz version 8.1.0 (20230707.0739)
 -->
<!-- Title: G Pages: 1 -->
<svg width="368pt" height="140pt"
 viewBox="0.00 0.00 367.75 139.75" xmlns="http://www.w3.org/2000/svg" xmlns:xlink="http://www.w3.org/1999/xlink">
<g id="graph0" class="graph" transform="scale(1 1) rotate(0) translate(4 135.75)">
<title>G</title>
<polygon fill="white" stroke="none" points="-4,4 -4,-135.75 363.75,-135.75 363.75,4 -4,4"/>
<!-- 0 -->
<g id="node1" class="node">
<title>0</title>
<ellipse fill="lightgrey" stroke="black" cx="18" cy="-18" rx="18" ry="18"/>
<text text-anchor="middle" x="18" y="-12.57" font-family="Times New Roman,serif" font-size="14.00">0</text>
</g>
<!-- 1 -->
<g id="node2" class="node">
<title>1</title>
<ellipse fill="none" stroke="black" cx="96" cy="-18" rx="18" ry="18"/>
<text text-anchor="middle" x="96" y="-12.57" font-family="Times New Roman,serif" font-size="14.00">1</text>
</g>
<!-- 0&#45;&gt;1 -->
<g id="edge1" class="edge">
<title>0&#45;&gt;1</title>
<path fill="none" stroke="black" d="M36.25,-18C45.22,-18 56.42,-18 66.63,-18"/>
<polygon fill="black" stroke="black" points="66.56,-21.5 76.56,-18 66.56,-14.5 66.56,-21.5"/>
<text text-anchor="middle" x="57" y="-20.45" font-family="Times New Roman,serif" font-size="14.00">a</text>
</g>
<!-- 6 -->
<g id="node3" class="node">
<title>6</title>
<ellipse fill="none" stroke="black" cx="174.75" cy="-80" rx="18" ry="18"/>
<text text-anchor="middle" x="174.75" y="-74.58" font-family="Times New Roman,serif" font-size="14.00">6</text>
</g>
<!-- 1&#45;&gt;6 -->
<g id="edge2" class="edge">
<title>1&#45;&gt;6</title>
<path fill="none" stroke="black" d="M110.72,-29.08C122.07,-38.25 138.41,-51.45 151.61,-62.12"/>
<polygon fill="black" stroke="black" points="149.17,-65.45 159.15,-69.01 153.57,-60 149.17,-65.45"/>
<text text-anchor="middle" x="135.38" y="-52.45" font-family="Times New Roman,serif" font-size="14.00">c</text>
</g>
<!-- 7 -->
<g id="node4" class="node">
<title>7</title>
<ellipse fill="none" stroke="black" cx="254.25" cy="-33" rx="18" ry="18"/>
<text text-anchor="middle" x="254.25" y="-27.57" font-family="Times New Roman,serif" font-size="14.00">7</text>
</g>
<!-- 1&#45;&gt;7 -->
<g id="edge3" class="edge">
<title>1&#45;&gt;7</title>
<path fill="none" stroke="black" d="M114.32,-19.66C141.07,-22.23 192.71,-27.19 224.94,-30.28"/>
<polygon fill="black" stroke="black" points="224.57,-33.86 234.85,-31.33 225.23,-26.89 224.57,-33.86"/>
<text text-anchor="middle" x="174.75" y="-28.45" font-family="Times New Roman,serif" font-size="14.00">b</text>
</g>
<!-- 8 -->
<g id="node5" class="node">
<title>8</title>
<ellipse fill="none" stroke="black" cx="337.75" cy="-33" rx="18" ry="18"/>
<ellipse fill="none" stroke="black" cx="337.75" cy="-33" rx="22" ry="22"/>
<text text-anchor="middle" x="337.75" y="-27.57" font-family="Times New Roman,serif" font-size="14.00">8</text>
</g>
<!-- 1&#45;&gt;8 -->
<g id="edge4" class="edge">
<title>1&#45;&gt;8</title>
<path fill="none" stroke="black" d="M113.62,-13.96C144.97,-6.98 214.84,5.53 272.25,-6 284.43,-8.45 297.17,-13.25 308.09,-18.13"/>
<polygon fill="black" stroke="black" points="306.37,-21.67 316.91,-22.77 309.36,-15.34 306.37,-21.67"/>
<text text-anchor="middle" x="214.5" y="-4.45" font-family="Times New Roman,serif" font-size="14.00">d</text>
</g>
<!-- 6&#45;&gt;6 -->
<g id="edge5" class="edge">
<title>6&#45;&gt;6</title>
<path fill="none" stroke="black" d="M167.77,-97.04C166.35,-106.86 168.67,-116 174.75,-116 178.45,-116 180.76,-112.61 181.68,-107.73"/>
<polygon fill="black" stroke="black" points="185.18,-108.05 181.73,-98.04 178.18,-108.02 185.18,-108.05"/>
<text text-anchor="middle" x="174.75" y="-118.45" font-family="Times New Roman,serif" font-size="14.00">c</text>
</g>
<!-- 6&#45;&gt;7 -->
<g id="edge6" class="edge">
<title>6&#45;&gt;7</title>
<path fill="none" stroke="black" d="M188.81,-68.38C195.16,-63.07 203.07,-56.94 210.75,-52.25 215.94,-49.09 221.73,-46.12 227.33,-43.52"/>
<polygon fill="black" stroke="black" points="228.3,-46.48 236.04,-39.24 225.47,-40.07 228.3,-46.48"/>
<text text-anchor="middle" x="214.5" y="-54.45" font-family="Times New Roman,serif" font-size="14.00">b</text>
</g>
<!-- 6&#45;&gt;8 -->
<g id="edge7" class="edge">
<title>6&#45;&gt;8</title>
<path fill="none" stroke="black" d="M191.71,-87.15C211.33,-94.86 245.35,-104.7 272.25,-94 290.11,-86.89 305.87,-72.24 317.34,-59.07"/>
<polygon fill="black" stroke="black" points="320.56,-61.67 324.24,-51.73 315.17,-57.21 320.56,-61.67"/>
<text text-anchor="middle" x="254.25" y="-100.45" font-family="Times New Roman,serif" font-size="14.00">d</text>
</g>
<!-- 7&#45;&gt;6 -->
<g id="edge8" class="edge">
<title>7&#45;&gt;6</title>
<path fill="none" stroke="black" d="M242.26,-47.02C235.94,-54.23 227.44,-62.61 218.25,-68 213.62,-70.72 208.34,-72.85 203.11,-74.5"/>
<polygon fill="black" stroke="black" points="202.44,-71.33 193.68,-77.29 204.25,-78.09 202.44,-71.33"/>
<text text-anchor="middle" x="214.5" y="-73.45" font-family="Times New Roman,serif" font-size="14.00">c</text>
</g>
<!-- 7&#45;&gt;7 -->
<g id="edge9" class="edge">
<title>7&#45;&gt;7</title>
<path fill="none" stroke="black" d="M247.21,-50.04C245.77,-59.86 248.12,-69 254.25,-69 257.99,-69 260.32,-65.61 261.25,-60.73"/>
<polygon fill="black" stroke="black" points="264.75,-61.05 261.29,-51.04 257.75,-61.02 264.75,-61.05"/>
<text text-anchor="middle" x="254.25" y="-71.45" font-family="Times New Roman,serif" font-size="14.00">b</text>
</g>
<!-- 7&#45;&gt;8 -->
<g id="edge10" class="edge">
<title>7&#45;&gt;8</title>
<path fill="none" stroke="black" d="M272.53,-33C281.83,-33 293.59,-33 304.51,-33"/>
<polygon fill="black" stroke="black" points="304.43,-36.5 314.43,-33 304.43,-29.5 304.43,-36.5"/>
<text text-anchor="middle" x="294" y="-35.45" font-family="Times New Roman,serif" font-size="14.00">d</text>
</g>
</g>
</svg>
