<?xml version="1.0" encoding="UTF-8" standalone="no"?>
<!DOCTYPE svg PUBLIC "-//W3C//DTD SVG 1.1//EN"
 "http://www.w3.org/Graphics/SVG/1.1/DTD/svg11.dtd">
<!-- Generated by graphviz version 9.0.0 (20230911.1827)
 -->
<!-- Title: G Pages: 1 -->
<svg width="366pt" height="151pt"
 viewBox="0.00 0.00 366.25 150.50" xmlns="http://www.w3.org/2000/svg" xmlns:xlink="http://www.w3.org/1999/xlink">
<g id="graph0" class="graph" transform="scale(1 1) rotate(0) translate(4 146.5)">
<title>G</title>
<polygon fill="white" stroke="none" points="-4,4 -4,-146.5 362.25,-146.5 362.25,4 -4,4"/>
<!-- 0 -->
<g id="node1" class="node">
<title>0</title>
<ellipse fill="none" stroke="black" cx="18" cy="-18" rx="18" ry="18"/>
<text text-anchor="middle" x="18" y="-12.95" font-family="Times,serif" font-size="14.00">0</text>
</g>
<!-- 1 -->
<g id="node2" class="node">
<title>1</title>
<ellipse fill="none" stroke="black" cx="96" cy="-80" rx="18" ry="18"/>
<text text-anchor="middle" x="96" y="-74.95" font-family="Times,serif" font-size="14.00">1</text>
</g>
<!-- 0&#45;&gt;1 -->
<g id="edge1" class="edge">
<title>0&#45;&gt;1</title>
<path fill="none" stroke="black" d="M32.59,-29.08C43.65,-38.11 59.5,-51.04 72.46,-61.61"/>
<polygon fill="black" stroke="black" points="70.14,-64.24 80.1,-67.85 74.57,-58.81 70.14,-64.24"/>
<text text-anchor="middle" x="57" y="-54.2" font-family="Times,serif" font-size="14.00">a</text>
</g>
<!-- 2 -->
<g id="node3" class="node">
<title>2</title>
<ellipse fill="none" stroke="black" cx="340.25" cy="-47" rx="18" ry="18"/>
<text text-anchor="middle" x="340.25" y="-41.95" font-family="Times,serif" font-size="14.00">2</text>
</g>
<!-- 0&#45;&gt;2 -->
<g id="edge2" class="edge">
<title>0&#45;&gt;2</title>
<path fill="none" stroke="black" d="M35.4,-12.49C50.65,-7.87 74.1,-2 95,-2 95,-2 95,-2 258.5,-2 280.83,-2 302.74,-15.29 318.09,-27.43"/>
<polygon fill="black" stroke="black" points="315.68,-29.97 325.58,-33.73 320.18,-24.62 315.68,-29.97"/>
<text text-anchor="middle" x="174.75" y="-5.2" font-family="Times,serif" font-size="14.00">b</text>
</g>
<!-- 1&#45;&gt;1 -->
<g id="edge3" class="edge">
<title>1&#45;&gt;1</title>
<path fill="none" stroke="black" d="M89.09,-97.04C87.68,-106.86 89.98,-116 96,-116 99.48,-116 101.72,-112.94 102.71,-108.47"/>
<polygon fill="black" stroke="black" points="106.21,-108.61 102.88,-98.55 99.21,-108.49 106.21,-108.61"/>
<text text-anchor="middle" x="96" y="-119.2" font-family="Times,serif" font-size="14.00">a</text>
</g>
<!-- 3 -->
<g id="node4" class="node">
<title>3</title>
<ellipse fill="none" stroke="black" cx="174.75" cy="-97" rx="18" ry="18"/>
<text text-anchor="middle" x="174.75" y="-91.95" font-family="Times,serif" font-size="14.00">3</text>
</g>
<!-- 1&#45;&gt;3 -->
<g id="edge4" class="edge">
<title>1&#45;&gt;3</title>
<path fill="none" stroke="black" d="M111.72,-89.54C117.75,-92.92 124.96,-96.3 132,-98 136.19,-99.01 140.69,-99.5 145.13,-99.66"/>
<polygon fill="black" stroke="black" points="145.04,-103.16 154.96,-99.44 144.88,-96.16 145.04,-103.16"/>
<text text-anchor="middle" x="135.38" y="-103.2" font-family="Times,serif" font-size="14.00">b</text>
</g>
<!-- 2&#45;&gt;1 -->
<g id="edge5" class="edge">
<title>2&#45;&gt;1</title>
<path fill="none" stroke="black" d="M321.99,-48.74C286.37,-52.42 202.16,-61.6 132,-73 129.8,-73.36 127.52,-73.75 125.24,-74.17"/>
<polygon fill="black" stroke="black" points="124.68,-70.71 115.53,-76.05 126.01,-77.58 124.68,-70.71"/>
<text text-anchor="middle" x="214.12" y="-65.2" font-family="Times,serif" font-size="14.00">a</text>
</g>
<!-- 2&#45;&gt;2 -->
<g id="edge6" class="edge">
<title>2&#45;&gt;2</title>
<path fill="none" stroke="black" d="M333.27,-64.04C331.85,-73.86 334.17,-83 340.25,-83 343.76,-83 346.02,-79.94 347.03,-75.47"/>
<polygon fill="black" stroke="black" points="350.53,-75.61 347.2,-65.55 343.53,-75.49 350.53,-75.61"/>
<text text-anchor="middle" x="340.25" y="-86.2" font-family="Times,serif" font-size="14.00">b</text>
</g>
<!-- 3&#45;&gt;1 -->
<g id="edge7" class="edge">
<title>3&#45;&gt;1</title>
<path fill="none" stroke="black" d="M159.47,-86.88C153.39,-83.15 146.02,-79.39 138.75,-77.5 134.37,-76.36 129.64,-75.93 125.01,-75.92"/>
<polygon fill="black" stroke="black" points="125.16,-72.4 115.4,-76.53 125.6,-79.39 125.16,-72.4"/>
<text text-anchor="middle" x="135.38" y="-81.2" font-family="Times,serif" font-size="14.00">a</text>
</g>
<!-- 4 -->
<g id="node5" class="node">
<title>4</title>
<ellipse fill="none" stroke="black" cx="257.5" cy="-97" rx="18" ry="18"/>
<ellipse fill="none" stroke="black" cx="257.5" cy="-97" rx="22" ry="22"/>
<text text-anchor="middle" x="257.5" y="-91.95" font-family="Times,serif" font-size="14.00">4</text>
</g>
<!-- 3&#45;&gt;4 -->
<g id="edge8" class="edge">
<title>3&#45;&gt;4</title>
<path fill="none" stroke="black" d="M192.87,-97C201.82,-97 213.08,-97 223.63,-97"/>
<polygon fill="black" stroke="black" points="223.57,-100.5 233.57,-97 223.57,-93.5 223.57,-100.5"/>
<text text-anchor="middle" x="214.12" y="-100.2" font-family="Times,serif" font-size="14.00">b</text>
</g>
<!-- 4&#45;&gt;1 -->
<g id="edge9" class="edge">
<title>4&#45;&gt;1</title>
<path fill="none" stroke="black" d="M237.81,-107.54C231.48,-110.85 224.3,-114.33 217.5,-117 192.21,-126.95 183.84,-126.18 156.75,-124 145.64,-123.11 141.75,-125.4 132,-120 124.84,-116.03 118.44,-110.01 113.14,-103.84"/>
<polygon fill="black" stroke="black" points="116.02,-101.84 107.11,-96.1 110.49,-106.14 116.02,-101.84"/>
<text text-anchor="middle" x="174.75" y="-129.2" font-family="Times,serif" font-size="14.00">a</text>
</g>
<!-- 4&#45;&gt;2 -->
<g id="edge10" class="edge">
<title>4&#45;&gt;2</title>
<path fill="none" stroke="black" d="M276.82,-85.65C288.09,-78.68 302.67,-69.65 314.9,-62.08"/>
<polygon fill="black" stroke="black" points="316.56,-65.17 323.22,-56.93 312.87,-59.22 316.56,-65.17"/>
<text text-anchor="middle" x="300.88" y="-75.2" font-family="Times,serif" font-size="14.00">b</text>
</g>
</g>
</svg>
