<?xml version="1.0" encoding="UTF-8" standalone="no"?>
<!DOCTYPE svg PUBLIC "-//W3C//DTD SVG 1.1//EN"
 "http://www.w3.org/Graphics/SVG/1.1/DTD/svg11.dtd">
<!-- Generated by graphviz version 9.0.0 (20230911.1827)
 -->
<!-- Title: G Pages: 1 -->
<svg width="374pt" height="137pt"
 viewBox="0.00 0.00 374.25 136.92" xmlns="http://www.w3.org/2000/svg" xmlns:xlink="http://www.w3.org/1999/xlink">
<g id="graph0" class="graph" transform="scale(1 1) rotate(0) translate(4 132.92)">
<title>G</title>
<polygon fill="white" stroke="none" points="-4,4 -4,-132.92 370.25,-132.92 370.25,4 -4,4"/>
<!-- 0 -->
<g id="node1" class="node">
<title>0</title>
<ellipse fill="lightgrey" stroke="black" cx="18" cy="-39.42" rx="18" ry="18"/>
<text text-anchor="middle" x="18" y="-34.37" font-family="Times,serif" font-size="14.00">0</text>
</g>
<!-- 1 -->
<g id="node2" class="node">
<title>1</title>
<ellipse fill="none" stroke="black" cx="96.75" cy="-76.42" rx="18" ry="18"/>
<text text-anchor="middle" x="96.75" y="-71.37" font-family="Times,serif" font-size="14.00">1</text>
</g>
<!-- 0&#45;&gt;1 -->
<g id="edge1" class="edge">
<title>0&#45;&gt;1</title>
<path fill="none" stroke="black" d="M34.53,-46.91C44.66,-51.79 58.12,-58.28 69.85,-63.93"/>
<polygon fill="black" stroke="black" points="68.09,-66.97 78.61,-68.16 71.13,-60.66 68.09,-66.97"/>
<text text-anchor="middle" x="57.38" y="-61.62" font-family="Times,serif" font-size="14.00">b</text>
</g>
<!-- 2 -->
<g id="node3" class="node">
<title>2</title>
<ellipse fill="none" stroke="black" cx="174.75" cy="-23.42" rx="18" ry="18"/>
<text text-anchor="middle" x="174.75" y="-18.37" font-family="Times,serif" font-size="14.00">2</text>
</g>
<!-- 0&#45;&gt;2 -->
<g id="edge2" class="edge">
<title>0&#45;&gt;2</title>
<path fill="none" stroke="black" d="M36.25,-37.5C48.18,-36.19 64.43,-34.41 78.75,-32.92 101.06,-30.59 126.34,-28.07 145.21,-26.21"/>
<polygon fill="black" stroke="black" points="145.47,-29.7 155.08,-25.24 144.78,-22.73 145.47,-29.7"/>
<text text-anchor="middle" x="96.75" y="-36.62" font-family="Times,serif" font-size="14.00">a</text>
</g>
<!-- 1&#45;&gt;1 -->
<g id="edge3" class="edge">
<title>1&#45;&gt;1</title>
<path fill="none" stroke="black" d="M89.84,-93.46C88.43,-103.28 90.73,-112.42 96.75,-112.42 100.23,-112.42 102.47,-109.36 103.46,-104.89"/>
<polygon fill="black" stroke="black" points="106.96,-105.03 103.63,-94.97 99.96,-104.91 106.96,-105.03"/>
<text text-anchor="middle" x="96.75" y="-115.62" font-family="Times,serif" font-size="14.00">b</text>
</g>
<!-- 1&#45;&gt;2 -->
<g id="edge4" class="edge">
<title>1&#45;&gt;2</title>
<path fill="none" stroke="black" d="M112.05,-66.45C122.7,-59.02 137.49,-48.7 149.92,-40.04"/>
<polygon fill="black" stroke="black" points="151.82,-42.98 158.02,-34.39 147.81,-37.24 151.82,-42.98"/>
<text text-anchor="middle" x="135.75" y="-55.62" font-family="Times,serif" font-size="14.00">a</text>
</g>
<!-- 2&#45;&gt;2 -->
<g id="edge6" class="edge">
<title>2&#45;&gt;2</title>
<path fill="none" stroke="black" d="M167.84,-40.46C166.43,-50.28 168.73,-59.42 174.75,-59.42 178.23,-59.42 180.47,-56.36 181.46,-51.89"/>
<polygon fill="black" stroke="black" points="184.96,-52.03 181.63,-41.97 177.96,-51.91 184.96,-52.03"/>
<text text-anchor="middle" x="174.75" y="-62.62" font-family="Times,serif" font-size="14.00">a</text>
</g>
<!-- 3 -->
<g id="node4" class="node">
<title>3</title>
<ellipse fill="none" stroke="black" cx="257.5" cy="-51.42" rx="18" ry="18"/>
<ellipse fill="none" stroke="black" cx="257.5" cy="-51.42" rx="22" ry="22"/>
<text text-anchor="middle" x="257.5" y="-46.37" font-family="Times,serif" font-size="14.00">3</text>
</g>
<!-- 2&#45;&gt;3 -->
<g id="edge5" class="edge">
<title>2&#45;&gt;3</title>
<path fill="none" stroke="black" d="M190.62,-32.78C196.67,-36.25 203.85,-39.93 210.75,-42.42 215,-43.95 219.57,-45.24 224.12,-46.32"/>
<polygon fill="black" stroke="black" points="223.2,-49.71 233.7,-48.3 224.61,-42.85 223.2,-49.71"/>
<text text-anchor="middle" x="214.12" y="-47.62" font-family="Times,serif" font-size="14.00">b</text>
</g>
<!-- 3&#45;&gt;2 -->
<g id="edge8" class="edge">
<title>3&#45;&gt;2</title>
<path fill="none" stroke="black" d="M241.18,-36.16C234.49,-30.54 226.19,-24.84 217.5,-21.92 213.21,-20.48 208.54,-19.83 203.92,-19.67"/>
<polygon fill="black" stroke="black" points="204.16,-16.16 194.31,-20.06 204.45,-23.15 204.16,-16.16"/>
<text text-anchor="middle" x="214.12" y="-25.62" font-family="Times,serif" font-size="14.00">a</text>
</g>
<!-- 4 -->
<g id="node5" class="node">
<title>4</title>
<ellipse fill="none" stroke="black" cx="344.25" cy="-51.42" rx="18" ry="18"/>
<ellipse fill="none" stroke="black" cx="344.25" cy="-51.42" rx="22" ry="22"/>
<text text-anchor="middle" x="344.25" y="-46.37" font-family="Times,serif" font-size="14.00">4</text>
</g>
<!-- 3&#45;&gt;4 -->
<g id="edge7" class="edge">
<title>3&#45;&gt;4</title>
<path fill="none" stroke="black" d="M279.89,-51.42C289.12,-51.42 300.13,-51.42 310.37,-51.42"/>
<polygon fill="black" stroke="black" points="310.36,-54.92 320.36,-51.42 310.36,-47.92 310.36,-54.92"/>
<text text-anchor="middle" x="300.88" y="-54.62" font-family="Times,serif" font-size="14.00">b</text>
</g>
<!-- 4&#45;&gt;1 -->
<g id="edge9" class="edge">
<title>4&#45;&gt;1</title>
<path fill="none" stroke="black" d="M325.15,-63.17C312.84,-70.41 295.87,-78.94 279.5,-82.42 225.95,-93.79 161.56,-87 125.58,-81.44"/>
<polygon fill="black" stroke="black" points="126.45,-78.04 116.02,-79.87 125.32,-84.95 126.45,-78.04"/>
<text text-anchor="middle" x="214.12" y="-91.62" font-family="Times,serif" font-size="14.00">b</text>
</g>
<!-- 4&#45;&gt;2 -->
<g id="edge10" class="edge">
<title>4&#45;&gt;2</title>
<path fill="none" stroke="black" d="M328.65,-36.16C316.67,-24.82 298.63,-10.26 279.5,-3.92 253.69,4.64 222.96,-3.27 201.67,-11.43"/>
<polygon fill="black" stroke="black" points="200.5,-8.13 192.59,-15.19 203.17,-14.6 200.5,-8.13"/>
<text text-anchor="middle" x="257.5" y="-7.62" font-family="Times,serif" font-size="14.00">a</text>
</g>
</g>
</svg>
