<?xml version="1.0" encoding="UTF-8" standalone="no"?>
<!DOCTYPE svg PUBLIC "-//W3C//DTD SVG 1.1//EN"
 "http://www.w3.org/Graphics/SVG/1.1/DTD/svg11.dtd">
<!-- Generated by graphviz version 9.0.0 (20230911.1827)
 -->
<!-- Title: G Pages: 1 -->
<svg width="296pt" height="254pt"
 viewBox="0.00 0.00 295.50 254.50" xmlns="http://www.w3.org/2000/svg" xmlns:xlink="http://www.w3.org/1999/xlink">
<g id="graph0" class="graph" transform="scale(1 1) rotate(0) translate(4 250.5)">
<title>G</title>
<polygon fill="white" stroke="none" points="-4,4 -4,-250.5 291.5,-250.5 291.5,4 -4,4"/>
<!-- 0 -->
<g id="node1" class="node">
<title>0</title>
<ellipse fill="lightgrey" stroke="black" cx="18" cy="-173" rx="18" ry="18"/>
<text text-anchor="middle" x="18" y="-167.95" font-family="Times,serif" font-size="14.00">0</text>
</g>
<!-- 1 -->
<g id="node2" class="node">
<title>1</title>
<ellipse fill="none" stroke="black" cx="100.75" cy="-173" rx="18" ry="18"/>
<ellipse fill="none" stroke="black" cx="100.75" cy="-173" rx="22" ry="22"/>
<text text-anchor="middle" x="100.75" y="-167.95" font-family="Times,serif" font-size="14.00">1</text>
</g>
<!-- 0&#45;&gt;1 -->
<g id="edge1" class="edge">
<title>0&#45;&gt;1</title>
<path fill="none" stroke="black" d="M36.12,-173C45.07,-173 56.33,-173 66.88,-173"/>
<polygon fill="black" stroke="black" points="66.82,-176.5 76.82,-173 66.82,-169.5 66.82,-176.5"/>
<text text-anchor="middle" x="57.38" y="-176.2" font-family="Times,serif" font-size="14.00">a</text>
</g>
<!-- 2 -->
<g id="node3" class="node">
<title>2</title>
<ellipse fill="none" stroke="black" cx="269.5" cy="-120" rx="18" ry="18"/>
<text text-anchor="middle" x="269.5" y="-114.95" font-family="Times,serif" font-size="14.00">2</text>
</g>
<!-- 0&#45;&gt;2 -->
<g id="edge2" class="edge">
<title>0&#45;&gt;2</title>
<path fill="none" stroke="black" d="M33.7,-182.52C39.85,-186.31 47.15,-190.58 54,-194 116.49,-225.13 142.36,-242.59 208.75,-221 239.47,-211.01 255.05,-174.66 262.47,-148.42"/>
<polygon fill="black" stroke="black" points="265.79,-149.58 264.87,-139.03 259,-147.85 265.79,-149.58"/>
<text text-anchor="middle" x="143.75" y="-233.2" font-family="Times,serif" font-size="14.00">c</text>
</g>
<!-- 3 -->
<g id="node4" class="node">
<title>3</title>
<ellipse fill="none" stroke="black" cx="100.75" cy="-46" rx="18" ry="18"/>
<ellipse fill="none" stroke="black" cx="100.75" cy="-46" rx="22" ry="22"/>
<text text-anchor="middle" x="100.75" y="-40.95" font-family="Times,serif" font-size="14.00">3</text>
</g>
<!-- 0&#45;&gt;3 -->
<g id="edge3" class="edge">
<title>0&#45;&gt;3</title>
<path fill="none" stroke="black" d="M28.58,-157.93C41.71,-137.28 65.54,-99.81 81.98,-73.94"/>
<polygon fill="black" stroke="black" points="84.87,-75.92 87.29,-65.6 78.97,-72.16 84.87,-75.92"/>
<text text-anchor="middle" x="57.38" y="-121.2" font-family="Times,serif" font-size="14.00">b</text>
</g>
<!-- 1&#45;&gt;2 -->
<g id="edge4" class="edge">
<title>1&#45;&gt;2</title>
<path fill="none" stroke="black" d="M120.73,-182.66C148.71,-195.39 201.19,-213.26 233.5,-187 245.75,-177.04 254.22,-161.64 259.75,-148.12"/>
<polygon fill="black" stroke="black" points="263.02,-149.37 263.2,-138.78 256.45,-146.95 263.02,-149.37"/>
<text text-anchor="middle" x="186.75" y="-203.2" font-family="Times,serif" font-size="14.00">a</text>
</g>
<!-- 1&#45;&gt;2 -->
<g id="edge6" class="edge">
<title>1&#45;&gt;2</title>
<path fill="none" stroke="black" d="M122.55,-168.8C144.33,-164.17 179.38,-156.02 208.75,-146 219.99,-142.16 232.07,-137.1 242.4,-132.46"/>
<polygon fill="black" stroke="black" points="243.81,-135.66 251.43,-128.3 240.88,-129.3 243.81,-135.66"/>
<text text-anchor="middle" x="186.75" y="-161.2" font-family="Times,serif" font-size="14.00">b</text>
</g>
<!-- 4 -->
<g id="node5" class="node">
<title>4</title>
<ellipse fill="none" stroke="black" cx="186.75" cy="-80" rx="18" ry="18"/>
<ellipse fill="none" stroke="black" cx="186.75" cy="-80" rx="22" ry="22"/>
<text text-anchor="middle" x="186.75" y="-74.95" font-family="Times,serif" font-size="14.00">4</text>
</g>
<!-- 1&#45;&gt;4 -->
<g id="edge5" class="edge">
<title>1&#45;&gt;4</title>
<path fill="none" stroke="black" d="M116,-157.22C129.07,-142.75 148.64,-121.08 163.73,-104.38"/>
<polygon fill="black" stroke="black" points="166.03,-107.05 170.13,-97.29 160.83,-102.36 166.03,-107.05"/>
<text text-anchor="middle" x="143.75" y="-133.2" font-family="Times,serif" font-size="14.00">c</text>
</g>
<!-- 2&#45;&gt;2 -->
<g id="edge7" class="edge">
<title>2&#45;&gt;2</title>
<path fill="none" stroke="black" d="M267.13,-138.15C266.76,-147.54 267.55,-156 269.5,-156 270.57,-156 271.28,-153.47 271.66,-149.64"/>
<polygon fill="black" stroke="black" points="275.16,-149.73 271.85,-139.66 268.16,-149.6 275.16,-149.73"/>
<text text-anchor="middle" x="269.5" y="-159.2" font-family="Times,serif" font-size="14.00">a</text>
</g>
<!-- 2&#45;&gt;2 -->
<g id="edge8" class="edge">
<title>2&#45;&gt;2</title>
<path fill="none" stroke="black" d="M265.55,-137.98C263.44,-155.2 264.76,-174 269.5,-174 273.21,-174 274.82,-162.52 274.34,-149.29"/>
<polygon fill="black" stroke="black" points="277.84,-149.18 273.57,-139.48 270.86,-149.73 277.84,-149.18"/>
<text text-anchor="middle" x="269.5" y="-177.2" font-family="Times,serif" font-size="14.00">c</text>
</g>
<!-- 2&#45;&gt;2 -->
<g id="edge9" class="edge">
<title>2&#45;&gt;2</title>
<path fill="none" stroke="black" d="M264.58,-137.71C260.09,-162.11 261.73,-192 269.5,-192 276.11,-192 278.28,-170.33 276.01,-148.82"/>
<polygon fill="black" stroke="black" points="279.52,-148.61 274.63,-139.21 272.59,-149.61 279.52,-148.61"/>
<text text-anchor="middle" x="269.5" y="-195.2" font-family="Times,serif" font-size="14.00">b</text>
</g>
<!-- 3&#45;&gt;2 -->
<g id="edge10" class="edge">
<title>3&#45;&gt;2</title>
<path fill="none" stroke="black" d="M121.13,-37.1C143.55,-28.21 180.93,-17.81 208.75,-32.5 232.6,-45.09 248.74,-71.97 258.16,-92.63"/>
<polygon fill="black" stroke="black" points="254.87,-93.83 262.01,-101.66 261.31,-91.09 254.87,-93.83"/>
<text text-anchor="middle" x="186.75" y="-36.2" font-family="Times,serif" font-size="14.00">a</text>
</g>
<!-- 3&#45;&gt;2 -->
<g id="edge12" class="edge">
<title>3&#45;&gt;2</title>
<path fill="none" stroke="black" d="M117.91,-31.45C139.38,-14 178.14,10.98 208.75,-5.5 240.37,-22.51 255.81,-63.04 262.94,-91.01"/>
<polygon fill="black" stroke="black" points="259.5,-91.69 265.17,-100.64 266.32,-90.11 259.5,-91.69"/>
<text text-anchor="middle" x="186.75" y="-9.2" font-family="Times,serif" font-size="14.00">b</text>
</g>
<!-- 3&#45;&gt;4 -->
<g id="edge11" class="edge">
<title>3&#45;&gt;4</title>
<path fill="none" stroke="black" d="M121.66,-54.05C131.8,-58.16 144.36,-63.24 155.66,-67.82"/>
<polygon fill="black" stroke="black" points="154,-70.92 164.58,-71.43 156.63,-64.43 154,-70.92"/>
<text text-anchor="middle" x="143.75" y="-68.2" font-family="Times,serif" font-size="14.00">c</text>
</g>
<!-- 4&#45;&gt;2 -->
<g id="edge13" class="edge">
<title>4&#45;&gt;2</title>
<path fill="none" stroke="black" d="M209.05,-77.29C217.04,-77.13 226,-78.03 233.5,-81.5 240.66,-84.81 247.01,-90.34 252.27,-96.19"/>
<polygon fill="black" stroke="black" points="249.22,-97.99 258.21,-103.6 254.68,-93.61 249.22,-97.99"/>
<text text-anchor="middle" x="230.12" y="-85.2" font-family="Times,serif" font-size="14.00">a</text>
</g>
<!-- 4&#45;&gt;2 -->
<g id="edge15" class="edge">
<title>4&#45;&gt;2</title>
<path fill="none" stroke="black" d="M206.89,-89.48C217.6,-94.78 231.1,-101.47 242.73,-107.23"/>
<polygon fill="black" stroke="black" points="240.88,-110.22 251.4,-111.53 243.99,-103.95 240.88,-110.22"/>
<text text-anchor="middle" x="230.12" y="-106.2" font-family="Times,serif" font-size="14.00">b</text>
</g>
<!-- 4&#45;&gt;4 -->
<g id="edge14" class="edge">
<title>4&#45;&gt;4</title>
<path fill="none" stroke="black" d="M178.88,-100.99C177.91,-111.08 180.54,-120 186.75,-120 190.44,-120 192.86,-116.85 194.02,-112.19"/>
<polygon fill="black" stroke="black" points="197.5,-112.67 194.54,-102.5 190.51,-112.3 197.5,-112.67"/>
<text text-anchor="middle" x="186.75" y="-123.2" font-family="Times,serif" font-size="14.00">c</text>
</g>
</g>
</svg>
