<?xml version="1.0" encoding="UTF-8" standalone="no"?>
<!DOCTYPE svg PUBLIC "-//W3C//DTD SVG 1.1//EN"
 "http://www.w3.org/Graphics/SVG/1.1/DTD/svg11.dtd">
<!-- Generated by graphviz version 9.0.0 (20230911.1827)
 -->
<!-- Title: G Pages: 1 -->
<svg width="366pt" height="142pt"
 viewBox="0.00 0.00 366.25 141.50" xmlns="http://www.w3.org/2000/svg" xmlns:xlink="http://www.w3.org/1999/xlink">
<g id="graph0" class="graph" transform="scale(1 1) rotate(0) translate(4 137.5)">
<title>G</title>
<polygon fill="white" stroke="none" points="-4,4 -4,-137.5 362.25,-137.5 362.25,4 -4,4"/>
<!-- 0 -->
<g id="node1" class="node">
<title>0</title>
<ellipse fill="lightgrey" stroke="black" cx="18" cy="-18" rx="18" ry="18"/>
<text text-anchor="middle" x="18" y="-12.95" font-family="Times,serif" font-size="14.00">0</text>
</g>
<!-- 1 -->
<g id="node2" class="node">
<title>1</title>
<ellipse fill="none" stroke="black" cx="96" cy="-18" rx="18" ry="18"/>
<text text-anchor="middle" x="96" y="-12.95" font-family="Times,serif" font-size="14.00">1</text>
</g>
<!-- 0&#45;&gt;1 -->
<g id="edge1" class="edge">
<title>0&#45;&gt;1</title>
<path fill="none" stroke="black" d="M36.25,-18C45.12,-18 56.18,-18 66.3,-18"/>
<polygon fill="black" stroke="black" points="66.05,-21.5 76.05,-18 66.05,-14.5 66.05,-21.5"/>
<text text-anchor="middle" x="57" y="-21.2" font-family="Times,serif" font-size="14.00">a</text>
</g>
<!-- 6 -->
<g id="node3" class="node">
<title>6</title>
<ellipse fill="none" stroke="black" cx="174.75" cy="-81" rx="18" ry="18"/>
<text text-anchor="middle" x="174.75" y="-75.95" font-family="Times,serif" font-size="14.00">6</text>
</g>
<!-- 1&#45;&gt;6 -->
<g id="edge2" class="edge">
<title>1&#45;&gt;6</title>
<path fill="none" stroke="black" d="M110.37,-28.97C121.74,-38.31 138.31,-51.91 151.66,-62.87"/>
<polygon fill="black" stroke="black" points="149.16,-65.34 159.11,-68.98 153.6,-59.93 149.16,-65.34"/>
<text text-anchor="middle" x="135.38" y="-54.2" font-family="Times,serif" font-size="14.00">b</text>
</g>
<!-- 7 -->
<g id="node4" class="node">
<title>7</title>
<ellipse fill="none" stroke="black" cx="253.5" cy="-34" rx="18" ry="18"/>
<text text-anchor="middle" x="253.5" y="-28.95" font-family="Times,serif" font-size="14.00">7</text>
</g>
<!-- 1&#45;&gt;7 -->
<g id="edge3" class="edge">
<title>1&#45;&gt;7</title>
<path fill="none" stroke="black" d="M114.24,-19.77C140.74,-22.5 191.8,-27.75 223.9,-31.06"/>
<polygon fill="black" stroke="black" points="223.38,-34.52 233.68,-32.06 224.09,-27.56 223.38,-34.52"/>
<text text-anchor="middle" x="174.75" y="-30.2" font-family="Times,serif" font-size="14.00">c</text>
</g>
<!-- 8 -->
<g id="node5" class="node">
<title>8</title>
<ellipse fill="none" stroke="black" cx="336.25" cy="-34" rx="18" ry="18"/>
<ellipse fill="none" stroke="black" cx="336.25" cy="-34" rx="22" ry="22"/>
<text text-anchor="middle" x="336.25" y="-28.95" font-family="Times,serif" font-size="14.00">8</text>
</g>
<!-- 1&#45;&gt;8 -->
<g id="edge4" class="edge">
<title>1&#45;&gt;8</title>
<path fill="none" stroke="black" d="M114.05,-14C145.51,-7.26 214.68,4.54 271.5,-7 283.21,-9.38 295.45,-13.98 306.03,-18.73"/>
<polygon fill="black" stroke="black" points="304.47,-21.86 315,-22.98 307.47,-15.53 304.47,-21.86"/>
<text text-anchor="middle" x="214.12" y="-6.2" font-family="Times,serif" font-size="14.00">d</text>
</g>
<!-- 6&#45;&gt;6 -->
<g id="edge5" class="edge">
<title>6&#45;&gt;6</title>
<path fill="none" stroke="black" d="M167.77,-98.04C166.35,-107.86 168.67,-117 174.75,-117 178.26,-117 180.52,-113.94 181.53,-109.47"/>
<polygon fill="black" stroke="black" points="185.03,-109.61 181.7,-99.55 178.03,-109.49 185.03,-109.61"/>
<text text-anchor="middle" x="174.75" y="-120.2" font-family="Times,serif" font-size="14.00">b</text>
</g>
<!-- 6&#45;&gt;7 -->
<g id="edge6" class="edge">
<title>6&#45;&gt;7</title>
<path fill="none" stroke="black" d="M188.75,-69.02C195.09,-63.55 203,-57.25 210.75,-52.5 215.48,-49.6 220.75,-46.9 225.91,-44.5"/>
<polygon fill="black" stroke="black" points="226.97,-47.86 234.75,-40.67 224.18,-41.44 226.97,-47.86"/>
<text text-anchor="middle" x="214.12" y="-55.2" font-family="Times,serif" font-size="14.00">c</text>
</g>
<!-- 6&#45;&gt;8 -->
<g id="edge7" class="edge">
<title>6&#45;&gt;8</title>
<path fill="none" stroke="black" d="M191.59,-88.44C211.08,-96.5 244.84,-106.83 271.5,-96 289.17,-88.83 304.62,-74.14 315.89,-60.87"/>
<polygon fill="black" stroke="black" points="318.52,-63.18 322.05,-53.19 313.06,-58.8 318.52,-63.18"/>
<text text-anchor="middle" x="253.5" y="-103.2" font-family="Times,serif" font-size="14.00">d</text>
</g>
<!-- 7&#45;&gt;6 -->
<g id="edge8" class="edge">
<title>7&#45;&gt;6</title>
<path fill="none" stroke="black" d="M241.5,-48C235.18,-55.21 226.68,-63.59 217.5,-69 213.26,-71.5 208.47,-73.5 203.68,-75.1"/>
<polygon fill="black" stroke="black" points="202.94,-71.68 194.25,-77.74 204.82,-78.42 202.94,-71.68"/>
<text text-anchor="middle" x="214.12" y="-75.2" font-family="Times,serif" font-size="14.00">b</text>
</g>
<!-- 7&#45;&gt;7 -->
<g id="edge9" class="edge">
<title>7&#45;&gt;7</title>
<path fill="none" stroke="black" d="M246.52,-51.04C245.1,-60.86 247.42,-70 253.5,-70 257.01,-70 259.27,-66.94 260.28,-62.47"/>
<polygon fill="black" stroke="black" points="263.78,-62.61 260.45,-52.55 256.78,-62.49 263.78,-62.61"/>
<text text-anchor="middle" x="253.5" y="-73.2" font-family="Times,serif" font-size="14.00">c</text>
</g>
<!-- 7&#45;&gt;8 -->
<g id="edge10" class="edge">
<title>7&#45;&gt;8</title>
<path fill="none" stroke="black" d="M271.62,-34C280.57,-34 291.83,-34 302.38,-34"/>
<polygon fill="black" stroke="black" points="302.32,-37.5 312.32,-34 302.32,-30.5 302.32,-37.5"/>
<text text-anchor="middle" x="292.88" y="-37.2" font-family="Times,serif" font-size="14.00">d</text>
</g>
</g>
</svg>
