<?xml version="1.0" encoding="UTF-8" standalone="no"?>
<!DOCTYPE svg PUBLIC "-//W3C//DTD SVG 1.1//EN"
 "http://www.w3.org/Graphics/SVG/1.1/DTD/svg11.dtd">
<!-- Generated by graphviz version 9.0.0 (20230911.1827)
 -->
<!-- Title: G Pages: 1 -->
<svg width="131pt" height="238pt"
 viewBox="0.00 0.00 130.75 238.00" xmlns="http://www.w3.org/2000/svg" xmlns:xlink="http://www.w3.org/1999/xlink">
<g id="graph0" class="graph" transform="scale(1 1) rotate(0) translate(4 234)">
<title>G</title>
<polygon fill="white" stroke="none" points="-4,4 -4,-234 126.75,-234 126.75,4 -4,4"/>
<!-- 0 -->
<g id="node1" class="node">
<title>0</title>
<ellipse fill="lightgrey" stroke="black" cx="18" cy="-115" rx="18" ry="18"/>
<text text-anchor="middle" x="18" y="-109.95" font-family="Times,serif" font-size="14.00">0</text>
</g>
<!-- 1 -->
<g id="node2" class="node">
<title>1</title>
<ellipse fill="none" stroke="black" cx="100.75" cy="-208" rx="18" ry="18"/>
<ellipse fill="none" stroke="black" cx="100.75" cy="-208" rx="22" ry="22"/>
<text text-anchor="middle" x="100.75" y="-202.95" font-family="Times,serif" font-size="14.00">1</text>
</g>
<!-- 0&#45;&gt;1 -->
<g id="edge1" class="edge">
<title>0&#45;&gt;1</title>
<path fill="none" stroke="black" d="M30.57,-128.32C42.9,-142.52 62.71,-165.34 77.97,-182.92"/>
<polygon fill="black" stroke="black" points="75.29,-185.17 84.49,-190.42 80.57,-180.58 75.29,-185.17"/>
<text text-anchor="middle" x="57.38" y="-164.2" font-family="Times,serif" font-size="14.00">d</text>
</g>
<!-- 2 -->
<g id="node3" class="node">
<title>2</title>
<ellipse fill="none" stroke="black" cx="100.75" cy="-146" rx="18" ry="18"/>
<ellipse fill="none" stroke="black" cx="100.75" cy="-146" rx="22" ry="22"/>
<text text-anchor="middle" x="100.75" y="-140.95" font-family="Times,serif" font-size="14.00">2</text>
</g>
<!-- 0&#45;&gt;2 -->
<g id="edge2" class="edge">
<title>0&#45;&gt;2</title>
<path fill="none" stroke="black" d="M35.34,-121.27C45.05,-125 57.67,-129.85 69.17,-134.26"/>
<polygon fill="black" stroke="black" points="67.71,-137.45 78.3,-137.77 70.22,-130.91 67.71,-137.45"/>
<text text-anchor="middle" x="57.38" y="-133.2" font-family="Times,serif" font-size="14.00">a</text>
</g>
<!-- 3 -->
<g id="node4" class="node">
<title>3</title>
<ellipse fill="none" stroke="black" cx="100.75" cy="-84" rx="18" ry="18"/>
<ellipse fill="none" stroke="black" cx="100.75" cy="-84" rx="22" ry="22"/>
<text text-anchor="middle" x="100.75" y="-78.95" font-family="Times,serif" font-size="14.00">3</text>
</g>
<!-- 0&#45;&gt;3 -->
<g id="edge3" class="edge">
<title>0&#45;&gt;3</title>
<path fill="none" stroke="black" d="M35.34,-108.73C45.05,-105 57.67,-100.15 69.17,-95.74"/>
<polygon fill="black" stroke="black" points="70.22,-99.09 78.3,-92.23 67.71,-92.55 70.22,-99.09"/>
<text text-anchor="middle" x="57.38" y="-104.2" font-family="Times,serif" font-size="14.00">c</text>
</g>
<!-- 4 -->
<g id="node5" class="node">
<title>4</title>
<ellipse fill="none" stroke="black" cx="100.75" cy="-22" rx="18" ry="18"/>
<ellipse fill="none" stroke="black" cx="100.75" cy="-22" rx="22" ry="22"/>
<text text-anchor="middle" x="100.75" y="-16.95" font-family="Times,serif" font-size="14.00">4</text>
</g>
<!-- 0&#45;&gt;4 -->
<g id="edge4" class="edge">
<title>0&#45;&gt;4</title>
<path fill="none" stroke="black" d="M30.57,-101.68C42.9,-87.48 62.71,-64.66 77.97,-47.08"/>
<polygon fill="black" stroke="black" points="80.57,-49.42 84.49,-39.58 75.29,-44.83 80.57,-49.42"/>
<text text-anchor="middle" x="57.38" y="-77.2" font-family="Times,serif" font-size="14.00">b</text>
</g>
</g>
</svg>
