<?xml version="1.0" encoding="UTF-8" standalone="no"?>
<!DOCTYPE svg PUBLIC "-//W3C//DTD SVG 1.1//EN"
 "http://www.w3.org/Graphics/SVG/1.1/DTD/svg11.dtd">
<!-- Generated by graphviz version 9.0.0 (20230911.1827)
 -->
<!-- Title: G Pages: 1 -->
<svg width="471pt" height="56pt"
 viewBox="0.00 0.00 470.57 56.26" xmlns="http://www.w3.org/2000/svg" xmlns:xlink="http://www.w3.org/1999/xlink">
<g id="graph0" class="graph" transform="scale(1 1) rotate(0) translate(4 52.26)">
<title>G</title>
<polygon fill="white" stroke="none" points="-4,4 -4,-52.26 466.57,-52.26 466.57,4 -4,4"/>
<!-- 16 -->
<g id="node1" class="node">
<title>16</title>
<ellipse fill="none" stroke="black" cx="103.14" cy="-24.13" rx="20.13" ry="20.13"/>
<text text-anchor="middle" x="103.14" y="-19.08" font-family="Times,serif" font-size="14.00">16</text>
</g>
<!-- 19 -->
<g id="node2" class="node">
<title>19</title>
<ellipse fill="none" stroke="black" cx="185.41" cy="-24.13" rx="20.13" ry="20.13"/>
<text text-anchor="middle" x="185.41" y="-19.08" font-family="Times,serif" font-size="14.00">19</text>
</g>
<!-- 16&#45;&gt;19 -->
<g id="edge1" class="edge">
<title>16&#45;&gt;19</title>
<path fill="none" stroke="black" d="M123.57,-24.13C132.58,-24.13 143.49,-24.13 153.58,-24.13"/>
<polygon fill="black" stroke="black" points="153.36,-27.63 163.36,-24.13 153.36,-20.63 153.36,-27.63"/>
<text text-anchor="middle" x="144.27" y="-27.33" font-family="Times,serif" font-size="14.00">a</text>
</g>
<!-- 18 -->
<g id="node5" class="node">
<title>18</title>
<ellipse fill="none" stroke="black" cx="268.42" cy="-24.13" rx="20.13" ry="20.13"/>
<text text-anchor="middle" x="268.42" y="-19.08" font-family="Times,serif" font-size="14.00">18</text>
</g>
<!-- 19&#45;&gt;18 -->
<g id="edge5" class="edge">
<title>19&#45;&gt;18</title>
<path fill="none" stroke="black" d="M206.02,-24.13C215.17,-24.13 226.29,-24.13 236.53,-24.13"/>
<polygon fill="black" stroke="black" points="236.47,-27.63 246.47,-24.13 236.47,-20.63 236.47,-27.63"/>
<text text-anchor="middle" x="226.91" y="-27.33" font-family="Times,serif" font-size="14.00">b</text>
</g>
<!-- 17 -->
<g id="node3" class="node">
<title>17</title>
<ellipse fill="none" stroke="black" cx="351.43" cy="-24.13" rx="20.13" ry="20.13"/>
<text text-anchor="middle" x="351.43" y="-19.08" font-family="Times,serif" font-size="14.00">17</text>
</g>
<!-- 15 -->
<g id="node4" class="node">
<title>15</title>
<ellipse fill="none" stroke="black" cx="438.44" cy="-24.13" rx="20.13" ry="20.13"/>
<ellipse fill="none" stroke="black" cx="438.44" cy="-24.13" rx="24.13" ry="24.13"/>
<text text-anchor="middle" x="438.44" y="-19.08" font-family="Times,serif" font-size="14.00">15</text>
</g>
<!-- 17&#45;&gt;15 -->
<g id="edge2" class="edge">
<title>17&#45;&gt;15</title>
<path fill="none" stroke="black" d="M371.72,-24.13C380.83,-24.13 392,-24.13 402.52,-24.13"/>
<polygon fill="black" stroke="black" points="402.47,-27.63 412.47,-24.13 402.47,-20.63 402.47,-27.63"/>
<text text-anchor="middle" x="392.94" y="-27.33" font-family="Times,serif" font-size="14.00">b</text>
</g>
<!-- 17&#45;&gt;15 -->
<g id="edge3" class="edge">
<title>17&#45;&gt;15</title>
<path fill="none" stroke="black" d="M368.68,-12.84C374.92,-9.14 382.29,-5.51 389.56,-3.63 395.8,-2.02 402.28,-2.9 408.37,-5"/>
<polygon fill="black" stroke="black" points="406.89,-8.17 417.43,-9.2 409.83,-1.82 406.89,-8.17"/>
<text text-anchor="middle" x="392.94" y="-7.33" font-family="Times,serif" font-size="14.00">a</text>
</g>
<!-- 18&#45;&gt;17 -->
<g id="edge4" class="edge">
<title>18&#45;&gt;17</title>
<path fill="none" stroke="black" d="M289.03,-24.13C298.18,-24.13 309.3,-24.13 319.54,-24.13"/>
<polygon fill="black" stroke="black" points="319.49,-27.63 329.49,-24.13 319.49,-20.63 319.49,-27.63"/>
<text text-anchor="middle" x="309.92" y="-27.33" font-family="Times,serif" font-size="14.00">b</text>
</g>
<!-- 20 -->
<g id="node6" class="node">
<title>20</title>
<ellipse fill="lightgrey" stroke="black" cx="20.13" cy="-24.13" rx="20.13" ry="20.13"/>
<text text-anchor="middle" x="20.13" y="-19.08" font-family="Times,serif" font-size="14.00">20</text>
</g>
<!-- 20&#45;&gt;16 -->
<g id="edge6" class="edge">
<title>20&#45;&gt;16</title>
<path fill="none" stroke="black" d="M40.74,-24.13C49.9,-24.13 61.01,-24.13 71.26,-24.13"/>
<polygon fill="black" stroke="black" points="71.2,-27.63 81.2,-24.13 71.2,-20.63 71.2,-27.63"/>
<text text-anchor="middle" x="61.64" y="-27.33" font-family="Times,serif" font-size="14.00">b</text>
</g>
</g>
</svg>
