<?xml version="1.0" encoding="UTF-8" standalone="no"?>
<!DOCTYPE svg PUBLIC "-//W3C//DTD SVG 1.1//EN"
 "http://www.w3.org/Graphics/SVG/1.1/DTD/svg11.dtd">
<!-- Generated by graphviz version 8.1.0 (20230707.0739)
 -->
<!-- Title: G Pages: 1 -->
<svg width="213pt" height="280pt"
 viewBox="0.00 0.00 212.75 279.56" xmlns="http://www.w3.org/2000/svg" xmlns:xlink="http://www.w3.org/1999/xlink">
<g id="graph0" class="graph" transform="scale(1 1) rotate(0) translate(4 275.56)">
<title>G</title>
<polygon fill="white" stroke="none" points="-4,4 -4,-275.56 208.75,-275.56 208.75,4 -4,4"/>
<!-- 8 -->
<g id="node1" class="node">
<title>8</title>
<ellipse fill="none" stroke="black" cx="18" cy="-159.81" rx="18" ry="18"/>
<text text-anchor="middle" x="18" y="-154.39" font-family="Times New Roman,serif" font-size="14.00">8</text>
</g>
<!-- 9 -->
<g id="node2" class="node">
<title>9</title>
<ellipse fill="none" stroke="black" cx="101.5" cy="-215.81" rx="18" ry="18"/>
<ellipse fill="none" stroke="black" cx="101.5" cy="-215.81" rx="22" ry="22"/>
<text text-anchor="middle" x="101.5" y="-210.39" font-family="Times New Roman,serif" font-size="14.00">9</text>
</g>
<!-- 8&#45;&gt;9 -->
<g id="edge1" class="edge">
<title>8&#45;&gt;9</title>
<path fill="none" stroke="black" d="M33.2,-169.57C44.39,-177.26 60.31,-188.2 73.86,-197.51"/>
<polygon fill="black" stroke="black" points="71.55,-200.85 81.77,-203.63 75.51,-195.08 71.55,-200.85"/>
<text text-anchor="middle" x="57.75" y="-190.26" font-family="Times New Roman,serif" font-size="14.00">b</text>
</g>
<!-- 10 -->
<g id="node3" class="node">
<title>10</title>
<ellipse fill="none" stroke="black" cx="185.13" cy="-133.81" rx="19.63" ry="19.63"/>
<text text-anchor="middle" x="185.13" y="-128.39" font-family="Times New Roman,serif" font-size="14.00">10</text>
</g>
<!-- 8&#45;&gt;10 -->
<g id="edge2" class="edge">
<title>8&#45;&gt;10</title>
<path fill="none" stroke="black" d="M36.05,-157.13C64.03,-152.72 120.04,-143.9 154.59,-138.46"/>
<polygon fill="black" stroke="black" points="155.07,-141.77 164.41,-136.76 153.99,-134.86 155.07,-141.77"/>
<text text-anchor="middle" x="101.5" y="-152.26" font-family="Times New Roman,serif" font-size="14.00">a</text>
</g>
<!-- 9&#45;&gt;9 -->
<g id="edge3" class="edge">
<title>9&#45;&gt;9</title>
<path fill="none" stroke="black" d="M93.63,-236.8C92.66,-246.9 95.29,-255.81 101.5,-255.81 105.29,-255.81 107.74,-252.5 108.86,-247.63"/>
<polygon fill="black" stroke="black" points="112.39,-247.96 109.37,-237.8 105.4,-247.63 112.39,-247.96"/>
<text text-anchor="middle" x="101.5" y="-258.26" font-family="Times New Roman,serif" font-size="14.00">b</text>
</g>
<!-- 9&#45;&gt;10 -->
<g id="edge4" class="edge">
<title>9&#45;&gt;10</title>
<path fill="none" stroke="black" d="M118.62,-201.34C127.33,-193.38 138.17,-183.23 147.5,-173.81 153.02,-168.24 158.83,-162.06 164.15,-156.25"/>
<polygon fill="black" stroke="black" points="166.39,-158.89 170.51,-149.13 161.2,-154.19 166.39,-158.89"/>
<text text-anchor="middle" x="144.5" y="-181.26" font-family="Times New Roman,serif" font-size="14.00">a</text>
</g>
<!-- 10&#45;&gt;8 -->
<g id="edge9" class="edge">
<title>10&#45;&gt;8</title>
<path fill="none" stroke="black" d="M166.01,-127.94C144.87,-122.01 109.04,-114.79 79.5,-123.06 65.77,-126.91 52.06,-134.81 41.17,-142.31"/>
<polygon fill="black" stroke="black" points="39.43,-139.98 33.4,-148.68 43.55,-145.64 39.43,-139.98"/>
<text text-anchor="middle" x="101.5" y="-125.26" font-family="Times New Roman,serif" font-size="14.00">b</text>
</g>
<!-- 10&#45;&gt;10 -->
<g id="edge10" class="edge">
<title>10&#45;&gt;10</title>
<path fill="none" stroke="black" d="M177.82,-152.4C176.58,-162.36 179.02,-171.44 185.13,-171.44 188.85,-171.44 191.21,-168.07 192.2,-163.18"/>
<polygon fill="black" stroke="black" points="195.72,-163.47 192.43,-153.4 188.72,-163.32 195.72,-163.47"/>
<text text-anchor="middle" x="185.13" y="-173.89" font-family="Times New Roman,serif" font-size="14.00">a</text>
</g>
<!-- 7 -->
<g id="node4" class="node">
<title>7</title>
<ellipse fill="none" stroke="black" cx="101.5" cy="-19.81" rx="18" ry="18"/>
<text text-anchor="middle" x="101.5" y="-14.39" font-family="Times New Roman,serif" font-size="14.00">7</text>
</g>
<!-- 7&#45;&gt;10 -->
<g id="edge6" class="edge">
<title>7&#45;&gt;10</title>
<path fill="none" stroke="black" d="M113.53,-33.48C122.83,-45.14 136.37,-62.46 147.5,-78.06 154.46,-87.82 161.78,-98.8 168.03,-108.42"/>
<polygon fill="black" stroke="black" points="165.51,-109.98 173.87,-116.49 171.4,-106.19 165.51,-109.98"/>
<text text-anchor="middle" x="144.5" y="-80.26" font-family="Times New Roman,serif" font-size="14.00">a</text>
</g>
<!-- 7&#45;&gt;7 -->
<g id="edge5" class="edge">
<title>7&#45;&gt;7</title>
<path fill="none" stroke="black" d="M93.94,-36.48C92.26,-46.44 94.78,-55.81 101.5,-55.81 105.59,-55.81 108.13,-52.33 109.1,-47.36"/>
<polygon fill="black" stroke="black" points="112.6,-47.46 109.06,-37.48 105.6,-47.49 112.6,-47.46"/>
<text text-anchor="middle" x="101.5" y="-58.26" font-family="Times New Roman,serif" font-size="14.00">b</text>
</g>
<!-- 6 -->
<g id="node5" class="node">
<title>6</title>
<ellipse fill="lightgrey" stroke="black" cx="18" cy="-20.81" rx="18" ry="18"/>
<text text-anchor="middle" x="18" y="-15.39" font-family="Times New Roman,serif" font-size="14.00">6</text>
</g>
<!-- 6&#45;&gt;7 -->
<g id="edge7" class="edge">
<title>6&#45;&gt;7</title>
<path fill="none" stroke="black" d="M36.28,-20.6C46.77,-20.47 60.39,-20.3 72.39,-20.16"/>
<polygon fill="black" stroke="black" points="72.28,-23.65 82.24,-20.02 72.2,-16.65 72.28,-23.65"/>
<text text-anchor="middle" x="57.75" y="-23.26" font-family="Times New Roman,serif" font-size="14.00">b</text>
</g>
<!-- 6&#45;&gt;7 -->
<g id="edge8" class="edge">
<title>6&#45;&gt;7</title>
<path fill="none" stroke="black" d="M33.26,-10.56C39.34,-6.79 46.71,-2.98 54,-1.06 61.67,0.95 69.77,-0.84 77.02,-3.99"/>
<polygon fill="black" stroke="black" points="75.1,-7.46 85.57,-9.08 78.39,-1.29 75.1,-7.46"/>
<text text-anchor="middle" x="57.75" y="-4.26" font-family="Times New Roman,serif" font-size="14.00">a</text>
</g>
</g>
</svg>
