<?xml version="1.0" encoding="UTF-8" standalone="no"?>
<!DOCTYPE svg PUBLIC "-//W3C//DTD SVG 1.1//EN"
 "http://www.w3.org/Graphics/SVG/1.1/DTD/svg11.dtd">
<!-- Generated by graphviz version 9.0.0 (20230911.1827)
 -->
<!-- Title: G Pages: 1 -->
<svg width="222pt" height="121pt"
 viewBox="0.00 0.00 221.54 121.26" xmlns="http://www.w3.org/2000/svg" xmlns:xlink="http://www.w3.org/1999/xlink">
<g id="graph0" class="graph" transform="scale(1 1) rotate(0) translate(4 117.26)">
<title>G</title>
<polygon fill="white" stroke="none" points="-4,4 -4,-117.26 217.54,-117.26 217.54,4 -4,4"/>
<!-- 15 -->
<g id="node1" class="node">
<title>15</title>
<ellipse fill="lightgrey" stroke="black" cx="20.13" cy="-24.13" rx="20.13" ry="20.13"/>
<text text-anchor="middle" x="20.13" y="-19.08" font-family="Times,serif" font-size="14.00">15</text>
</g>
<!-- 17 -->
<g id="node2" class="node">
<title>17</title>
<ellipse fill="none" stroke="black" cx="102.39" cy="-24.13" rx="20.13" ry="20.13"/>
<text text-anchor="middle" x="102.39" y="-19.08" font-family="Times,serif" font-size="14.00">17</text>
</g>
<!-- 15&#45;&gt;17 -->
<g id="edge1" class="edge">
<title>15&#45;&gt;17</title>
<path fill="none" stroke="black" d="M40.56,-24.13C49.56,-24.13 60.48,-24.13 70.57,-24.13"/>
<polygon fill="black" stroke="black" points="70.35,-27.63 80.35,-24.13 70.35,-20.63 70.35,-27.63"/>
<text text-anchor="middle" x="61.26" y="-27.33" font-family="Times,serif" font-size="14.00">a</text>
</g>
<!-- 17&#45;&gt;17 -->
<g id="edge2" class="edge">
<title>17&#45;&gt;17</title>
<path fill="none" stroke="black" d="M98.63,-44.14C98.17,-53.77 99.42,-62.26 102.39,-62.26 104.07,-62.26 105.19,-59.57 105.78,-55.51"/>
<polygon fill="black" stroke="black" points="109.27,-55.76 106.11,-45.65 102.28,-55.53 109.27,-55.76"/>
<text text-anchor="middle" x="102.39" y="-65.46" font-family="Times,serif" font-size="14.00">b</text>
</g>
<!-- 17&#45;&gt;17 -->
<g id="edge3" class="edge">
<title>17&#45;&gt;17</title>
<path fill="none" stroke="black" d="M96.05,-43.69C92.97,-61.35 95.08,-80.26 102.39,-80.26 108.16,-80.26 110.69,-68.49 109.99,-54.84"/>
<polygon fill="black" stroke="black" points="113.5,-54.74 108.9,-45.19 106.55,-55.52 113.5,-54.74"/>
<text text-anchor="middle" x="102.39" y="-83.46" font-family="Times,serif" font-size="14.00">c</text>
</g>
<!-- 16 -->
<g id="node3" class="node">
<title>16</title>
<ellipse fill="none" stroke="black" cx="189.41" cy="-24.13" rx="20.13" ry="20.13"/>
<ellipse fill="none" stroke="black" cx="189.41" cy="-24.13" rx="24.13" ry="24.13"/>
<text text-anchor="middle" x="189.41" y="-19.08" font-family="Times,serif" font-size="14.00">16</text>
</g>
<!-- 17&#45;&gt;16 -->
<g id="edge4" class="edge">
<title>17&#45;&gt;16</title>
<path fill="none" stroke="black" d="M122.68,-24.13C131.8,-24.13 142.96,-24.13 153.48,-24.13"/>
<polygon fill="black" stroke="black" points="153.44,-27.63 163.44,-24.13 153.44,-20.63 153.44,-27.63"/>
<text text-anchor="middle" x="143.9" y="-27.33" font-family="Times,serif" font-size="14.00">d</text>
</g>
</g>
</svg>
