<?xml version="1.0" encoding="UTF-8" standalone="no"?>
<!DOCTYPE svg PUBLIC "-//W3C//DTD SVG 1.1//EN"
 "http://www.w3.org/Graphics/SVG/1.1/DTD/svg11.dtd">
<!-- Generated by graphviz version 9.0.0 (20230911.1827)
 -->
<!-- Title: G Pages: 1 -->
<svg width="210pt" height="148pt"
 viewBox="0.00 0.00 209.50 147.50" xmlns="http://www.w3.org/2000/svg" xmlns:xlink="http://www.w3.org/1999/xlink">
<g id="graph0" class="graph" transform="scale(1 1) rotate(0) translate(4 143.5)">
<title>G</title>
<polygon fill="white" stroke="none" points="-4,4 -4,-143.5 205.5,-143.5 205.5,4 -4,4"/>
<!-- 5 -->
<g id="node1" class="node">
<title>5</title>
<ellipse fill="lightgrey" stroke="black" cx="18" cy="-18" rx="18" ry="18"/>
<text text-anchor="middle" x="18" y="-12.95" font-family="Times,serif" font-size="14.00">5</text>
</g>
<!-- 7 -->
<g id="node2" class="node">
<title>7</title>
<ellipse fill="none" stroke="black" cx="100.75" cy="-50" rx="18" ry="18"/>
<ellipse fill="none" stroke="black" cx="100.75" cy="-50" rx="22" ry="22"/>
<text text-anchor="middle" x="100.75" y="-44.95" font-family="Times,serif" font-size="14.00">7</text>
</g>
<!-- 5&#45;&gt;7 -->
<g id="edge1" class="edge">
<title>5&#45;&gt;7</title>
<path fill="none" stroke="black" d="M34.06,-26.49C40.14,-29.72 47.29,-33.27 54,-36 58.5,-37.83 63.33,-39.55 68.11,-41.13"/>
<polygon fill="black" stroke="black" points="66.95,-44.43 77.54,-44.05 69.02,-37.74 66.95,-44.43"/>
<text text-anchor="middle" x="57.38" y="-41.2" font-family="Times,serif" font-size="14.00">a</text>
</g>
<!-- 5&#45;&gt;7 -->
<g id="edge3" class="edge">
<title>5&#45;&gt;7</title>
<path fill="none" stroke="black" d="M35.73,-13.9C43.56,-12.75 52.87,-12.52 60.75,-15.5 66.77,-17.78 72.46,-21.47 77.54,-25.59"/>
<polygon fill="black" stroke="black" points="75.1,-28.11 84.84,-32.28 79.83,-22.94 75.1,-28.11"/>
<text text-anchor="middle" x="57.38" y="-18.2" font-family="Times,serif" font-size="14.00">b</text>
</g>
<!-- 6 -->
<g id="node3" class="node">
<title>6</title>
<ellipse fill="none" stroke="black" cx="183.5" cy="-18" rx="18" ry="18"/>
<text text-anchor="middle" x="183.5" y="-12.95" font-family="Times,serif" font-size="14.00">6</text>
</g>
<!-- 5&#45;&gt;6 -->
<g id="edge2" class="edge">
<title>5&#45;&gt;6</title>
<path fill="none" stroke="black" d="M35.52,-12.51C47.39,-8.86 63.87,-4.4 78.75,-2.5 98.15,-0.02 103.35,-0.02 122.75,-2.5 133.45,-3.86 144.97,-6.55 155.01,-9.31"/>
<polygon fill="black" stroke="black" points="153.95,-12.65 164.53,-12.08 155.91,-5.93 153.95,-12.65"/>
<text text-anchor="middle" x="100.75" y="-5.2" font-family="Times,serif" font-size="14.00">c</text>
</g>
<!-- 7&#45;&gt;7 -->
<g id="edge8" class="edge">
<title>7&#45;&gt;7</title>
<path fill="none" stroke="black" d="M92.82,-70.99C91.84,-81.09 94.48,-90 100.75,-90 104.47,-90 106.92,-86.86 108.08,-82.19"/>
<polygon fill="black" stroke="black" points="111.56,-82.68 108.6,-72.5 104.57,-82.3 111.56,-82.68"/>
<text text-anchor="middle" x="100.75" y="-93.2" font-family="Times,serif" font-size="14.00">c</text>
</g>
<!-- 7&#45;&gt;6 -->
<g id="edge7" class="edge">
<title>7&#45;&gt;6</title>
<path fill="none" stroke="black" d="M122.52,-44.49C130.45,-42.17 139.5,-39.25 147.5,-36 150.75,-34.68 154.1,-33.16 157.39,-31.59"/>
<polygon fill="black" stroke="black" points="158.76,-34.82 166.09,-27.17 155.59,-28.57 158.76,-34.82"/>
<text text-anchor="middle" x="144.12" y="-41.2" font-family="Times,serif" font-size="14.00">a</text>
</g>
<!-- 7&#45;&gt;6 -->
<g id="edge9" class="edge">
<title>7&#45;&gt;6</title>
<path fill="none" stroke="black" d="M115.54,-33.3C122.33,-26.39 131.11,-19.15 140.75,-15.5 145.06,-13.87 149.79,-13.2 154.48,-13.11"/>
<polygon fill="black" stroke="black" points="154.04,-16.59 164.26,-13.79 154.52,-9.61 154.04,-16.59"/>
<text text-anchor="middle" x="144.12" y="-18.2" font-family="Times,serif" font-size="14.00">b</text>
</g>
<!-- 6&#45;&gt;6 -->
<g id="edge4" class="edge">
<title>6&#45;&gt;6</title>
<path fill="none" stroke="black" d="M181.13,-36.15C180.76,-45.54 181.55,-54 183.5,-54 184.57,-54 185.28,-51.47 185.66,-47.64"/>
<polygon fill="black" stroke="black" points="189.16,-47.73 185.85,-37.67 182.16,-47.6 189.16,-47.73"/>
<text text-anchor="middle" x="183.5" y="-57.2" font-family="Times,serif" font-size="14.00">a</text>
</g>
<!-- 6&#45;&gt;6 -->
<g id="edge5" class="edge">
<title>6&#45;&gt;6</title>
<path fill="none" stroke="black" d="M179.55,-35.98C177.44,-53.2 178.76,-72 183.5,-72 187.21,-72 188.82,-60.53 188.34,-47.29"/>
<polygon fill="black" stroke="black" points="191.84,-47.18 187.57,-37.49 184.86,-47.73 191.84,-47.18"/>
<text text-anchor="middle" x="183.5" y="-75.2" font-family="Times,serif" font-size="14.00">c</text>
</g>
<!-- 6&#45;&gt;6 -->
<g id="edge6" class="edge">
<title>6&#45;&gt;6</title>
<path fill="none" stroke="black" d="M178.58,-35.72C174.09,-60.11 175.73,-90 183.5,-90 190.11,-90 192.28,-68.33 190.01,-46.83"/>
<polygon fill="black" stroke="black" points="193.52,-46.61 188.63,-37.21 186.59,-47.61 193.52,-46.61"/>
<text text-anchor="middle" x="183.5" y="-93.2" font-family="Times,serif" font-size="14.00">b</text>
</g>
</g>
</svg>
