<?xml version="1.0" encoding="UTF-8" standalone="no"?>
<!DOCTYPE svg PUBLIC "-//W3C//DTD SVG 1.1//EN"
 "http://www.w3.org/Graphics/SVG/1.1/DTD/svg11.dtd">
<!-- Generated by graphviz version 9.0.0 (20230911.1827)
 -->
<!-- Title: G Pages: 1 -->
<svg width="288pt" height="127pt"
 viewBox="0.00 0.00 287.50 127.00" xmlns="http://www.w3.org/2000/svg" xmlns:xlink="http://www.w3.org/1999/xlink">
<g id="graph0" class="graph" transform="scale(1 1) rotate(0) translate(4 123)">
<title>G</title>
<polygon fill="white" stroke="none" points="-4,4 -4,-123 283.5,-123 283.5,4 -4,4"/>
<!-- 5 -->
<g id="node1" class="node">
<title>5</title>
<ellipse fill="none" stroke="black" cx="18" cy="-18" rx="18" ry="18"/>
<text text-anchor="middle" x="18" y="-12.95" font-family="Times,serif" font-size="14.00">5</text>
</g>
<!-- 5&#45;&gt;5 -->
<g id="edge2" class="edge">
<title>5&#45;&gt;5</title>
<path fill="none" stroke="black" d="M11.09,-35.04C9.68,-44.86 11.98,-54 18,-54 21.48,-54 23.72,-50.94 24.71,-46.47"/>
<polygon fill="black" stroke="black" points="28.21,-46.61 24.88,-36.55 21.21,-46.49 28.21,-46.61"/>
<text text-anchor="middle" x="18" y="-57.2" font-family="Times,serif" font-size="14.00">b</text>
</g>
<!-- 8 -->
<g id="node2" class="node">
<title>8</title>
<ellipse fill="none" stroke="black" cx="96" cy="-64" rx="18" ry="18"/>
<text text-anchor="middle" x="96" y="-58.95" font-family="Times,serif" font-size="14.00">8</text>
</g>
<!-- 5&#45;&gt;8 -->
<g id="edge1" class="edge">
<title>5&#45;&gt;8</title>
<path fill="none" stroke="black" d="M34.02,-27.09C44.32,-33.33 58.24,-41.75 70.18,-48.97"/>
<polygon fill="black" stroke="black" points="68.35,-51.96 78.72,-54.15 71.98,-45.97 68.35,-51.96"/>
<text text-anchor="middle" x="57" y="-46.2" font-family="Times,serif" font-size="14.00">a</text>
</g>
<!-- 8&#45;&gt;8 -->
<g id="edge7" class="edge">
<title>8&#45;&gt;8</title>
<path fill="none" stroke="black" d="M89.09,-81.04C87.68,-90.86 89.98,-100 96,-100 99.48,-100 101.72,-96.94 102.71,-92.47"/>
<polygon fill="black" stroke="black" points="106.21,-92.61 102.88,-82.55 99.21,-92.49 106.21,-92.61"/>
<text text-anchor="middle" x="96" y="-103.2" font-family="Times,serif" font-size="14.00">a</text>
</g>
<!-- 7 -->
<g id="node4" class="node">
<title>7</title>
<ellipse fill="none" stroke="black" cx="174.75" cy="-101" rx="18" ry="18"/>
<text text-anchor="middle" x="174.75" y="-95.95" font-family="Times,serif" font-size="14.00">7</text>
</g>
<!-- 8&#45;&gt;7 -->
<g id="edge8" class="edge">
<title>8&#45;&gt;7</title>
<path fill="none" stroke="black" d="M107.25,-78.52C113.47,-86.07 122.1,-94.62 132,-99 136.14,-100.83 140.74,-101.89 145.32,-102.44"/>
<polygon fill="black" stroke="black" points="144.79,-105.92 154.93,-102.86 145.1,-98.93 144.79,-105.92"/>
<text text-anchor="middle" x="135.38" y="-104.2" font-family="Times,serif" font-size="14.00">b</text>
</g>
<!-- 6 -->
<g id="node3" class="node">
<title>6</title>
<ellipse fill="none" stroke="black" cx="257.5" cy="-48" rx="18" ry="18"/>
<ellipse fill="none" stroke="black" cx="257.5" cy="-48" rx="22" ry="22"/>
<text text-anchor="middle" x="257.5" y="-42.95" font-family="Times,serif" font-size="14.00">6</text>
</g>
<!-- 6&#45;&gt;5 -->
<g id="edge4" class="edge">
<title>6&#45;&gt;5</title>
<path fill="none" stroke="black" d="M235.23,-45.31C192.31,-39.89 95.34,-27.64 47.2,-21.56"/>
<polygon fill="black" stroke="black" points="47.94,-18.13 37.58,-20.35 47.06,-25.07 47.94,-18.13"/>
<text text-anchor="middle" x="135.38" y="-36.2" font-family="Times,serif" font-size="14.00">b</text>
</g>
<!-- 6&#45;&gt;8 -->
<g id="edge3" class="edge">
<title>6&#45;&gt;8</title>
<path fill="none" stroke="black" d="M235.09,-49.96C214.88,-51.82 183.75,-54.75 156.75,-57.5 146.57,-58.54 135.41,-59.74 125.53,-60.82"/>
<polygon fill="black" stroke="black" points="125.31,-57.32 115.75,-61.9 126.08,-64.28 125.31,-57.32"/>
<text text-anchor="middle" x="174.75" y="-60.2" font-family="Times,serif" font-size="14.00">a</text>
</g>
<!-- 7&#45;&gt;8 -->
<g id="edge5" class="edge">
<title>7&#45;&gt;8</title>
<path fill="none" stroke="black" d="M158.53,-92.66C152.43,-89.4 145.3,-85.68 138.75,-82.5 133.75,-80.08 128.36,-77.59 123.17,-75.26"/>
<polygon fill="black" stroke="black" points="124.93,-72.21 114.36,-71.38 122.1,-78.62 124.93,-72.21"/>
<text text-anchor="middle" x="135.38" y="-85.2" font-family="Times,serif" font-size="14.00">a</text>
</g>
<!-- 7&#45;&gt;6 -->
<g id="edge6" class="edge">
<title>7&#45;&gt;6</title>
<path fill="none" stroke="black" d="M190.19,-91.52C200.96,-84.45 216,-74.58 229.04,-66.02"/>
<polygon fill="black" stroke="black" points="230.81,-69.05 237.25,-60.64 226.97,-63.2 230.81,-69.05"/>
<text text-anchor="middle" x="214.12" y="-80.2" font-family="Times,serif" font-size="14.00">b</text>
</g>
</g>
</svg>
