<?xml version="1.0" encoding="UTF-8" standalone="no"?>
<!DOCTYPE svg PUBLIC "-//W3C//DTD SVG 1.1//EN"
 "http://www.w3.org/Graphics/SVG/1.1/DTD/svg11.dtd">
<!-- Generated by graphviz version 8.1.0 (20230707.0739)
 -->
<!-- Title: G Pages: 1 -->
<svg width="219pt" height="119pt"
 viewBox="0.00 0.00 219.26 118.75" xmlns="http://www.w3.org/2000/svg" xmlns:xlink="http://www.w3.org/1999/xlink">
<g id="graph0" class="graph" transform="scale(1 1) rotate(0) translate(4 114.75)">
<title>G</title>
<polygon fill="white" stroke="none" points="-4,4 -4,-114.75 215.26,-114.75 215.26,4 -4,4"/>
<!-- 15 -->
<g id="node1" class="node">
<title>15</title>
<ellipse fill="none" stroke="black" cx="100.88" cy="-23.63" rx="19.63" ry="19.63"/>
<text text-anchor="middle" x="100.88" y="-18.2" font-family="Times New Roman,serif" font-size="14.00">15</text>
</g>
<!-- 15&#45;&gt;15 -->
<g id="edge1" class="edge">
<title>15&#45;&gt;15</title>
<path fill="none" stroke="black" d="M97.17,-43.37C96.71,-52.87 97.95,-61.25 100.88,-61.25 102.58,-61.25 103.71,-58.45 104.27,-54.25"/>
<polygon fill="black" stroke="black" points="107.8,-54.47 104.6,-44.37 100.8,-54.26 107.8,-54.47"/>
<text text-anchor="middle" x="100.88" y="-63.7" font-family="Times New Roman,serif" font-size="14.00">c</text>
</g>
<!-- 15&#45;&gt;15 -->
<g id="edge2" class="edge">
<title>15&#45;&gt;15</title>
<path fill="none" stroke="black" d="M94.67,-42.72C91.55,-60.3 93.62,-79.25 100.88,-79.25 106.67,-79.25 109.16,-67.22 108.35,-53.44"/>
<polygon fill="black" stroke="black" points="111.74,-53.25 107.09,-43.72 104.78,-54.06 111.74,-53.25"/>
<text text-anchor="middle" x="100.88" y="-81.7" font-family="Times New Roman,serif" font-size="14.00">b</text>
</g>
<!-- 16 -->
<g id="node2" class="node">
<title>16</title>
<ellipse fill="none" stroke="black" cx="187.64" cy="-23.63" rx="19.63" ry="19.63"/>
<ellipse fill="none" stroke="black" cx="187.64" cy="-23.63" rx="23.63" ry="23.63"/>
<text text-anchor="middle" x="187.64" y="-18.2" font-family="Times New Roman,serif" font-size="14.00">16</text>
</g>
<!-- 15&#45;&gt;16 -->
<g id="edge3" class="edge">
<title>15&#45;&gt;16</title>
<path fill="none" stroke="black" d="M120.69,-23.63C130.1,-23.63 141.79,-23.63 152.69,-23.63"/>
<polygon fill="black" stroke="black" points="152.65,-27.13 162.65,-23.63 152.65,-20.13 152.65,-27.13"/>
<text text-anchor="middle" x="142.26" y="-26.08" font-family="Times New Roman,serif" font-size="14.00">d</text>
</g>
<!-- 17 -->
<g id="node3" class="node">
<title>17</title>
<ellipse fill="lightgrey" stroke="black" cx="19.63" cy="-23.63" rx="19.63" ry="19.63"/>
<text text-anchor="middle" x="19.63" y="-18.2" font-family="Times New Roman,serif" font-size="14.00">17</text>
</g>
<!-- 17&#45;&gt;15 -->
<g id="edge4" class="edge">
<title>17&#45;&gt;15</title>
<path fill="none" stroke="black" d="M39.41,-23.63C48.62,-23.63 59.93,-23.63 70.27,-23.63"/>
<polygon fill="black" stroke="black" points="69.96,-27.13 79.96,-23.63 69.96,-20.13 69.96,-27.13"/>
<text text-anchor="middle" x="60.25" y="-26.08" font-family="Times New Roman,serif" font-size="14.00">a</text>
</g>
</g>
</svg>
