<?xml version="1.0" encoding="UTF-8" standalone="no"?>
<!DOCTYPE svg PUBLIC "-//W3C//DTD SVG 1.1//EN"
 "http://www.w3.org/Graphics/SVG/1.1/DTD/svg11.dtd">
<!-- Generated by graphviz version 9.0.0 (20230911.1827)
 -->
<!-- Title: G Pages: 1 -->
<svg width="139pt" height="108pt"
 viewBox="0.00 0.00 139.27 107.74" xmlns="http://www.w3.org/2000/svg" xmlns:xlink="http://www.w3.org/1999/xlink">
<g id="graph0" class="graph" transform="scale(1 1) rotate(0) translate(4 103.74)">
<title>G</title>
<polygon fill="white" stroke="none" points="-4,4 -4,-103.74 135.27,-103.74 135.27,4 -4,4"/>
<!-- 21 -->
<g id="node1" class="node">
<title>21</title>
<ellipse fill="none" stroke="black" cx="107.14" cy="-44.24" rx="20.13" ry="20.13"/>
<ellipse fill="none" stroke="black" cx="107.14" cy="-44.24" rx="24.13" ry="24.13"/>
<text text-anchor="middle" x="107.14" y="-39.19" font-family="Times,serif" font-size="14.00">21</text>
</g>
<!-- 22 -->
<g id="node2" class="node">
<title>22</title>
<ellipse fill="lightgrey" stroke="black" cx="20.13" cy="-44.24" rx="20.13" ry="20.13"/>
<text text-anchor="middle" x="20.13" y="-39.19" font-family="Times,serif" font-size="14.00">22</text>
</g>
<!-- 22&#45;&gt;21 -->
<g id="edge1" class="edge">
<title>22&#45;&gt;21</title>
<path fill="none" stroke="black" d="M30.55,-61.73C38.63,-74.13 51.12,-87.68 65.01,-82.24 71.67,-79.64 77.89,-75.4 83.38,-70.68"/>
<polygon fill="black" stroke="black" points="85.48,-73.52 90.27,-64.07 80.63,-68.46 85.48,-73.52"/>
<text text-anchor="middle" x="61.64" y="-86.44" font-family="Times,serif" font-size="14.00">d</text>
</g>
<!-- 22&#45;&gt;21 -->
<g id="edge2" class="edge">
<title>22&#45;&gt;21</title>
<path fill="none" stroke="black" d="M40.42,-44.24C49.53,-44.24 60.7,-44.24 71.22,-44.24"/>
<polygon fill="black" stroke="black" points="71.17,-47.74 81.17,-44.24 71.17,-40.74 71.17,-47.74"/>
<text text-anchor="middle" x="61.64" y="-47.44" font-family="Times,serif" font-size="14.00">a</text>
</g>
<!-- 22&#45;&gt;21 -->
<g id="edge3" class="edge">
<title>22&#45;&gt;21</title>
<path fill="none" stroke="black" d="M37.38,-32.95C43.62,-29.25 50.99,-25.62 58.26,-23.74 64.5,-22.14 70.98,-23.01 77.07,-25.11"/>
<polygon fill="black" stroke="black" points="75.59,-28.28 86.13,-29.31 78.53,-21.93 75.59,-28.28"/>
<text text-anchor="middle" x="61.64" y="-26.44" font-family="Times,serif" font-size="14.00">c</text>
</g>
<!-- 22&#45;&gt;21 -->
<g id="edge4" class="edge">
<title>22&#45;&gt;21</title>
<path fill="none" stroke="black" d="M29.47,-26.07C37.32,-11.83 50.07,4.59 65.01,-1.74 72.68,-4.99 79.62,-10.45 85.52,-16.39"/>
<polygon fill="black" stroke="black" points="82.61,-18.39 91.89,-23.5 87.83,-13.72 82.61,-18.39"/>
<text text-anchor="middle" x="61.64" y="-4.44" font-family="Times,serif" font-size="14.00">b</text>
</g>
</g>
</svg>
