<?xml version="1.0" encoding="UTF-8" standalone="no"?>
<!DOCTYPE svg PUBLIC "-//W3C//DTD SVG 1.1//EN"
 "http://www.w3.org/Graphics/SVG/1.1/DTD/svg11.dtd">
<!-- Generated by graphviz version 9.0.0 (20230911.1827)
 -->
<!-- Title: G Pages: 1 -->
<svg width="296pt" height="135pt"
 viewBox="0.00 0.00 296.25 135.00" xmlns="http://www.w3.org/2000/svg" xmlns:xlink="http://www.w3.org/1999/xlink">
<g id="graph0" class="graph" transform="scale(1 1) rotate(0) translate(4 131)">
<title>G</title>
<polygon fill="white" stroke="none" points="-4,4 -4,-131 292.25,-131 292.25,4 -4,4"/>
<!-- 7 -->
<g id="node1" class="node">
<title>7</title>
<ellipse fill="none" stroke="black" cx="18" cy="-64" rx="18" ry="18"/>
<text text-anchor="middle" x="18" y="-58.95" font-family="Times,serif" font-size="14.00">7</text>
</g>
<!-- 7&#45;&gt;7 -->
<g id="edge2" class="edge">
<title>7&#45;&gt;7</title>
<path fill="none" stroke="black" d="M11.02,-81.04C9.6,-90.86 11.92,-100 18,-100 21.51,-100 23.77,-96.94 24.78,-92.47"/>
<polygon fill="black" stroke="black" points="28.28,-92.61 24.95,-82.55 21.28,-92.49 28.28,-92.61"/>
<text text-anchor="middle" x="18" y="-103.2" font-family="Times,serif" font-size="14.00">a</text>
</g>
<!-- 8 -->
<g id="node2" class="node">
<title>8</title>
<ellipse fill="none" stroke="black" cx="100.75" cy="-105" rx="18" ry="18"/>
<ellipse fill="none" stroke="black" cx="100.75" cy="-105" rx="22" ry="22"/>
<text text-anchor="middle" x="100.75" y="-99.95" font-family="Times,serif" font-size="14.00">8</text>
</g>
<!-- 7&#45;&gt;8 -->
<g id="edge1" class="edge">
<title>7&#45;&gt;8</title>
<path fill="none" stroke="black" d="M29.4,-78.21C35.66,-85.66 44.29,-94.21 54,-99 58.09,-101.01 62.62,-102.43 67.19,-103.41"/>
<polygon fill="black" stroke="black" points="66.52,-106.85 76.92,-104.84 67.54,-99.93 66.52,-106.85"/>
<text text-anchor="middle" x="57.38" y="-104.2" font-family="Times,serif" font-size="14.00">b</text>
</g>
<!-- 8&#45;&gt;7 -->
<g id="edge4" class="edge">
<title>8&#45;&gt;7</title>
<path fill="none" stroke="black" d="M82.88,-92.11C76.22,-87.41 68.36,-82.32 60.75,-78.5 56.28,-76.25 51.37,-74.21 46.54,-72.41"/>
<polygon fill="black" stroke="black" points="47.69,-69.1 37.1,-69.17 45.42,-75.73 47.69,-69.1"/>
<text text-anchor="middle" x="57.38" y="-81.2" font-family="Times,serif" font-size="14.00">a</text>
</g>
<!-- 6 -->
<g id="node3" class="node">
<title>6</title>
<ellipse fill="none" stroke="black" cx="187.5" cy="-52" rx="18" ry="18"/>
<ellipse fill="none" stroke="black" cx="187.5" cy="-52" rx="22" ry="22"/>
<text text-anchor="middle" x="187.5" y="-46.95" font-family="Times,serif" font-size="14.00">6</text>
</g>
<!-- 8&#45;&gt;6 -->
<g id="edge3" class="edge">
<title>8&#45;&gt;6</title>
<path fill="none" stroke="black" d="M119.72,-93.76C131,-86.71 145.76,-77.48 158.54,-69.48"/>
<polygon fill="black" stroke="black" points="160.35,-72.48 166.98,-64.21 156.64,-66.54 160.35,-72.48"/>
<text text-anchor="middle" x="144.12" y="-83.2" font-family="Times,serif" font-size="14.00">b</text>
</g>
<!-- 6&#45;&gt;7 -->
<g id="edge8" class="edge">
<title>6&#45;&gt;7</title>
<path fill="none" stroke="black" d="M165.42,-52.72C143.68,-53.54 108.81,-55.1 78.75,-57.5 68.55,-58.31 57.39,-59.46 47.5,-60.56"/>
<polygon fill="black" stroke="black" points="47.27,-57.07 37.74,-61.69 48.07,-64.02 47.27,-57.07"/>
<text text-anchor="middle" x="100.75" y="-60.2" font-family="Times,serif" font-size="14.00">a</text>
</g>
<!-- 5 -->
<g id="node4" class="node">
<title>5</title>
<ellipse fill="lightgrey" stroke="black" cx="270.25" cy="-18" rx="18" ry="18"/>
<text text-anchor="middle" x="270.25" y="-12.95" font-family="Times,serif" font-size="14.00">5</text>
</g>
<!-- 6&#45;&gt;5 -->
<g id="edge7" class="edge">
<title>6&#45;&gt;5</title>
<path fill="none" stroke="black" d="M208.05,-43.77C218.41,-39.41 231.29,-33.98 242.56,-29.24"/>
<polygon fill="black" stroke="black" points="243.89,-32.48 251.74,-25.37 241.17,-26.03 243.89,-32.48"/>
<text text-anchor="middle" x="230.88" y="-38.2" font-family="Times,serif" font-size="14.00">b</text>
</g>
<!-- 5&#45;&gt;7 -->
<g id="edge6" class="edge">
<title>5&#45;&gt;7</title>
<path fill="none" stroke="black" d="M251.87,-17.15C231.16,-16.45 195.58,-16.23 165.5,-21 122.74,-27.78 74.91,-43.41 45.89,-53.84"/>
<polygon fill="black" stroke="black" points="44.99,-50.44 36.8,-57.16 47.39,-57.01 44.99,-50.44"/>
<text text-anchor="middle" x="144.12" y="-29.2" font-family="Times,serif" font-size="14.00">a</text>
</g>
<!-- 5&#45;&gt;5 -->
<g id="edge5" class="edge">
<title>5&#45;&gt;5</title>
<path fill="none" stroke="black" d="M263.27,-35.04C261.85,-44.86 264.17,-54 270.25,-54 273.76,-54 276.02,-50.94 277.03,-46.47"/>
<polygon fill="black" stroke="black" points="280.53,-46.61 277.2,-36.55 273.53,-46.49 280.53,-46.61"/>
<text text-anchor="middle" x="270.25" y="-57.2" font-family="Times,serif" font-size="14.00">b</text>
</g>
</g>
</svg>
