<?xml version="1.0" encoding="UTF-8" standalone="no"?>
<!DOCTYPE svg PUBLIC "-//W3C//DTD SVG 1.1//EN"
 "http://www.w3.org/Graphics/SVG/1.1/DTD/svg11.dtd">
<!-- Generated by graphviz version 9.0.0 (20230911.1827)
 -->
<!-- Title: G Pages: 1 -->
<svg width="209pt" height="83pt"
 viewBox="0.00 0.00 208.75 82.50" xmlns="http://www.w3.org/2000/svg" xmlns:xlink="http://www.w3.org/1999/xlink">
<g id="graph0" class="graph" transform="scale(1 1) rotate(0) translate(4 78.5)">
<title>G</title>
<polygon fill="white" stroke="none" points="-4,4 -4,-78.5 204.75,-78.5 204.75,4 -4,4"/>
<!-- 6 -->
<g id="node1" class="node">
<title>6</title>
<ellipse fill="none" stroke="black" cx="96" cy="-22" rx="18" ry="18"/>
<text text-anchor="middle" x="96" y="-16.95" font-family="Times,serif" font-size="14.00">6</text>
</g>
<!-- 6&#45;&gt;6 -->
<g id="edge1" class="edge">
<title>6&#45;&gt;6</title>
<path fill="none" stroke="black" d="M89.09,-39.04C87.68,-48.86 89.98,-58 96,-58 99.48,-58 101.72,-54.94 102.71,-50.47"/>
<polygon fill="black" stroke="black" points="106.21,-50.61 102.88,-40.55 99.21,-50.49 106.21,-50.61"/>
<text text-anchor="middle" x="96" y="-61.2" font-family="Times,serif" font-size="14.00">a</text>
</g>
<!-- 8 -->
<g id="node2" class="node">
<title>8</title>
<ellipse fill="none" stroke="black" cx="178.75" cy="-22" rx="18" ry="18"/>
<ellipse fill="none" stroke="black" cx="178.75" cy="-22" rx="22" ry="22"/>
<text text-anchor="middle" x="178.75" y="-16.95" font-family="Times,serif" font-size="14.00">8</text>
</g>
<!-- 6&#45;&gt;8 -->
<g id="edge2" class="edge">
<title>6&#45;&gt;8</title>
<path fill="none" stroke="black" d="M114.12,-22C123.07,-22 134.33,-22 144.88,-22"/>
<polygon fill="black" stroke="black" points="144.82,-25.5 154.82,-22 144.82,-18.5 144.82,-25.5"/>
<text text-anchor="middle" x="135.38" y="-25.2" font-family="Times,serif" font-size="14.00">b</text>
</g>
<!-- 7 -->
<g id="node3" class="node">
<title>7</title>
<ellipse fill="lightgrey" stroke="black" cx="18" cy="-22" rx="18" ry="18"/>
<text text-anchor="middle" x="18" y="-16.95" font-family="Times,serif" font-size="14.00">7</text>
</g>
<!-- 7&#45;&gt;6 -->
<g id="edge3" class="edge">
<title>7&#45;&gt;6</title>
<path fill="none" stroke="black" d="M36.25,-22C45.12,-22 56.18,-22 66.3,-22"/>
<polygon fill="black" stroke="black" points="66.05,-25.5 76.05,-22 66.05,-18.5 66.05,-25.5"/>
<text text-anchor="middle" x="57" y="-25.2" font-family="Times,serif" font-size="14.00">a</text>
</g>
</g>
</svg>
