<?xml version="1.0" encoding="UTF-8" standalone="no"?>
<!DOCTYPE svg PUBLIC "-//W3C//DTD SVG 1.1//EN"
 "http://www.w3.org/Graphics/SVG/1.1/DTD/svg11.dtd">
<!-- Generated by graphviz version 9.0.0 (20230911.1827)
 -->
<!-- Title: G Pages: 1 -->
<svg width="460pt" height="206pt"
 viewBox="0.00 0.00 459.80 206.00" xmlns="http://www.w3.org/2000/svg" xmlns:xlink="http://www.w3.org/1999/xlink">
<g id="graph0" class="graph" transform="scale(1 1) rotate(0) translate(4 202)">
<title>G</title>
<polygon fill="white" stroke="none" points="-4,4 -4,-202 455.8,-202 455.8,4 -4,4"/>
<!-- 12 -->
<g id="node1" class="node">
<title>12</title>
<ellipse fill="none" stroke="black" cx="20.13" cy="-98" rx="20.13" ry="20.13"/>
<text text-anchor="middle" x="20.13" y="-92.95" font-family="Times,serif" font-size="14.00">12</text>
</g>
<!-- 4 -->
<g id="node2" class="node">
<title>4</title>
<ellipse fill="none" stroke="black" cx="102.39" cy="-126" rx="18" ry="18"/>
<text text-anchor="middle" x="102.39" y="-120.95" font-family="Times,serif" font-size="14.00">4</text>
</g>
<!-- 12&#45;&gt;4 -->
<g id="edge1" class="edge">
<title>12&#45;&gt;4</title>
<path fill="none" stroke="black" d="M39.34,-104.35C49.61,-107.94 62.64,-112.48 74.11,-116.48"/>
<polygon fill="black" stroke="black" points="72.87,-119.76 83.46,-119.74 75.17,-113.15 72.87,-119.76"/>
<text text-anchor="middle" x="61.26" y="-116.2" font-family="Times,serif" font-size="14.00">ϵ</text>
</g>
<!-- 10 -->
<g id="node9" class="node">
<title>10</title>
<ellipse fill="none" stroke="black" cx="102.39" cy="-70" rx="20.13" ry="20.13"/>
<text text-anchor="middle" x="102.39" y="-64.95" font-family="Times,serif" font-size="14.00">10</text>
</g>
<!-- 12&#45;&gt;10 -->
<g id="edge9" class="edge">
<title>12&#45;&gt;10</title>
<path fill="none" stroke="black" d="M39.34,-91.65C49.02,-88.27 61.16,-84.04 72.12,-80.21"/>
<polygon fill="black" stroke="black" points="73.26,-83.52 81.55,-76.92 70.95,-76.91 73.26,-83.52"/>
<text text-anchor="middle" x="61.26" y="-88.2" font-family="Times,serif" font-size="14.00">ϵ</text>
</g>
<!-- 0 -->
<g id="node3" class="node">
<title>0</title>
<ellipse fill="none" stroke="black" cx="182.52" cy="-180" rx="18" ry="18"/>
<text text-anchor="middle" x="182.52" y="-174.95" font-family="Times,serif" font-size="14.00">0</text>
</g>
<!-- 4&#45;&gt;0 -->
<g id="edge2" class="edge">
<title>4&#45;&gt;0</title>
<path fill="none" stroke="black" d="M117.72,-135.9C128.89,-143.62 144.63,-154.5 157.68,-163.52"/>
<polygon fill="black" stroke="black" points="155.56,-166.31 165.78,-169.11 159.54,-160.55 155.56,-166.31"/>
<text text-anchor="middle" x="143.52" y="-157.2" font-family="Times,serif" font-size="14.00">ϵ</text>
</g>
<!-- 2 -->
<g id="node7" class="node">
<title>2</title>
<ellipse fill="none" stroke="black" cx="182.52" cy="-126" rx="18" ry="18"/>
<text text-anchor="middle" x="182.52" y="-120.95" font-family="Times,serif" font-size="14.00">2</text>
</g>
<!-- 4&#45;&gt;2 -->
<g id="edge6" class="edge">
<title>4&#45;&gt;2</title>
<path fill="none" stroke="black" d="M120.73,-126C130.14,-126 142.01,-126 152.76,-126"/>
<polygon fill="black" stroke="black" points="152.72,-129.5 162.72,-126 152.72,-122.5 152.72,-129.5"/>
<text text-anchor="middle" x="143.52" y="-129.2" font-family="Times,serif" font-size="14.00">ϵ</text>
</g>
<!-- 1 -->
<g id="node4" class="node">
<title>1</title>
<ellipse fill="none" stroke="black" cx="261.27" cy="-180" rx="18" ry="18"/>
<text text-anchor="middle" x="261.27" y="-174.95" font-family="Times,serif" font-size="14.00">1</text>
</g>
<!-- 0&#45;&gt;1 -->
<g id="edge3" class="edge">
<title>0&#45;&gt;1</title>
<path fill="none" stroke="black" d="M200.94,-180C209.97,-180 221.23,-180 231.51,-180"/>
<polygon fill="black" stroke="black" points="231.41,-183.5 241.41,-180 231.41,-176.5 231.41,-183.5"/>
<text text-anchor="middle" x="221.9" y="-183.2" font-family="Times,serif" font-size="14.00">a</text>
</g>
<!-- 5 -->
<g id="node5" class="node">
<title>5</title>
<ellipse fill="none" stroke="black" cx="341.41" cy="-126" rx="18" ry="18"/>
<text text-anchor="middle" x="341.41" y="-120.95" font-family="Times,serif" font-size="14.00">5</text>
</g>
<!-- 1&#45;&gt;5 -->
<g id="edge4" class="edge">
<title>1&#45;&gt;5</title>
<path fill="none" stroke="black" d="M276.6,-170.1C287.77,-162.38 303.51,-151.5 316.56,-142.48"/>
<polygon fill="black" stroke="black" points="318.42,-145.45 324.66,-136.89 314.44,-139.69 318.42,-145.45"/>
<text text-anchor="middle" x="300.27" y="-157.2" font-family="Times,serif" font-size="14.00">ϵ</text>
</g>
<!-- 13 -->
<g id="node6" class="node">
<title>13</title>
<ellipse fill="none" stroke="black" cx="427.67" cy="-98" rx="20.13" ry="20.13"/>
<ellipse fill="none" stroke="black" cx="427.67" cy="-98" rx="24.13" ry="24.13"/>
<text text-anchor="middle" x="427.67" y="-92.95" font-family="Times,serif" font-size="14.00">13</text>
</g>
<!-- 5&#45;&gt;13 -->
<g id="edge5" class="edge">
<title>5&#45;&gt;13</title>
<path fill="none" stroke="black" d="M359.05,-120.47C368.87,-117.21 381.63,-112.96 393.43,-109.05"/>
<polygon fill="black" stroke="black" points="394.49,-112.38 402.87,-105.91 392.28,-105.74 394.49,-112.38"/>
<text text-anchor="middle" x="382.54" y="-116.2" font-family="Times,serif" font-size="14.00">ϵ</text>
</g>
<!-- 3 -->
<g id="node8" class="node">
<title>3</title>
<ellipse fill="none" stroke="black" cx="261.27" cy="-126" rx="18" ry="18"/>
<text text-anchor="middle" x="261.27" y="-120.95" font-family="Times,serif" font-size="14.00">3</text>
</g>
<!-- 2&#45;&gt;3 -->
<g id="edge7" class="edge">
<title>2&#45;&gt;3</title>
<path fill="none" stroke="black" d="M200.94,-126C209.97,-126 221.23,-126 231.51,-126"/>
<polygon fill="black" stroke="black" points="231.41,-129.5 241.41,-126 231.41,-122.5 231.41,-129.5"/>
<text text-anchor="middle" x="221.9" y="-129.2" font-family="Times,serif" font-size="14.00">b</text>
</g>
<!-- 3&#45;&gt;5 -->
<g id="edge8" class="edge">
<title>3&#45;&gt;5</title>
<path fill="none" stroke="black" d="M279.61,-126C289.02,-126 300.89,-126 311.64,-126"/>
<polygon fill="black" stroke="black" points="311.6,-129.5 321.6,-126 311.6,-122.5 311.6,-129.5"/>
<text text-anchor="middle" x="300.27" y="-129.2" font-family="Times,serif" font-size="14.00">ϵ</text>
</g>
<!-- 6 -->
<g id="node10" class="node">
<title>6</title>
<ellipse fill="none" stroke="black" cx="182.52" cy="-72" rx="18" ry="18"/>
<text text-anchor="middle" x="182.52" y="-66.95" font-family="Times,serif" font-size="14.00">6</text>
</g>
<!-- 10&#45;&gt;6 -->
<g id="edge10" class="edge">
<title>10&#45;&gt;6</title>
<path fill="none" stroke="black" d="M122.71,-70.49C131.7,-70.72 142.59,-71 152.55,-71.26"/>
<polygon fill="black" stroke="black" points="152.43,-74.76 162.52,-71.51 152.61,-67.76 152.43,-74.76"/>
<text text-anchor="middle" x="143.52" y="-75.2" font-family="Times,serif" font-size="14.00">ϵ</text>
</g>
<!-- 8 -->
<g id="node13" class="node">
<title>8</title>
<ellipse fill="none" stroke="black" cx="182.52" cy="-18" rx="18" ry="18"/>
<text text-anchor="middle" x="182.52" y="-12.95" font-family="Times,serif" font-size="14.00">8</text>
</g>
<!-- 10&#45;&gt;8 -->
<g id="edge14" class="edge">
<title>10&#45;&gt;8</title>
<path fill="none" stroke="black" d="M119.58,-59.23C130.59,-51.9 145.33,-42.09 157.67,-33.88"/>
<polygon fill="black" stroke="black" points="159.29,-37 165.68,-28.55 155.41,-31.17 159.29,-37"/>
<text text-anchor="middle" x="143.52" y="-47.2" font-family="Times,serif" font-size="14.00">ϵ</text>
</g>
<!-- 7 -->
<g id="node11" class="node">
<title>7</title>
<ellipse fill="none" stroke="black" cx="261.27" cy="-72" rx="18" ry="18"/>
<text text-anchor="middle" x="261.27" y="-66.95" font-family="Times,serif" font-size="14.00">7</text>
</g>
<!-- 6&#45;&gt;7 -->
<g id="edge11" class="edge">
<title>6&#45;&gt;7</title>
<path fill="none" stroke="black" d="M200.94,-72C209.97,-72 221.23,-72 231.51,-72"/>
<polygon fill="black" stroke="black" points="231.41,-75.5 241.41,-72 231.41,-68.5 231.41,-75.5"/>
<text text-anchor="middle" x="221.9" y="-75.2" font-family="Times,serif" font-size="14.00">c</text>
</g>
<!-- 11 -->
<g id="node12" class="node">
<title>11</title>
<ellipse fill="none" stroke="black" cx="341.41" cy="-70" rx="20.13" ry="20.13"/>
<text text-anchor="middle" x="341.41" y="-64.95" font-family="Times,serif" font-size="14.00">11</text>
</g>
<!-- 7&#45;&gt;11 -->
<g id="edge12" class="edge">
<title>7&#45;&gt;11</title>
<path fill="none" stroke="black" d="M279.61,-71.56C288.4,-71.33 299.34,-71.05 309.51,-70.79"/>
<polygon fill="black" stroke="black" points="309.5,-74.29 319.4,-70.54 309.32,-67.29 309.5,-74.29"/>
<text text-anchor="middle" x="300.27" y="-75.2" font-family="Times,serif" font-size="14.00">ϵ</text>
</g>
<!-- 11&#45;&gt;13 -->
<g id="edge13" class="edge">
<title>11&#45;&gt;13</title>
<path fill="none" stroke="black" d="M360.69,-76.08C370.27,-79.26 382.31,-83.26 393.47,-86.97"/>
<polygon fill="black" stroke="black" points="392.19,-90.23 402.78,-90.06 394.4,-83.59 392.19,-90.23"/>
<text text-anchor="middle" x="382.54" y="-87.2" font-family="Times,serif" font-size="14.00">ϵ</text>
</g>
<!-- 9 -->
<g id="node14" class="node">
<title>9</title>
<ellipse fill="none" stroke="black" cx="261.27" cy="-18" rx="18" ry="18"/>
<text text-anchor="middle" x="261.27" y="-12.95" font-family="Times,serif" font-size="14.00">9</text>
</g>
<!-- 8&#45;&gt;9 -->
<g id="edge15" class="edge">
<title>8&#45;&gt;9</title>
<path fill="none" stroke="black" d="M200.94,-18C209.97,-18 221.23,-18 231.51,-18"/>
<polygon fill="black" stroke="black" points="231.41,-21.5 241.41,-18 231.41,-14.5 231.41,-21.5"/>
<text text-anchor="middle" x="221.9" y="-21.2" font-family="Times,serif" font-size="14.00">d</text>
</g>
<!-- 9&#45;&gt;11 -->
<g id="edge16" class="edge">
<title>9&#45;&gt;11</title>
<path fill="none" stroke="black" d="M276.97,-27.78C287.57,-34.84 302.17,-44.55 314.68,-52.88"/>
<polygon fill="black" stroke="black" points="312.63,-55.72 322.9,-58.35 316.51,-49.89 312.63,-55.72"/>
<text text-anchor="middle" x="300.27" y="-47.2" font-family="Times,serif" font-size="14.00">ϵ</text>
</g>
</g>
</svg>
