<?xml version="1.0" encoding="UTF-8" standalone="no"?>
<!DOCTYPE svg PUBLIC "-//W3C//DTD SVG 1.1//EN"
 "http://www.w3.org/Graphics/SVG/1.1/DTD/svg11.dtd">
<!-- Generated by graphviz version 9.0.0 (20230911.1827)
 -->
<!-- Title: G Pages: 1 -->
<svg width="443pt" height="52pt"
 viewBox="0.00 0.00 442.75 52.00" xmlns="http://www.w3.org/2000/svg" xmlns:xlink="http://www.w3.org/1999/xlink">
<g id="graph0" class="graph" transform="scale(1 1) rotate(0) translate(4 48)">
<title>G</title>
<polygon fill="white" stroke="none" points="-4,4 -4,-48 438.75,-48 438.75,4 -4,4"/>
<!-- 2 -->
<g id="node1" class="node">
<title>2</title>
<ellipse fill="none" stroke="black" cx="18" cy="-22" rx="18" ry="18"/>
<text text-anchor="middle" x="18" y="-16.95" font-family="Times,serif" font-size="14.00">2</text>
</g>
<!-- 0 -->
<g id="node2" class="node">
<title>0</title>
<ellipse fill="none" stroke="black" cx="96" cy="-22" rx="18" ry="18"/>
<text text-anchor="middle" x="96" y="-16.95" font-family="Times,serif" font-size="14.00">0</text>
</g>
<!-- 2&#45;&gt;0 -->
<g id="edge1" class="edge">
<title>2&#45;&gt;0</title>
<path fill="none" stroke="black" d="M36.25,-22C45.12,-22 56.18,-22 66.3,-22"/>
<polygon fill="black" stroke="black" points="66.05,-25.5 76.05,-22 66.05,-18.5 66.05,-25.5"/>
<text text-anchor="middle" x="57" y="-25.2" font-family="Times,serif" font-size="14.00">系</text>
</g>
<!-- 1 -->
<g id="node3" class="node">
<title>1</title>
<ellipse fill="none" stroke="black" cx="174" cy="-22" rx="18" ry="18"/>
<text text-anchor="middle" x="174" y="-16.95" font-family="Times,serif" font-size="14.00">1</text>
</g>
<!-- 0&#45;&gt;1 -->
<g id="edge2" class="edge">
<title>0&#45;&gt;1</title>
<path fill="none" stroke="black" d="M114.25,-22C123.12,-22 134.18,-22 144.3,-22"/>
<polygon fill="black" stroke="black" points="144.05,-25.5 154.05,-22 144.05,-18.5 144.05,-25.5"/>
<text text-anchor="middle" x="135" y="-25.2" font-family="Times,serif" font-size="14.00">a</text>
</g>
<!-- 1&#45;&gt;0 -->
<g id="edge3" class="edge">
<title>1&#45;&gt;0</title>
<path fill="none" stroke="black" d="M160.24,-10.02C152.4,-4.12 141.98,1.21 132,-1.5 128.15,-2.55 124.28,-4.13 120.6,-5.97"/>
<polygon fill="black" stroke="black" points="119.1,-2.8 112.18,-10.83 122.6,-8.86 119.1,-2.8"/>
<text text-anchor="middle" x="135" y="-4.2" font-family="Times,serif" font-size="14.00">系</text>
</g>
<!-- 3 -->
<g id="node4" class="node">
<title>3</title>
<ellipse fill="none" stroke="black" cx="252" cy="-22" rx="18" ry="18"/>
<text text-anchor="middle" x="252" y="-16.95" font-family="Times,serif" font-size="14.00">3</text>
</g>
<!-- 1&#45;&gt;3 -->
<g id="edge4" class="edge">
<title>1&#45;&gt;3</title>
<path fill="none" stroke="black" d="M192.25,-22C201.12,-22 212.18,-22 222.3,-22"/>
<polygon fill="black" stroke="black" points="222.05,-25.5 232.05,-22 222.05,-18.5 222.05,-25.5"/>
<text text-anchor="middle" x="213" y="-25.2" font-family="Times,serif" font-size="14.00">系</text>
</g>
<!-- 4 -->
<g id="node5" class="node">
<title>4</title>
<ellipse fill="none" stroke="black" cx="330" cy="-22" rx="18" ry="18"/>
<text text-anchor="middle" x="330" y="-16.95" font-family="Times,serif" font-size="14.00">4</text>
</g>
<!-- 3&#45;&gt;4 -->
<g id="edge5" class="edge">
<title>3&#45;&gt;4</title>
<path fill="none" stroke="black" d="M270.25,-22C279.12,-22 290.18,-22 300.3,-22"/>
<polygon fill="black" stroke="black" points="300.05,-25.5 310.05,-22 300.05,-18.5 300.05,-25.5"/>
<text text-anchor="middle" x="291" y="-25.2" font-family="Times,serif" font-size="14.00">系</text>
</g>
<!-- 5 -->
<g id="node6" class="node">
<title>5</title>
<ellipse fill="none" stroke="black" cx="412.75" cy="-22" rx="18" ry="18"/>
<ellipse fill="none" stroke="black" cx="412.75" cy="-22" rx="22" ry="22"/>
<text text-anchor="middle" x="412.75" y="-16.95" font-family="Times,serif" font-size="14.00">5</text>
</g>
<!-- 4&#45;&gt;5 -->
<g id="edge6" class="edge">
<title>4&#45;&gt;5</title>
<path fill="none" stroke="black" d="M348.12,-22C357.07,-22 368.33,-22 378.88,-22"/>
<polygon fill="black" stroke="black" points="378.82,-25.5 388.82,-22 378.82,-18.5 378.82,-25.5"/>
<text text-anchor="middle" x="369.38" y="-25.2" font-family="Times,serif" font-size="14.00">b</text>
</g>
</g>
</svg>
