<?xml version="1.0" encoding="UTF-8" standalone="no"?>
<!DOCTYPE svg PUBLIC "-//W3C//DTD SVG 1.1//EN"
 "http://www.w3.org/Graphics/SVG/1.1/DTD/svg11.dtd">
<!-- Generated by graphviz version 9.0.0 (20230911.1827)
 -->
<!-- Title: G Pages: 1 -->
<svg width="601pt" height="52pt"
 viewBox="0.00 0.00 601.00 52.00" xmlns="http://www.w3.org/2000/svg" xmlns:xlink="http://www.w3.org/1999/xlink">
<g id="graph0" class="graph" transform="scale(1 1) rotate(0) translate(4 48)">
<title>G</title>
<polygon fill="white" stroke="none" points="-4,4 -4,-48 597,-48 597,4 -4,4"/>
<!-- 0 -->
<g id="node1" class="node">
<title>0</title>
<ellipse fill="none" stroke="black" cx="18" cy="-22" rx="18" ry="18"/>
<text text-anchor="middle" x="18" y="-16.95" font-family="Times,serif" font-size="14.00">0</text>
</g>
<!-- 1 -->
<g id="node2" class="node">
<title>1</title>
<ellipse fill="none" stroke="black" cx="96.75" cy="-22" rx="18" ry="18"/>
<text text-anchor="middle" x="96.75" y="-16.95" font-family="Times,serif" font-size="14.00">1</text>
</g>
<!-- 0&#45;&gt;1 -->
<g id="edge1" class="edge">
<title>0&#45;&gt;1</title>
<path fill="none" stroke="black" d="M36.42,-22C45.44,-22 56.7,-22 66.98,-22"/>
<polygon fill="black" stroke="black" points="66.89,-25.5 76.89,-22 66.89,-18.5 66.89,-25.5"/>
<text text-anchor="middle" x="57.38" y="-25.2" font-family="Times,serif" font-size="14.00">1</text>
</g>
<!-- 2 -->
<g id="node3" class="node">
<title>2</title>
<ellipse fill="none" stroke="black" cx="174.75" cy="-22" rx="18" ry="18"/>
<text text-anchor="middle" x="174.75" y="-16.95" font-family="Times,serif" font-size="14.00">2</text>
</g>
<!-- 1&#45;&gt;2 -->
<g id="edge2" class="edge">
<title>1&#45;&gt;2</title>
<path fill="none" stroke="black" d="M115,-22C123.87,-22 134.93,-22 145.05,-22"/>
<polygon fill="black" stroke="black" points="144.8,-25.5 154.8,-22 144.8,-18.5 144.8,-25.5"/>
<text text-anchor="middle" x="135.75" y="-25.2" font-family="Times,serif" font-size="14.00">e</text>
</g>
<!-- 3 -->
<g id="node4" class="node">
<title>3</title>
<ellipse fill="none" stroke="black" cx="253.5" cy="-22" rx="18" ry="18"/>
<text text-anchor="middle" x="253.5" y="-16.95" font-family="Times,serif" font-size="14.00">3</text>
</g>
<!-- 2&#45;&gt;3 -->
<g id="edge3" class="edge">
<title>2&#45;&gt;3</title>
<path fill="none" stroke="black" d="M193.17,-22C202.19,-22 213.45,-22 223.73,-22"/>
<polygon fill="black" stroke="black" points="223.64,-25.5 233.64,-22 223.64,-18.5 223.64,-25.5"/>
<text text-anchor="middle" x="214.12" y="-25.2" font-family="Times,serif" font-size="14.00">0</text>
</g>
<!-- 4 -->
<g id="node5" class="node">
<title>4</title>
<ellipse fill="none" stroke="black" cx="331.5" cy="-22" rx="18" ry="18"/>
<text text-anchor="middle" x="331.5" y="-16.95" font-family="Times,serif" font-size="14.00">4</text>
</g>
<!-- 3&#45;&gt;4 -->
<g id="edge4" class="edge">
<title>3&#45;&gt;4</title>
<path fill="none" stroke="black" d="M271.75,-22C280.62,-22 291.68,-22 301.8,-22"/>
<polygon fill="black" stroke="black" points="301.55,-25.5 311.55,-22 301.55,-18.5 301.55,-25.5"/>
<text text-anchor="middle" x="292.5" y="-25.2" font-family="Times,serif" font-size="14.00">e</text>
</g>
<!-- 5 -->
<g id="node6" class="node">
<title>5</title>
<ellipse fill="none" stroke="black" cx="410.25" cy="-22" rx="18" ry="18"/>
<text text-anchor="middle" x="410.25" y="-16.95" font-family="Times,serif" font-size="14.00">5</text>
</g>
<!-- 4&#45;&gt;5 -->
<g id="edge5" class="edge">
<title>4&#45;&gt;5</title>
<path fill="none" stroke="black" d="M349.92,-22C358.94,-22 370.2,-22 380.48,-22"/>
<polygon fill="black" stroke="black" points="380.39,-25.5 390.39,-22 380.39,-18.5 380.39,-25.5"/>
<text text-anchor="middle" x="370.88" y="-25.2" font-family="Times,serif" font-size="14.00">0</text>
</g>
<!-- 6 -->
<g id="node7" class="node">
<title>6</title>
<ellipse fill="none" stroke="black" cx="488.25" cy="-22" rx="18" ry="18"/>
<text text-anchor="middle" x="488.25" y="-16.95" font-family="Times,serif" font-size="14.00">6</text>
</g>
<!-- 5&#45;&gt;6 -->
<g id="edge6" class="edge">
<title>5&#45;&gt;6</title>
<path fill="none" stroke="black" d="M428.5,-22C437.37,-22 448.43,-22 458.55,-22"/>
<polygon fill="black" stroke="black" points="458.3,-25.5 468.3,-22 458.3,-18.5 458.3,-25.5"/>
<text text-anchor="middle" x="449.25" y="-25.2" font-family="Times,serif" font-size="14.00">e</text>
</g>
<!-- 7 -->
<g id="node8" class="node">
<title>7</title>
<ellipse fill="none" stroke="black" cx="571" cy="-22" rx="18" ry="18"/>
<ellipse fill="none" stroke="black" cx="571" cy="-22" rx="22" ry="22"/>
<text text-anchor="middle" x="571" y="-16.95" font-family="Times,serif" font-size="14.00">7</text>
</g>
<!-- 6&#45;&gt;7 -->
<g id="edge7" class="edge">
<title>6&#45;&gt;7</title>
<path fill="none" stroke="black" d="M506.37,-22C515.32,-22 526.58,-22 537.13,-22"/>
<polygon fill="black" stroke="black" points="537.07,-25.5 547.07,-22 537.07,-18.5 537.07,-25.5"/>
<text text-anchor="middle" x="527.62" y="-25.2" font-family="Times,serif" font-size="14.00">1</text>
</g>
</g>
</svg>
