<?xml version="1.0" encoding="UTF-8" standalone="no"?>
<!DOCTYPE svg PUBLIC "-//W3C//DTD SVG 1.1//EN"
 "http://www.w3.org/Graphics/SVG/1.1/DTD/svg11.dtd">
<!-- Generated by graphviz version 9.0.0 (20230911.1827)
 -->
<!-- Title: G Pages: 1 -->
<svg width="764pt" height="174pt"
 viewBox="0.00 0.00 764.02 174.13" xmlns="http://www.w3.org/2000/svg" xmlns:xlink="http://www.w3.org/1999/xlink">
<g id="graph0" class="graph" transform="scale(1 1) rotate(0) translate(4 170.13)">
<title>G</title>
<polygon fill="white" stroke="none" points="-4,4 -4,-170.13 760.02,-170.13 760.02,4 -4,4"/>
<!-- 0 -->
<g id="node1" class="node">
<title>0</title>
<ellipse fill="none" stroke="black" cx="18" cy="-24.13" rx="18" ry="18"/>
<text text-anchor="middle" x="18" y="-19.08" font-family="Times,serif" font-size="14.00">0</text>
</g>
<!-- 1 -->
<g id="node2" class="node">
<title>1</title>
<ellipse fill="none" stroke="black" cx="96" cy="-24.13" rx="18" ry="18"/>
<text text-anchor="middle" x="96" y="-19.08" font-family="Times,serif" font-size="14.00">1</text>
</g>
<!-- 0&#45;&gt;1 -->
<g id="edge1" class="edge">
<title>0&#45;&gt;1</title>
<path fill="none" stroke="black" d="M36.25,-24.13C45.12,-24.13 56.18,-24.13 66.3,-24.13"/>
<polygon fill="black" stroke="black" points="66.05,-27.63 76.05,-24.13 66.05,-20.63 66.05,-27.63"/>
<text text-anchor="middle" x="57" y="-27.33" font-family="Times,serif" font-size="14.00">a</text>
</g>
<!-- 8 -->
<g id="node3" class="node">
<title>8</title>
<ellipse fill="none" stroke="black" cx="174" cy="-24.13" rx="18" ry="18"/>
<text text-anchor="middle" x="174" y="-19.08" font-family="Times,serif" font-size="14.00">8</text>
</g>
<!-- 1&#45;&gt;8 -->
<g id="edge2" class="edge">
<title>1&#45;&gt;8</title>
<path fill="none" stroke="black" d="M114.25,-24.13C123.12,-24.13 134.18,-24.13 144.3,-24.13"/>
<polygon fill="black" stroke="black" points="144.05,-27.63 154.05,-24.13 144.05,-20.63 144.05,-27.63"/>
<text text-anchor="middle" x="135" y="-27.33" font-family="Times,serif" font-size="14.00">e</text>
</g>
<!-- 6 -->
<g id="node4" class="node">
<title>6</title>
<ellipse fill="none" stroke="black" cx="252" cy="-70.13" rx="18" ry="18"/>
<text text-anchor="middle" x="252" y="-65.08" font-family="Times,serif" font-size="14.00">6</text>
</g>
<!-- 8&#45;&gt;6 -->
<g id="edge3" class="edge">
<title>8&#45;&gt;6</title>
<path fill="none" stroke="black" d="M190.02,-33.22C200.32,-39.46 214.24,-47.88 226.18,-55.11"/>
<polygon fill="black" stroke="black" points="224.35,-58.09 234.72,-60.28 227.98,-52.11 224.35,-58.09"/>
<text text-anchor="middle" x="213" y="-52.33" font-family="Times,serif" font-size="14.00">e</text>
</g>
<!-- 9 -->
<g id="node8" class="node">
<title>9</title>
<ellipse fill="none" stroke="black" cx="564.75" cy="-24.13" rx="18" ry="18"/>
<text text-anchor="middle" x="564.75" y="-19.08" font-family="Times,serif" font-size="14.00">9</text>
</g>
<!-- 8&#45;&gt;9 -->
<g id="edge14" class="edge">
<title>8&#45;&gt;9</title>
<path fill="none" stroke="black" d="M191.4,-18.62C206.65,-14 230.1,-8.13 251,-8.13 251,-8.13 251,-8.13 487.75,-8.13 504.08,-8.13 521.96,-11.71 536.28,-15.48"/>
<polygon fill="black" stroke="black" points="535.32,-18.85 545.9,-18.21 537.23,-12.12 535.32,-18.85"/>
<text text-anchor="middle" x="369.38" y="-11.33" font-family="Times,serif" font-size="14.00">e</text>
</g>
<!-- 2 -->
<g id="node5" class="node">
<title>2</title>
<ellipse fill="none" stroke="black" cx="330" cy="-148.13" rx="18" ry="18"/>
<text text-anchor="middle" x="330" y="-143.08" font-family="Times,serif" font-size="14.00">2</text>
</g>
<!-- 6&#45;&gt;2 -->
<g id="edge4" class="edge">
<title>6&#45;&gt;2</title>
<path fill="none" stroke="black" d="M265.21,-82.66C276.96,-94.72 294.92,-113.16 308.8,-127.4"/>
<polygon fill="black" stroke="black" points="306.28,-129.83 315.76,-134.55 311.29,-124.94 306.28,-129.83"/>
<text text-anchor="middle" x="291" y="-114.33" font-family="Times,serif" font-size="14.00">e</text>
</g>
<!-- 4 -->
<g id="node11" class="node">
<title>4</title>
<ellipse fill="none" stroke="black" cx="330" cy="-94.13" rx="18" ry="18"/>
<text text-anchor="middle" x="330" y="-89.08" font-family="Times,serif" font-size="14.00">4</text>
</g>
<!-- 6&#45;&gt;4 -->
<g id="edge11" class="edge">
<title>6&#45;&gt;4</title>
<path fill="none" stroke="black" d="M269.49,-75.34C278.79,-78.27 290.65,-82.02 301.33,-85.39"/>
<polygon fill="black" stroke="black" points="300.25,-88.72 310.84,-88.39 302.35,-82.05 300.25,-88.72"/>
<text text-anchor="middle" x="291" y="-86.33" font-family="Times,serif" font-size="14.00">e</text>
</g>
<!-- 3 -->
<g id="node6" class="node">
<title>3</title>
<ellipse fill="none" stroke="black" cx="408.75" cy="-148.13" rx="18" ry="18"/>
<text text-anchor="middle" x="408.75" y="-143.08" font-family="Times,serif" font-size="14.00">3</text>
</g>
<!-- 2&#45;&gt;3 -->
<g id="edge5" class="edge">
<title>2&#45;&gt;3</title>
<path fill="none" stroke="black" d="M348.42,-148.13C357.44,-148.13 368.7,-148.13 378.98,-148.13"/>
<polygon fill="black" stroke="black" points="378.89,-151.63 388.89,-148.13 378.89,-144.63 378.89,-151.63"/>
<text text-anchor="middle" x="369.38" y="-151.33" font-family="Times,serif" font-size="14.00">b</text>
</g>
<!-- 7 -->
<g id="node7" class="node">
<title>7</title>
<ellipse fill="none" stroke="black" cx="486.75" cy="-67.13" rx="18" ry="18"/>
<text text-anchor="middle" x="486.75" y="-62.08" font-family="Times,serif" font-size="14.00">7</text>
</g>
<!-- 3&#45;&gt;7 -->
<g id="edge6" class="edge">
<title>3&#45;&gt;7</title>
<path fill="none" stroke="black" d="M421.62,-135.47C433.49,-122.83 451.94,-103.16 466.01,-88.17"/>
<polygon fill="black" stroke="black" points="468.38,-90.76 472.67,-81.07 463.28,-85.97 468.38,-90.76"/>
<text text-anchor="middle" x="447.75" y="-112.33" font-family="Times,serif" font-size="14.00">e</text>
</g>
<!-- 7&#45;&gt;6 -->
<g id="edge7" class="edge">
<title>7&#45;&gt;6</title>
<path fill="none" stroke="black" d="M468.48,-66.84C437.25,-66.38 369.29,-65.68 312,-67.13 302.12,-67.38 291.33,-67.87 281.7,-68.38"/>
<polygon fill="black" stroke="black" points="281.59,-64.88 271.8,-68.94 281.98,-71.87 281.59,-64.88"/>
<text text-anchor="middle" x="369.38" y="-70.33" font-family="Times,serif" font-size="14.00">e</text>
</g>
<!-- 7&#45;&gt;9 -->
<g id="edge8" class="edge">
<title>7&#45;&gt;9</title>
<path fill="none" stroke="black" d="M502.77,-58.64C513,-52.84 526.81,-45.03 538.69,-38.31"/>
<polygon fill="black" stroke="black" points="540.21,-41.47 547.19,-33.5 536.76,-35.38 540.21,-41.47"/>
<text text-anchor="middle" x="525.75" y="-50.33" font-family="Times,serif" font-size="14.00">e</text>
</g>
<!-- 10 -->
<g id="node9" class="node">
<title>10</title>
<ellipse fill="none" stroke="black" cx="644.88" cy="-24.13" rx="20.13" ry="20.13"/>
<text text-anchor="middle" x="644.88" y="-19.08" font-family="Times,serif" font-size="14.00">10</text>
</g>
<!-- 9&#45;&gt;10 -->
<g id="edge9" class="edge">
<title>9&#45;&gt;10</title>
<path fill="none" stroke="black" d="M583.09,-24.13C591.88,-24.13 602.82,-24.13 612.99,-24.13"/>
<polygon fill="black" stroke="black" points="612.88,-27.63 622.88,-24.13 612.88,-20.63 612.88,-27.63"/>
<text text-anchor="middle" x="603.75" y="-27.33" font-family="Times,serif" font-size="14.00">e</text>
</g>
<!-- 11 -->
<g id="node10" class="node">
<title>11</title>
<ellipse fill="none" stroke="black" cx="731.89" cy="-24.13" rx="20.13" ry="20.13"/>
<ellipse fill="none" stroke="black" cx="731.89" cy="-24.13" rx="24.13" ry="24.13"/>
<text text-anchor="middle" x="731.89" y="-19.08" font-family="Times,serif" font-size="14.00">11</text>
</g>
<!-- 10&#45;&gt;11 -->
<g id="edge10" class="edge">
<title>10&#45;&gt;11</title>
<path fill="none" stroke="black" d="M665.17,-24.13C674.28,-24.13 685.45,-24.13 695.97,-24.13"/>
<polygon fill="black" stroke="black" points="695.92,-27.63 705.92,-24.13 695.92,-20.63 695.92,-27.63"/>
<text text-anchor="middle" x="686.39" y="-27.33" font-family="Times,serif" font-size="14.00">d</text>
</g>
<!-- 5 -->
<g id="node12" class="node">
<title>5</title>
<ellipse fill="none" stroke="black" cx="408.75" cy="-94.13" rx="18" ry="18"/>
<text text-anchor="middle" x="408.75" y="-89.08" font-family="Times,serif" font-size="14.00">5</text>
</g>
<!-- 4&#45;&gt;5 -->
<g id="edge12" class="edge">
<title>4&#45;&gt;5</title>
<path fill="none" stroke="black" d="M348.42,-94.13C357.44,-94.13 368.7,-94.13 378.98,-94.13"/>
<polygon fill="black" stroke="black" points="378.89,-97.63 388.89,-94.13 378.89,-90.63 378.89,-97.63"/>
<text text-anchor="middle" x="369.38" y="-97.33" font-family="Times,serif" font-size="14.00">c</text>
</g>
<!-- 5&#45;&gt;7 -->
<g id="edge13" class="edge">
<title>5&#45;&gt;7</title>
<path fill="none" stroke="black" d="M426.24,-88.27C435.7,-84.91 447.82,-80.61 458.64,-76.76"/>
<polygon fill="black" stroke="black" points="459.61,-80.13 467.87,-73.48 457.27,-73.53 459.61,-80.13"/>
<text text-anchor="middle" x="447.75" y="-85.33" font-family="Times,serif" font-size="14.00">e</text>
</g>
</g>
</svg>
