<?xml version="1.0" encoding="UTF-8" standalone="no"?>
<!DOCTYPE svg PUBLIC "-//W3C//DTD SVG 1.1//EN"
 "http://www.w3.org/Graphics/SVG/1.1/DTD/svg11.dtd">
<!-- Generated by graphviz version 9.0.0 (20230911.1827)
 -->
<!-- Title: G Pages: 1 -->
<svg width="599pt" height="115pt"
 viewBox="0.00 0.00 598.75 114.50" xmlns="http://www.w3.org/2000/svg" xmlns:xlink="http://www.w3.org/1999/xlink">
<g id="graph0" class="graph" transform="scale(1 1) rotate(0) translate(4 110.5)">
<title>G</title>
<polygon fill="white" stroke="none" points="-4,4 -4,-110.5 594.75,-110.5 594.75,4 -4,4"/>
<!-- 4 -->
<g id="node1" class="node">
<title>4</title>
<ellipse fill="none" stroke="black" cx="18" cy="-45" rx="18" ry="18"/>
<text text-anchor="middle" x="18" y="-39.95" font-family="Times,serif" font-size="14.00">4</text>
</g>
<!-- 0 -->
<g id="node2" class="node">
<title>0</title>
<ellipse fill="none" stroke="black" cx="96" cy="-72" rx="18" ry="18"/>
<text text-anchor="middle" x="96" y="-66.95" font-family="Times,serif" font-size="14.00">0</text>
</g>
<!-- 4&#45;&gt;0 -->
<g id="edge1" class="edge">
<title>4&#45;&gt;0</title>
<path fill="none" stroke="black" d="M35.49,-50.86C44.95,-54.22 57.07,-58.52 67.89,-62.37"/>
<polygon fill="black" stroke="black" points="66.52,-65.6 77.12,-65.65 68.86,-59 66.52,-65.6"/>
<text text-anchor="middle" x="57" y="-62.2" font-family="Times,serif" font-size="14.00">e</text>
</g>
<!-- 2 -->
<g id="node9" class="node">
<title>2</title>
<ellipse fill="none" stroke="black" cx="96" cy="-18" rx="18" ry="18"/>
<text text-anchor="middle" x="96" y="-12.95" font-family="Times,serif" font-size="14.00">2</text>
</g>
<!-- 4&#45;&gt;2 -->
<g id="edge10" class="edge">
<title>4&#45;&gt;2</title>
<path fill="none" stroke="black" d="M35.49,-39.14C44.95,-35.78 57.07,-31.48 67.89,-27.63"/>
<polygon fill="black" stroke="black" points="68.86,-31 77.12,-24.35 66.52,-24.4 68.86,-31"/>
<text text-anchor="middle" x="57" y="-36.2" font-family="Times,serif" font-size="14.00">e</text>
</g>
<!-- 1 -->
<g id="node3" class="node">
<title>1</title>
<ellipse fill="none" stroke="black" cx="174.75" cy="-72" rx="18" ry="18"/>
<text text-anchor="middle" x="174.75" y="-66.95" font-family="Times,serif" font-size="14.00">1</text>
</g>
<!-- 0&#45;&gt;1 -->
<g id="edge2" class="edge">
<title>0&#45;&gt;1</title>
<path fill="none" stroke="black" d="M114.42,-72C123.44,-72 134.7,-72 144.98,-72"/>
<polygon fill="black" stroke="black" points="144.89,-75.5 154.89,-72 144.89,-68.5 144.89,-75.5"/>
<text text-anchor="middle" x="135.38" y="-75.2" font-family="Times,serif" font-size="14.00">a</text>
</g>
<!-- 5 -->
<g id="node4" class="node">
<title>5</title>
<ellipse fill="none" stroke="black" cx="252.75" cy="-45" rx="18" ry="18"/>
<text text-anchor="middle" x="252.75" y="-39.95" font-family="Times,serif" font-size="14.00">5</text>
</g>
<!-- 1&#45;&gt;5 -->
<g id="edge3" class="edge">
<title>1&#45;&gt;5</title>
<path fill="none" stroke="black" d="M192.24,-66.14C201.7,-62.78 213.82,-58.48 224.64,-54.63"/>
<polygon fill="black" stroke="black" points="225.61,-58 233.87,-51.35 223.27,-51.4 225.61,-58"/>
<text text-anchor="middle" x="213.75" y="-62.2" font-family="Times,serif" font-size="14.00">e</text>
</g>
<!-- 8 -->
<g id="node5" class="node">
<title>8</title>
<ellipse fill="none" stroke="black" cx="330.75" cy="-45" rx="18" ry="18"/>
<text text-anchor="middle" x="330.75" y="-39.95" font-family="Times,serif" font-size="14.00">8</text>
</g>
<!-- 5&#45;&gt;8 -->
<g id="edge4" class="edge">
<title>5&#45;&gt;8</title>
<path fill="none" stroke="black" d="M271,-45C279.87,-45 290.93,-45 301.05,-45"/>
<polygon fill="black" stroke="black" points="300.8,-48.5 310.8,-45 300.8,-41.5 300.8,-48.5"/>
<text text-anchor="middle" x="291.75" y="-48.2" font-family="Times,serif" font-size="14.00">e</text>
</g>
<!-- 6 -->
<g id="node6" class="node">
<title>6</title>
<ellipse fill="none" stroke="black" cx="408.75" cy="-75" rx="18" ry="18"/>
<text text-anchor="middle" x="408.75" y="-69.95" font-family="Times,serif" font-size="14.00">6</text>
</g>
<!-- 8&#45;&gt;6 -->
<g id="edge5" class="edge">
<title>8&#45;&gt;6</title>
<path fill="none" stroke="black" d="M347.87,-51.36C357.54,-55.18 370.08,-60.13 381.19,-64.52"/>
<polygon fill="black" stroke="black" points="379.66,-67.68 390.25,-68.09 382.23,-61.16 379.66,-67.68"/>
<text text-anchor="middle" x="369.75" y="-63.2" font-family="Times,serif" font-size="14.00">e</text>
</g>
<!-- 9 -->
<g id="node8" class="node">
<title>9</title>
<ellipse fill="none" stroke="black" cx="568.75" cy="-45" rx="18" ry="18"/>
<ellipse fill="none" stroke="black" cx="568.75" cy="-45" rx="22" ry="22"/>
<text text-anchor="middle" x="568.75" y="-39.95" font-family="Times,serif" font-size="14.00">9</text>
</g>
<!-- 8&#45;&gt;9 -->
<g id="edge9" class="edge">
<title>8&#45;&gt;9</title>
<path fill="none" stroke="black" d="M349.1,-45C388.33,-45 484.33,-45 535.08,-45"/>
<polygon fill="black" stroke="black" points="534.85,-48.5 544.85,-45 534.85,-41.5 534.85,-48.5"/>
<text text-anchor="middle" x="447.75" y="-48.2" font-family="Times,serif" font-size="14.00">e</text>
</g>
<!-- 7 -->
<g id="node7" class="node">
<title>7</title>
<ellipse fill="none" stroke="black" cx="486.75" cy="-75" rx="18" ry="18"/>
<text text-anchor="middle" x="486.75" y="-69.95" font-family="Times,serif" font-size="14.00">7</text>
</g>
<!-- 6&#45;&gt;7 -->
<g id="edge6" class="edge">
<title>6&#45;&gt;7</title>
<path fill="none" stroke="black" d="M424.99,-83.12C430.98,-85.88 438.02,-88.62 444.75,-90 449.99,-91.07 455.45,-90.42 460.62,-88.9"/>
<polygon fill="black" stroke="black" points="461.92,-92.15 469.85,-85.13 459.27,-85.67 461.92,-92.15"/>
<text text-anchor="middle" x="447.75" y="-93.2" font-family="Times,serif" font-size="14.00">c</text>
</g>
<!-- 7&#45;&gt;6 -->
<g id="edge7" class="edge">
<title>7&#45;&gt;6</title>
<path fill="none" stroke="black" d="M469.04,-71.14C461.62,-69.85 452.77,-68.87 444.75,-69.5 442.54,-69.67 440.26,-69.91 437.98,-70.18"/>
<polygon fill="black" stroke="black" points="437.68,-66.68 428.28,-71.56 438.67,-73.61 437.68,-66.68"/>
<text text-anchor="middle" x="447.75" y="-72.2" font-family="Times,serif" font-size="14.00">e</text>
</g>
<!-- 7&#45;&gt;9 -->
<g id="edge8" class="edge">
<title>7&#45;&gt;9</title>
<path fill="none" stroke="black" d="M503.94,-68.93C513.39,-65.38 525.63,-60.8 536.86,-56.58"/>
<polygon fill="black" stroke="black" points="538.06,-59.87 546.19,-53.08 535.6,-53.32 538.06,-59.87"/>
<text text-anchor="middle" x="525.75" y="-64.2" font-family="Times,serif" font-size="14.00">e</text>
</g>
<!-- 3 -->
<g id="node10" class="node">
<title>3</title>
<ellipse fill="none" stroke="black" cx="174.75" cy="-18" rx="18" ry="18"/>
<text text-anchor="middle" x="174.75" y="-12.95" font-family="Times,serif" font-size="14.00">3</text>
</g>
<!-- 2&#45;&gt;3 -->
<g id="edge11" class="edge">
<title>2&#45;&gt;3</title>
<path fill="none" stroke="black" d="M114.42,-18C123.44,-18 134.7,-18 144.98,-18"/>
<polygon fill="black" stroke="black" points="144.89,-21.5 154.89,-18 144.89,-14.5 144.89,-21.5"/>
<text text-anchor="middle" x="135.38" y="-21.2" font-family="Times,serif" font-size="14.00">b</text>
</g>
<!-- 3&#45;&gt;5 -->
<g id="edge12" class="edge">
<title>3&#45;&gt;5</title>
<path fill="none" stroke="black" d="M192.24,-23.86C201.7,-27.22 213.82,-31.52 224.64,-35.37"/>
<polygon fill="black" stroke="black" points="223.27,-38.6 233.87,-38.65 225.61,-32 223.27,-38.6"/>
<text text-anchor="middle" x="213.75" y="-36.2" font-family="Times,serif" font-size="14.00">e</text>
</g>
</g>
</svg>
