<?xml version="1.0" encoding="UTF-8" standalone="no"?>
<!DOCTYPE svg PUBLIC "-//W3C//DTD SVG 1.1//EN"
 "http://www.w3.org/Graphics/SVG/1.1/DTD/svg11.dtd">
<!-- Generated by graphviz version 9.0.0 (20230911.1827)
 -->
<!-- Title: G Pages: 1 -->
<svg width="1094pt" height="174pt"
 viewBox="0.00 0.00 1093.82 174.13" xmlns="http://www.w3.org/2000/svg" xmlns:xlink="http://www.w3.org/1999/xlink">
<g id="graph0" class="graph" transform="scale(1 1) rotate(0) translate(4 170.13)">
<title>G</title>
<polygon fill="white" stroke="none" points="-4,4 -4,-170.13 1089.82,-170.13 1089.82,4 -4,4"/>
<!-- 6 -->
<g id="node1" class="node">
<title>6</title>
<ellipse fill="none" stroke="black" cx="18" cy="-24.13" rx="18" ry="18"/>
<text text-anchor="middle" x="18" y="-19.08" font-family="Times,serif" font-size="14.00">6</text>
</g>
<!-- 4 -->
<g id="node2" class="node">
<title>4</title>
<ellipse fill="none" stroke="black" cx="96" cy="-70.13" rx="18" ry="18"/>
<text text-anchor="middle" x="96" y="-65.08" font-family="Times,serif" font-size="14.00">4</text>
</g>
<!-- 6&#45;&gt;4 -->
<g id="edge1" class="edge">
<title>6&#45;&gt;4</title>
<path fill="none" stroke="black" d="M34.02,-33.22C44.32,-39.46 58.24,-47.88 70.18,-55.11"/>
<polygon fill="black" stroke="black" points="68.35,-58.09 78.72,-60.28 71.98,-52.11 68.35,-58.09"/>
<text text-anchor="middle" x="57" y="-52.33" font-family="Times,serif" font-size="14.00">ϵ</text>
</g>
<!-- 7 -->
<g id="node6" class="node">
<title>7</title>
<ellipse fill="none" stroke="black" cx="408.75" cy="-24.13" rx="18" ry="18"/>
<text text-anchor="middle" x="408.75" y="-19.08" font-family="Times,serif" font-size="14.00">7</text>
</g>
<!-- 6&#45;&gt;7 -->
<g id="edge19" class="edge">
<title>6&#45;&gt;7</title>
<path fill="none" stroke="black" d="M35.4,-18.62C50.65,-14 74.1,-8.13 95,-8.13 95,-8.13 95,-8.13 331.75,-8.13 348.08,-8.13 365.96,-11.71 380.28,-15.48"/>
<polygon fill="black" stroke="black" points="379.32,-18.85 389.9,-18.21 381.23,-12.12 379.32,-18.85"/>
<text text-anchor="middle" x="213.38" y="-11.33" font-family="Times,serif" font-size="14.00">ϵ</text>
</g>
<!-- 0 -->
<g id="node3" class="node">
<title>0</title>
<ellipse fill="none" stroke="black" cx="174" cy="-148.13" rx="18" ry="18"/>
<text text-anchor="middle" x="174" y="-143.08" font-family="Times,serif" font-size="14.00">0</text>
</g>
<!-- 4&#45;&gt;0 -->
<g id="edge2" class="edge">
<title>4&#45;&gt;0</title>
<path fill="none" stroke="black" d="M109.21,-82.66C120.96,-94.72 138.92,-113.16 152.8,-127.4"/>
<polygon fill="black" stroke="black" points="150.28,-129.83 159.76,-134.55 155.29,-124.94 150.28,-129.83"/>
<text text-anchor="middle" x="135" y="-114.33" font-family="Times,serif" font-size="14.00">ϵ</text>
</g>
<!-- 2 -->
<g id="node15" class="node">
<title>2</title>
<ellipse fill="none" stroke="black" cx="174" cy="-94.13" rx="18" ry="18"/>
<text text-anchor="middle" x="174" y="-89.08" font-family="Times,serif" font-size="14.00">2</text>
</g>
<!-- 4&#45;&gt;2 -->
<g id="edge16" class="edge">
<title>4&#45;&gt;2</title>
<path fill="none" stroke="black" d="M113.49,-75.34C122.79,-78.27 134.65,-82.02 145.33,-85.39"/>
<polygon fill="black" stroke="black" points="144.25,-88.72 154.84,-88.39 146.35,-82.05 144.25,-88.72"/>
<text text-anchor="middle" x="135" y="-86.33" font-family="Times,serif" font-size="14.00">ϵ</text>
</g>
<!-- 1 -->
<g id="node4" class="node">
<title>1</title>
<ellipse fill="none" stroke="black" cx="252.75" cy="-148.13" rx="18" ry="18"/>
<text text-anchor="middle" x="252.75" y="-143.08" font-family="Times,serif" font-size="14.00">1</text>
</g>
<!-- 0&#45;&gt;1 -->
<g id="edge3" class="edge">
<title>0&#45;&gt;1</title>
<path fill="none" stroke="black" d="M192.42,-148.13C201.44,-148.13 212.7,-148.13 222.98,-148.13"/>
<polygon fill="black" stroke="black" points="222.89,-151.63 232.89,-148.13 222.89,-144.63 222.89,-151.63"/>
<text text-anchor="middle" x="213.38" y="-151.33" font-family="Times,serif" font-size="14.00">a</text>
</g>
<!-- 5 -->
<g id="node5" class="node">
<title>5</title>
<ellipse fill="none" stroke="black" cx="330.75" cy="-67.13" rx="18" ry="18"/>
<text text-anchor="middle" x="330.75" y="-62.08" font-family="Times,serif" font-size="14.00">5</text>
</g>
<!-- 1&#45;&gt;5 -->
<g id="edge4" class="edge">
<title>1&#45;&gt;5</title>
<path fill="none" stroke="black" d="M265.62,-135.47C277.49,-122.83 295.94,-103.16 310.01,-88.17"/>
<polygon fill="black" stroke="black" points="312.38,-90.76 316.67,-81.07 307.28,-85.97 312.38,-90.76"/>
<text text-anchor="middle" x="291.75" y="-112.33" font-family="Times,serif" font-size="14.00">ϵ</text>
</g>
<!-- 5&#45;&gt;4 -->
<g id="edge5" class="edge">
<title>5&#45;&gt;4</title>
<path fill="none" stroke="black" d="M312.48,-66.84C281.25,-66.38 213.29,-65.68 156,-67.13 146.12,-67.38 135.33,-67.87 125.7,-68.38"/>
<polygon fill="black" stroke="black" points="125.59,-64.88 115.8,-68.94 125.98,-71.87 125.59,-64.88"/>
<text text-anchor="middle" x="213.38" y="-70.33" font-family="Times,serif" font-size="14.00">ϵ</text>
</g>
<!-- 5&#45;&gt;7 -->
<g id="edge6" class="edge">
<title>5&#45;&gt;7</title>
<path fill="none" stroke="black" d="M346.77,-58.64C357,-52.84 370.81,-45.03 382.69,-38.31"/>
<polygon fill="black" stroke="black" points="384.21,-41.47 391.19,-33.5 380.76,-35.38 384.21,-41.47"/>
<text text-anchor="middle" x="369.75" y="-50.33" font-family="Times,serif" font-size="14.00">ϵ</text>
</g>
<!-- 8 -->
<g id="node7" class="node">
<title>8</title>
<ellipse fill="none" stroke="black" cx="486.75" cy="-24.13" rx="18" ry="18"/>
<text text-anchor="middle" x="486.75" y="-19.08" font-family="Times,serif" font-size="14.00">8</text>
</g>
<!-- 7&#45;&gt;8 -->
<g id="edge7" class="edge">
<title>7&#45;&gt;8</title>
<path fill="none" stroke="black" d="M427,-24.13C435.87,-24.13 446.93,-24.13 457.05,-24.13"/>
<polygon fill="black" stroke="black" points="456.8,-27.63 466.8,-24.13 456.8,-20.63 456.8,-27.63"/>
<text text-anchor="middle" x="447.75" y="-27.33" font-family="Times,serif" font-size="14.00">ϵ</text>
</g>
<!-- 9 -->
<g id="node8" class="node">
<title>9</title>
<ellipse fill="none" stroke="black" cx="564.75" cy="-24.13" rx="18" ry="18"/>
<text text-anchor="middle" x="564.75" y="-19.08" font-family="Times,serif" font-size="14.00">9</text>
</g>
<!-- 8&#45;&gt;9 -->
<g id="edge8" class="edge">
<title>8&#45;&gt;9</title>
<path fill="none" stroke="black" d="M505,-24.13C513.87,-24.13 524.93,-24.13 535.05,-24.13"/>
<polygon fill="black" stroke="black" points="534.8,-27.63 544.8,-24.13 534.8,-20.63 534.8,-27.63"/>
<text text-anchor="middle" x="525.75" y="-27.33" font-family="Times,serif" font-size="14.00">a</text>
</g>
<!-- 10 -->
<g id="node9" class="node">
<title>10</title>
<ellipse fill="none" stroke="black" cx="644.88" cy="-24.13" rx="20.13" ry="20.13"/>
<text text-anchor="middle" x="644.88" y="-19.08" font-family="Times,serif" font-size="14.00">10</text>
</g>
<!-- 9&#45;&gt;10 -->
<g id="edge9" class="edge">
<title>9&#45;&gt;10</title>
<path fill="none" stroke="black" d="M583.09,-24.13C591.88,-24.13 602.82,-24.13 612.99,-24.13"/>
<polygon fill="black" stroke="black" points="612.88,-27.63 622.88,-24.13 612.88,-20.63 612.88,-27.63"/>
<text text-anchor="middle" x="603.75" y="-27.33" font-family="Times,serif" font-size="14.00">ϵ</text>
</g>
<!-- 11 -->
<g id="node10" class="node">
<title>11</title>
<ellipse fill="none" stroke="black" cx="727.89" cy="-24.13" rx="20.13" ry="20.13"/>
<text text-anchor="middle" x="727.89" y="-19.08" font-family="Times,serif" font-size="14.00">11</text>
</g>
<!-- 10&#45;&gt;11 -->
<g id="edge10" class="edge">
<title>10&#45;&gt;11</title>
<path fill="none" stroke="black" d="M665.49,-24.13C674.65,-24.13 685.76,-24.13 696.01,-24.13"/>
<polygon fill="black" stroke="black" points="695.95,-27.63 705.95,-24.13 695.95,-20.63 695.95,-27.63"/>
<text text-anchor="middle" x="686.39" y="-27.33" font-family="Times,serif" font-size="14.00">b</text>
</g>
<!-- 14 -->
<g id="node11" class="node">
<title>14</title>
<ellipse fill="none" stroke="black" cx="810.16" cy="-24.13" rx="20.13" ry="20.13"/>
<text text-anchor="middle" x="810.16" y="-19.08" font-family="Times,serif" font-size="14.00">14</text>
</g>
<!-- 11&#45;&gt;14 -->
<g id="edge11" class="edge">
<title>11&#45;&gt;14</title>
<path fill="none" stroke="black" d="M748.32,-24.13C757.33,-24.13 768.24,-24.13 778.33,-24.13"/>
<polygon fill="black" stroke="black" points="778.11,-27.63 788.11,-24.13 778.11,-20.63 778.11,-27.63"/>
<text text-anchor="middle" x="769.02" y="-27.33" font-family="Times,serif" font-size="14.00">ϵ</text>
</g>
<!-- 12 -->
<g id="node12" class="node">
<title>12</title>
<ellipse fill="none" stroke="black" cx="892.42" cy="-56.13" rx="20.13" ry="20.13"/>
<text text-anchor="middle" x="892.42" y="-51.08" font-family="Times,serif" font-size="14.00">12</text>
</g>
<!-- 14&#45;&gt;12 -->
<g id="edge12" class="edge">
<title>14&#45;&gt;12</title>
<path fill="none" stroke="black" d="M829.37,-31.39C839.22,-35.32 851.61,-40.26 862.73,-44.69"/>
<polygon fill="black" stroke="black" points="861.29,-47.89 871.87,-48.34 863.88,-41.38 861.29,-47.89"/>
<text text-anchor="middle" x="851.29" y="-44.33" font-family="Times,serif" font-size="14.00">ϵ</text>
</g>
<!-- 15 -->
<g id="node14" class="node">
<title>15</title>
<ellipse fill="none" stroke="black" cx="1061.69" cy="-24.13" rx="20.13" ry="20.13"/>
<ellipse fill="none" stroke="black" cx="1061.69" cy="-24.13" rx="24.13" ry="24.13"/>
<text text-anchor="middle" x="1061.69" y="-19.08" font-family="Times,serif" font-size="14.00">15</text>
</g>
<!-- 14&#45;&gt;15 -->
<g id="edge15" class="edge">
<title>14&#45;&gt;15</title>
<path fill="none" stroke="black" d="M830.74,-24.13C872.93,-24.13 972.89,-24.13 1026.05,-24.13"/>
<polygon fill="black" stroke="black" points="1025.75,-27.63 1035.75,-24.13 1025.75,-20.63 1025.75,-27.63"/>
<text text-anchor="middle" x="933.92" y="-27.33" font-family="Times,serif" font-size="14.00">ϵ</text>
</g>
<!-- 13 -->
<g id="node13" class="node">
<title>13</title>
<ellipse fill="none" stroke="black" cx="975.43" cy="-56.13" rx="20.13" ry="20.13"/>
<text text-anchor="middle" x="975.43" y="-51.08" font-family="Times,serif" font-size="14.00">13</text>
</g>
<!-- 12&#45;&gt;13 -->
<g id="edge13" class="edge">
<title>12&#45;&gt;13</title>
<path fill="none" stroke="black" d="M913.03,-56.13C922.18,-56.13 933.3,-56.13 943.54,-56.13"/>
<polygon fill="black" stroke="black" points="943.49,-59.63 953.49,-56.13 943.49,-52.63 943.49,-59.63"/>
<text text-anchor="middle" x="933.92" y="-59.33" font-family="Times,serif" font-size="14.00">b</text>
</g>
<!-- 13&#45;&gt;15 -->
<g id="edge14" class="edge">
<title>13&#45;&gt;15</title>
<path fill="none" stroke="black" d="M994.71,-49.19C1004.47,-45.48 1016.77,-40.81 1028.1,-36.51"/>
<polygon fill="black" stroke="black" points="1029.03,-39.9 1037.14,-33.08 1026.55,-33.36 1029.03,-39.9"/>
<text text-anchor="middle" x="1016.56" y="-44.33" font-family="Times,serif" font-size="14.00">ϵ</text>
</g>
<!-- 3 -->
<g id="node16" class="node">
<title>3</title>
<ellipse fill="none" stroke="black" cx="252.75" cy="-94.13" rx="18" ry="18"/>
<text text-anchor="middle" x="252.75" y="-89.08" font-family="Times,serif" font-size="14.00">3</text>
</g>
<!-- 2&#45;&gt;3 -->
<g id="edge17" class="edge">
<title>2&#45;&gt;3</title>
<path fill="none" stroke="black" d="M192.42,-94.13C201.44,-94.13 212.7,-94.13 222.98,-94.13"/>
<polygon fill="black" stroke="black" points="222.89,-97.63 232.89,-94.13 222.89,-90.63 222.89,-97.63"/>
<text text-anchor="middle" x="213.38" y="-97.33" font-family="Times,serif" font-size="14.00">b</text>
</g>
<!-- 3&#45;&gt;5 -->
<g id="edge18" class="edge">
<title>3&#45;&gt;5</title>
<path fill="none" stroke="black" d="M270.24,-88.27C279.7,-84.91 291.82,-80.61 302.64,-76.76"/>
<polygon fill="black" stroke="black" points="303.61,-80.13 311.87,-73.48 301.27,-73.53 303.61,-80.13"/>
<text text-anchor="middle" x="291.75" y="-85.33" font-family="Times,serif" font-size="14.00">ϵ</text>
</g>
</g>
</svg>
