<?xml version="1.0" encoding="UTF-8" standalone="no"?>
<!DOCTYPE svg PUBLIC "-//W3C//DTD SVG 1.1//EN"
 "http://www.w3.org/Graphics/SVG/1.1/DTD/svg11.dtd">
<!-- Generated by graphviz version 8.1.0 (20230707.0739)
 -->
<!-- Title: G Pages: 1 -->
<svg width="1090pt" height="115pt"
 viewBox="0.00 0.00 1090.03 115.20" xmlns="http://www.w3.org/2000/svg" xmlns:xlink="http://www.w3.org/1999/xlink">
<g id="graph0" class="graph" transform="scale(1 1) rotate(0) translate(4 111.2)">
<title>G</title>
<polygon fill="white" stroke="none" points="-4,4 -4,-111.2 1086.03,-111.2 1086.03,4 -4,4"/>
<!-- 6 -->
<g id="node1" class="node">
<title>6</title>
<ellipse fill="none" stroke="black" cx="18" cy="-35.2" rx="18" ry="18"/>
<text text-anchor="middle" x="18" y="-29.77" font-family="Times New Roman,serif" font-size="14.00">6</text>
</g>
<!-- 4 -->
<g id="node2" class="node">
<title>4</title>
<ellipse fill="none" stroke="black" cx="96" cy="-35.2" rx="18" ry="18"/>
<text text-anchor="middle" x="96" y="-29.77" font-family="Times New Roman,serif" font-size="14.00">4</text>
</g>
<!-- 6&#45;&gt;4 -->
<g id="edge1" class="edge">
<title>6&#45;&gt;4</title>
<path fill="none" stroke="black" d="M36.25,-35.2C45.22,-35.2 56.42,-35.2 66.63,-35.2"/>
<polygon fill="black" stroke="black" points="66.56,-38.7 76.56,-35.2 66.56,-31.7 66.56,-38.7"/>
<text text-anchor="middle" x="57" y="-37.65" font-family="Times New Roman,serif" font-size="14.00">ϵ</text>
</g>
<!-- 0 -->
<g id="node3" class="node">
<title>0</title>
<ellipse fill="none" stroke="black" cx="174" cy="-89.2" rx="18" ry="18"/>
<text text-anchor="middle" x="174" y="-83.77" font-family="Times New Roman,serif" font-size="14.00">0</text>
</g>
<!-- 4&#45;&gt;0 -->
<g id="edge2" class="edge">
<title>4&#45;&gt;0</title>
<path fill="none" stroke="black" d="M111.3,-45.36C122.23,-53.12 137.52,-63.99 150.15,-72.96"/>
<polygon fill="black" stroke="black" points="147.59,-76.15 157.77,-79.09 151.64,-70.44 147.59,-76.15"/>
<text text-anchor="middle" x="135" y="-65.65" font-family="Times New Roman,serif" font-size="14.00">ϵ</text>
</g>
<!-- 2 -->
<g id="node15" class="node">
<title>2</title>
<ellipse fill="none" stroke="black" cx="174" cy="-35.2" rx="18" ry="18"/>
<text text-anchor="middle" x="174" y="-29.77" font-family="Times New Roman,serif" font-size="14.00">2</text>
</g>
<!-- 4&#45;&gt;2 -->
<g id="edge16" class="edge">
<title>4&#45;&gt;2</title>
<path fill="none" stroke="black" d="M114.25,-35.2C123.22,-35.2 134.42,-35.2 144.63,-35.2"/>
<polygon fill="black" stroke="black" points="144.56,-38.7 154.56,-35.2 144.56,-31.7 144.56,-38.7"/>
<text text-anchor="middle" x="135" y="-37.65" font-family="Times New Roman,serif" font-size="14.00">ϵ</text>
</g>
<!-- 1 -->
<g id="node4" class="node">
<title>1</title>
<ellipse fill="none" stroke="black" cx="253.5" cy="-89.2" rx="18" ry="18"/>
<text text-anchor="middle" x="253.5" y="-83.77" font-family="Times New Roman,serif" font-size="14.00">1</text>
</g>
<!-- 0&#45;&gt;1 -->
<g id="edge3" class="edge">
<title>0&#45;&gt;1</title>
<path fill="none" stroke="black" d="M192.2,-89.2C201.57,-89.2 213.39,-89.2 224.09,-89.2"/>
<polygon fill="black" stroke="black" points="224.08,-92.7 234.08,-89.2 224.08,-85.7 224.08,-92.7"/>
<text text-anchor="middle" x="213.75" y="-91.65" font-family="Times New Roman,serif" font-size="14.00">a</text>
</g>
<!-- 5 -->
<g id="node5" class="node">
<title>5</title>
<ellipse fill="none" stroke="black" cx="331.5" cy="-35.2" rx="18" ry="18"/>
<text text-anchor="middle" x="331.5" y="-29.77" font-family="Times New Roman,serif" font-size="14.00">5</text>
</g>
<!-- 1&#45;&gt;5 -->
<g id="edge4" class="edge">
<title>1&#45;&gt;5</title>
<path fill="none" stroke="black" d="M268.8,-79.04C279.73,-71.27 295.02,-60.41 307.65,-51.44"/>
<polygon fill="black" stroke="black" points="309.14,-53.96 315.27,-45.31 305.09,-48.25 309.14,-53.96"/>
<text text-anchor="middle" x="292.5" y="-65.65" font-family="Times New Roman,serif" font-size="14.00">ϵ</text>
</g>
<!-- 5&#45;&gt;4 -->
<g id="edge5" class="edge">
<title>5&#45;&gt;4</title>
<path fill="none" stroke="black" d="M315.6,-26.2C304.04,-19.76 287.35,-11.65 271.5,-8.2 221.34,2.73 206.16,2.73 156,-8.2 144.11,-10.79 131.76,-16 121.44,-21.16"/>
<polygon fill="black" stroke="black" points="120.1,-18.43 112.9,-26.2 123.37,-24.62 120.1,-18.43"/>
<text text-anchor="middle" x="213.75" y="-2.65" font-family="Times New Roman,serif" font-size="14.00">ϵ</text>
</g>
<!-- 7 -->
<g id="node6" class="node">
<title>7</title>
<ellipse fill="none" stroke="black" cx="409.5" cy="-35.2" rx="18" ry="18"/>
<text text-anchor="middle" x="409.5" y="-29.77" font-family="Times New Roman,serif" font-size="14.00">7</text>
</g>
<!-- 5&#45;&gt;7 -->
<g id="edge6" class="edge">
<title>5&#45;&gt;7</title>
<path fill="none" stroke="black" d="M349.75,-35.2C358.72,-35.2 369.92,-35.2 380.13,-35.2"/>
<polygon fill="black" stroke="black" points="380.06,-38.7 390.06,-35.2 380.06,-31.7 380.06,-38.7"/>
<text text-anchor="middle" x="370.5" y="-37.65" font-family="Times New Roman,serif" font-size="14.00">ϵ</text>
</g>
<!-- 8 -->
<g id="node7" class="node">
<title>8</title>
<ellipse fill="none" stroke="black" cx="487.5" cy="-35.2" rx="18" ry="18"/>
<text text-anchor="middle" x="487.5" y="-29.77" font-family="Times New Roman,serif" font-size="14.00">8</text>
</g>
<!-- 7&#45;&gt;8 -->
<g id="edge7" class="edge">
<title>7&#45;&gt;8</title>
<path fill="none" stroke="black" d="M427.75,-35.2C436.72,-35.2 447.92,-35.2 458.13,-35.2"/>
<polygon fill="black" stroke="black" points="458.06,-38.7 468.06,-35.2 458.06,-31.7 458.06,-38.7"/>
<text text-anchor="middle" x="448.5" y="-37.65" font-family="Times New Roman,serif" font-size="14.00">ϵ</text>
</g>
<!-- 9 -->
<g id="node8" class="node">
<title>9</title>
<ellipse fill="none" stroke="black" cx="565.5" cy="-35.2" rx="18" ry="18"/>
<text text-anchor="middle" x="565.5" y="-29.77" font-family="Times New Roman,serif" font-size="14.00">9</text>
</g>
<!-- 8&#45;&gt;9 -->
<g id="edge8" class="edge">
<title>8&#45;&gt;9</title>
<path fill="none" stroke="black" d="M505.75,-35.2C514.72,-35.2 525.92,-35.2 536.13,-35.2"/>
<polygon fill="black" stroke="black" points="536.06,-38.7 546.06,-35.2 536.06,-31.7 536.06,-38.7"/>
<text text-anchor="middle" x="526.5" y="-37.65" font-family="Times New Roman,serif" font-size="14.00">a</text>
</g>
<!-- 10 -->
<g id="node9" class="node">
<title>10</title>
<ellipse fill="none" stroke="black" cx="645.13" cy="-35.2" rx="19.63" ry="19.63"/>
<text text-anchor="middle" x="645.13" y="-29.77" font-family="Times New Roman,serif" font-size="14.00">10</text>
</g>
<!-- 9&#45;&gt;10 -->
<g id="edge9" class="edge">
<title>9&#45;&gt;10</title>
<path fill="none" stroke="black" d="M583.73,-35.2C592.72,-35.2 603.97,-35.2 614.32,-35.2"/>
<polygon fill="black" stroke="black" points="614.04,-38.7 624.04,-35.2 614.04,-31.7 614.04,-38.7"/>
<text text-anchor="middle" x="604.5" y="-37.65" font-family="Times New Roman,serif" font-size="14.00">ϵ</text>
</g>
<!-- 11 -->
<g id="node10" class="node">
<title>11</title>
<ellipse fill="none" stroke="black" cx="727.88" cy="-35.2" rx="19.63" ry="19.63"/>
<text text-anchor="middle" x="727.88" y="-29.77" font-family="Times New Roman,serif" font-size="14.00">11</text>
</g>
<!-- 10&#45;&gt;11 -->
<g id="edge10" class="edge">
<title>10&#45;&gt;11</title>
<path fill="none" stroke="black" d="M664.86,-35.2C674.47,-35.2 686.41,-35.2 697.24,-35.2"/>
<polygon fill="black" stroke="black" points="696.97,-38.7 706.97,-35.2 696.97,-31.7 696.97,-38.7"/>
<text text-anchor="middle" x="686.5" y="-37.65" font-family="Times New Roman,serif" font-size="14.00">b</text>
</g>
<!-- 14 -->
<g id="node11" class="node">
<title>14</title>
<ellipse fill="none" stroke="black" cx="809.14" cy="-35.2" rx="19.63" ry="19.63"/>
<text text-anchor="middle" x="809.14" y="-29.77" font-family="Times New Roman,serif" font-size="14.00">14</text>
</g>
<!-- 11&#45;&gt;14 -->
<g id="edge11" class="edge">
<title>11&#45;&gt;14</title>
<path fill="none" stroke="black" d="M747.66,-35.2C756.87,-35.2 768.19,-35.2 778.52,-35.2"/>
<polygon fill="black" stroke="black" points="778.21,-38.7 788.21,-35.2 778.21,-31.7 778.21,-38.7"/>
<text text-anchor="middle" x="768.51" y="-37.65" font-family="Times New Roman,serif" font-size="14.00">ϵ</text>
</g>
<!-- 12 -->
<g id="node12" class="node">
<title>12</title>
<ellipse fill="none" stroke="black" cx="890.39" cy="-35.2" rx="19.63" ry="19.63"/>
<text text-anchor="middle" x="890.39" y="-29.77" font-family="Times New Roman,serif" font-size="14.00">12</text>
</g>
<!-- 14&#45;&gt;12 -->
<g id="edge12" class="edge">
<title>14&#45;&gt;12</title>
<path fill="none" stroke="black" d="M828.92,-35.2C838.13,-35.2 849.44,-35.2 859.78,-35.2"/>
<polygon fill="black" stroke="black" points="859.47,-38.7 869.47,-35.2 859.47,-31.7 859.47,-38.7"/>
<text text-anchor="middle" x="849.76" y="-37.65" font-family="Times New Roman,serif" font-size="14.00">ϵ</text>
</g>
<!-- 13 -->
<g id="node13" class="node">
<title>13</title>
<ellipse fill="none" stroke="black" cx="973.14" cy="-35.2" rx="19.63" ry="19.63"/>
<text text-anchor="middle" x="973.14" y="-29.77" font-family="Times New Roman,serif" font-size="14.00">13</text>
</g>
<!-- 12&#45;&gt;13 -->
<g id="edge13" class="edge">
<title>12&#45;&gt;13</title>
<path fill="none" stroke="black" d="M910.12,-35.2C919.73,-35.2 931.67,-35.2 942.5,-35.2"/>
<polygon fill="black" stroke="black" points="942.24,-38.7 952.24,-35.2 942.24,-31.7 942.24,-38.7"/>
<text text-anchor="middle" x="931.77" y="-37.65" font-family="Times New Roman,serif" font-size="14.00">b</text>
</g>
<!-- 13&#45;&gt;12 -->
<g id="edge14" class="edge">
<title>13&#45;&gt;12</title>
<path fill="none" stroke="black" d="M956.45,-24.52C950.21,-20.89 942.8,-17.29 935.52,-15.45 928.79,-13.75 921.8,-15.21 915.43,-17.96"/>
<polygon fill="black" stroke="black" points="914.14,-15.23 907.04,-23.09 917.49,-21.37 914.14,-15.23"/>
<text text-anchor="middle" x="931.77" y="-18.65" font-family="Times New Roman,serif" font-size="14.00">ϵ</text>
</g>
<!-- 15 -->
<g id="node14" class="node">
<title>15</title>
<ellipse fill="none" stroke="black" cx="1058.4" cy="-35.2" rx="19.63" ry="19.63"/>
<ellipse fill="none" stroke="black" cx="1058.4" cy="-35.2" rx="23.63" ry="23.63"/>
<text text-anchor="middle" x="1058.4" y="-29.77" font-family="Times New Roman,serif" font-size="14.00">15</text>
</g>
<!-- 13&#45;&gt;15 -->
<g id="edge15" class="edge">
<title>13&#45;&gt;15</title>
<path fill="none" stroke="black" d="M993.04,-35.2C1002.06,-35.2 1013.13,-35.2 1023.53,-35.2"/>
<polygon fill="black" stroke="black" points="1023.43,-38.7 1033.43,-35.2 1023.43,-31.7 1023.43,-38.7"/>
<text text-anchor="middle" x="1013.77" y="-37.65" font-family="Times New Roman,serif" font-size="14.00">ϵ</text>
</g>
<!-- 3 -->
<g id="node16" class="node">
<title>3</title>
<ellipse fill="none" stroke="black" cx="253.5" cy="-35.2" rx="18" ry="18"/>
<text text-anchor="middle" x="253.5" y="-29.77" font-family="Times New Roman,serif" font-size="14.00">3</text>
</g>
<!-- 2&#45;&gt;3 -->
<g id="edge17" class="edge">
<title>2&#45;&gt;3</title>
<path fill="none" stroke="black" d="M192.2,-35.2C201.57,-35.2 213.39,-35.2 224.09,-35.2"/>
<polygon fill="black" stroke="black" points="224.08,-38.7 234.08,-35.2 224.08,-31.7 224.08,-38.7"/>
<text text-anchor="middle" x="213.75" y="-37.65" font-family="Times New Roman,serif" font-size="14.00">b</text>
</g>
<!-- 3&#45;&gt;5 -->
<g id="edge18" class="edge">
<title>3&#45;&gt;5</title>
<path fill="none" stroke="black" d="M271.75,-35.2C280.72,-35.2 291.92,-35.2 302.13,-35.2"/>
<polygon fill="black" stroke="black" points="302.06,-38.7 312.06,-35.2 302.06,-31.7 302.06,-38.7"/>
<text text-anchor="middle" x="292.5" y="-37.65" font-family="Times New Roman,serif" font-size="14.00">ϵ</text>
</g>
</g>
</svg>
