<?xml version="1.0" encoding="UTF-8" standalone="no"?>
<!DOCTYPE svg PUBLIC "-//W3C//DTD SVG 1.1//EN"
 "http://www.w3.org/Graphics/SVG/1.1/DTD/svg11.dtd">
<!-- Generated by graphviz version 8.1.0 (20230707.0739)
 -->
<!-- Title: G Pages: 1 -->
<svg width="764pt" height="173pt"
 viewBox="0.00 0.00 763.51 172.63" xmlns="http://www.w3.org/2000/svg" xmlns:xlink="http://www.w3.org/1999/xlink">
<g id="graph0" class="graph" transform="scale(1 1) rotate(0) translate(4 168.63)">
<title>G</title>
<polygon fill="white" stroke="none" points="-4,4 -4,-168.63 759.51,-168.63 759.51,4 -4,4"/>
<!-- 0 -->
<g id="node1" class="node">
<title>0</title>
<ellipse fill="none" stroke="black" cx="18" cy="-23.63" rx="18" ry="18"/>
<text text-anchor="middle" x="18" y="-18.2" font-family="Times New Roman,serif" font-size="14.00">0</text>
</g>
<!-- 1 -->
<g id="node2" class="node">
<title>1</title>
<ellipse fill="none" stroke="black" cx="96" cy="-23.63" rx="18" ry="18"/>
<text text-anchor="middle" x="96" y="-18.2" font-family="Times New Roman,serif" font-size="14.00">1</text>
</g>
<!-- 0&#45;&gt;1 -->
<g id="edge1" class="edge">
<title>0&#45;&gt;1</title>
<path fill="none" stroke="black" d="M36.25,-23.63C45.22,-23.63 56.42,-23.63 66.63,-23.63"/>
<polygon fill="black" stroke="black" points="66.56,-27.13 76.56,-23.63 66.56,-20.13 66.56,-27.13"/>
<text text-anchor="middle" x="57" y="-26.08" font-family="Times New Roman,serif" font-size="14.00">a</text>
</g>
<!-- 8 -->
<g id="node3" class="node">
<title>8</title>
<ellipse fill="none" stroke="black" cx="174" cy="-23.63" rx="18" ry="18"/>
<text text-anchor="middle" x="174" y="-18.2" font-family="Times New Roman,serif" font-size="14.00">8</text>
</g>
<!-- 1&#45;&gt;8 -->
<g id="edge2" class="edge">
<title>1&#45;&gt;8</title>
<path fill="none" stroke="black" d="M114.25,-23.63C123.22,-23.63 134.42,-23.63 144.63,-23.63"/>
<polygon fill="black" stroke="black" points="144.56,-27.13 154.56,-23.63 144.56,-20.13 144.56,-27.13"/>
<text text-anchor="middle" x="135" y="-26.08" font-family="Times New Roman,serif" font-size="14.00">e</text>
</g>
<!-- 6 -->
<g id="node4" class="node">
<title>6</title>
<ellipse fill="none" stroke="black" cx="252" cy="-69.63" rx="18" ry="18"/>
<text text-anchor="middle" x="252" y="-64.2" font-family="Times New Roman,serif" font-size="14.00">6</text>
</g>
<!-- 8&#45;&gt;6 -->
<g id="edge3" class="edge">
<title>8&#45;&gt;6</title>
<path fill="none" stroke="black" d="M190.02,-32.72C200.53,-39.08 214.8,-47.72 226.9,-55.04"/>
<polygon fill="black" stroke="black" points="224.65,-58.37 235.02,-60.56 228.27,-52.39 224.65,-58.37"/>
<text text-anchor="middle" x="213" y="-51.08" font-family="Times New Roman,serif" font-size="14.00">e</text>
</g>
<!-- 9 -->
<g id="node8" class="node">
<title>9</title>
<ellipse fill="none" stroke="black" cx="565.5" cy="-23.63" rx="18" ry="18"/>
<text text-anchor="middle" x="565.5" y="-18.2" font-family="Times New Roman,serif" font-size="14.00">9</text>
</g>
<!-- 8&#45;&gt;9 -->
<g id="edge14" class="edge">
<title>8&#45;&gt;9</title>
<path fill="none" stroke="black" d="M191.4,-18.12C206.65,-13.49 230.1,-7.63 251,-7.63 251,-7.63 251,-7.63 488.5,-7.63 505.15,-7.63 523.43,-11.35 537.89,-15.21"/>
<polygon fill="black" stroke="black" points="536.53,-18.74 547.1,-18.12 538.45,-12.01 536.53,-18.74"/>
<text text-anchor="middle" x="369.75" y="-10.08" font-family="Times New Roman,serif" font-size="14.00">e</text>
</g>
<!-- 2 -->
<g id="node5" class="node">
<title>2</title>
<ellipse fill="none" stroke="black" cx="330" cy="-146.63" rx="18" ry="18"/>
<text text-anchor="middle" x="330" y="-141.2" font-family="Times New Roman,serif" font-size="14.00">2</text>
</g>
<!-- 6&#45;&gt;2 -->
<g id="edge4" class="edge">
<title>6&#45;&gt;2</title>
<path fill="none" stroke="black" d="M265.21,-82C277,-93.94 295.05,-112.23 308.94,-126.31"/>
<polygon fill="black" stroke="black" points="306.05,-128.37 315.57,-133.03 311.03,-123.45 306.05,-128.37"/>
<text text-anchor="middle" x="291" y="-112.08" font-family="Times New Roman,serif" font-size="14.00">e</text>
</g>
<!-- 4 -->
<g id="node11" class="node">
<title>4</title>
<ellipse fill="none" stroke="black" cx="330" cy="-92.63" rx="18" ry="18"/>
<text text-anchor="middle" x="330" y="-87.2" font-family="Times New Roman,serif" font-size="14.00">4</text>
</g>
<!-- 6&#45;&gt;4 -->
<g id="edge11" class="edge">
<title>6&#45;&gt;4</title>
<path fill="none" stroke="black" d="M269.49,-74.62C278.99,-77.49 291.15,-81.17 302.01,-84.46"/>
<polygon fill="black" stroke="black" points="300.69,-88.02 311.28,-87.57 302.72,-81.32 300.69,-88.02"/>
<text text-anchor="middle" x="291" y="-85.08" font-family="Times New Roman,serif" font-size="14.00">e</text>
</g>
<!-- 3 -->
<g id="node6" class="node">
<title>3</title>
<ellipse fill="none" stroke="black" cx="409.5" cy="-146.63" rx="18" ry="18"/>
<text text-anchor="middle" x="409.5" y="-141.2" font-family="Times New Roman,serif" font-size="14.00">3</text>
</g>
<!-- 2&#45;&gt;3 -->
<g id="edge5" class="edge">
<title>2&#45;&gt;3</title>
<path fill="none" stroke="black" d="M348.2,-146.63C357.57,-146.63 369.39,-146.63 380.09,-146.63"/>
<polygon fill="black" stroke="black" points="380.08,-150.13 390.08,-146.63 380.08,-143.13 380.08,-150.13"/>
<text text-anchor="middle" x="369.75" y="-149.08" font-family="Times New Roman,serif" font-size="14.00">b</text>
</g>
<!-- 7 -->
<g id="node7" class="node">
<title>7</title>
<ellipse fill="none" stroke="black" cx="487.5" cy="-66.63" rx="18" ry="18"/>
<text text-anchor="middle" x="487.5" y="-61.2" font-family="Times New Roman,serif" font-size="14.00">7</text>
</g>
<!-- 3&#45;&gt;7 -->
<g id="edge6" class="edge">
<title>3&#45;&gt;7</title>
<path fill="none" stroke="black" d="M422.71,-133.77C434.68,-121.18 453.1,-101.78 467.08,-87.07"/>
<polygon fill="black" stroke="black" points="468.97,-90.11 473.32,-80.45 463.89,-85.29 468.97,-90.11"/>
<text text-anchor="middle" x="448.5" y="-111.08" font-family="Times New Roman,serif" font-size="14.00">e</text>
</g>
<!-- 7&#45;&gt;6 -->
<g id="edge7" class="edge">
<title>7&#45;&gt;6</title>
<path fill="none" stroke="black" d="M469.16,-66.07C437.79,-65.17 369.53,-63.68 312,-65.63 301.9,-65.97 290.84,-66.64 281.05,-67.34"/>
<polygon fill="black" stroke="black" points="280.99,-63.91 271.28,-68.15 281.52,-70.89 280.99,-63.91"/>
<text text-anchor="middle" x="369.75" y="-68.08" font-family="Times New Roman,serif" font-size="14.00">e</text>
</g>
<!-- 7&#45;&gt;9 -->
<g id="edge8" class="edge">
<title>7&#45;&gt;9</title>
<path fill="none" stroke="black" d="M503.52,-58.13C513.86,-52.28 527.84,-44.37 539.8,-37.6"/>
<polygon fill="black" stroke="black" points="541.28,-40.22 548.26,-32.25 537.83,-34.13 541.28,-40.22"/>
<text text-anchor="middle" x="526.5" y="-49.08" font-family="Times New Roman,serif" font-size="14.00">e</text>
</g>
<!-- 10 -->
<g id="node9" class="node">
<title>10</title>
<ellipse fill="none" stroke="black" cx="645.13" cy="-23.63" rx="19.63" ry="19.63"/>
<text text-anchor="middle" x="645.13" y="-18.2" font-family="Times New Roman,serif" font-size="14.00">10</text>
</g>
<!-- 9&#45;&gt;10 -->
<g id="edge9" class="edge">
<title>9&#45;&gt;10</title>
<path fill="none" stroke="black" d="M583.73,-23.63C592.72,-23.63 603.97,-23.63 614.32,-23.63"/>
<polygon fill="black" stroke="black" points="614.04,-27.13 624.04,-23.63 614.04,-20.13 614.04,-27.13"/>
<text text-anchor="middle" x="604.5" y="-26.08" font-family="Times New Roman,serif" font-size="14.00">e</text>
</g>
<!-- 11 -->
<g id="node10" class="node">
<title>11</title>
<ellipse fill="none" stroke="black" cx="731.88" cy="-23.63" rx="19.63" ry="19.63"/>
<ellipse fill="none" stroke="black" cx="731.88" cy="-23.63" rx="23.63" ry="23.63"/>
<text text-anchor="middle" x="731.88" y="-18.2" font-family="Times New Roman,serif" font-size="14.00">11</text>
</g>
<!-- 10&#45;&gt;11 -->
<g id="edge10" class="edge">
<title>10&#45;&gt;11</title>
<path fill="none" stroke="black" d="M664.94,-23.63C674.35,-23.63 686.03,-23.63 696.94,-23.63"/>
<polygon fill="black" stroke="black" points="696.9,-27.13 706.9,-23.63 696.9,-20.13 696.9,-27.13"/>
<text text-anchor="middle" x="686.5" y="-26.08" font-family="Times New Roman,serif" font-size="14.00">d</text>
</g>
<!-- 5 -->
<g id="node12" class="node">
<title>5</title>
<ellipse fill="none" stroke="black" cx="409.5" cy="-92.63" rx="18" ry="18"/>
<text text-anchor="middle" x="409.5" y="-87.2" font-family="Times New Roman,serif" font-size="14.00">5</text>
</g>
<!-- 4&#45;&gt;5 -->
<g id="edge12" class="edge">
<title>4&#45;&gt;5</title>
<path fill="none" stroke="black" d="M348.2,-92.63C357.57,-92.63 369.39,-92.63 380.09,-92.63"/>
<polygon fill="black" stroke="black" points="380.08,-96.13 390.08,-92.63 380.08,-89.13 380.08,-96.13"/>
<text text-anchor="middle" x="369.75" y="-95.08" font-family="Times New Roman,serif" font-size="14.00">c</text>
</g>
<!-- 5&#45;&gt;7 -->
<g id="edge13" class="edge">
<title>5&#45;&gt;7</title>
<path fill="none" stroke="black" d="M426.99,-86.99C436.55,-83.71 448.82,-79.52 459.73,-75.78"/>
<polygon fill="black" stroke="black" points="460.71,-78.81 469.04,-72.26 458.45,-72.18 460.71,-78.81"/>
<text text-anchor="middle" x="448.5" y="-83.08" font-family="Times New Roman,serif" font-size="14.00">e</text>
</g>
</g>
</svg>
