<?xml version="1.0" encoding="UTF-8" standalone="no"?>
<!DOCTYPE svg PUBLIC "-//W3C//DTD SVG 1.1//EN"
 "http://www.w3.org/Graphics/SVG/1.1/DTD/svg11.dtd">
<!-- Generated by graphviz version 9.0.0 (20230911.1827)
 -->
<!-- Title: G Pages: 1 -->
<svg width="1095pt" height="106pt"
 viewBox="0.00 0.00 1094.57 106.26" xmlns="http://www.w3.org/2000/svg" xmlns:xlink="http://www.w3.org/1999/xlink">
<g id="graph0" class="graph" transform="scale(1 1) rotate(0) translate(4 102.26)">
<title>G</title>
<polygon fill="white" stroke="none" points="-4,4 -4,-102.26 1090.57,-102.26 1090.57,4 -4,4"/>
<!-- 4 -->
<g id="node1" class="node">
<title>4</title>
<ellipse fill="none" stroke="black" cx="18" cy="-49.13" rx="18" ry="18"/>
<text text-anchor="middle" x="18" y="-44.08" font-family="Times,serif" font-size="14.00">4</text>
</g>
<!-- 0 -->
<g id="node2" class="node">
<title>0</title>
<ellipse fill="none" stroke="black" cx="96" cy="-76.13" rx="18" ry="18"/>
<text text-anchor="middle" x="96" y="-71.08" font-family="Times,serif" font-size="14.00">0</text>
</g>
<!-- 4&#45;&gt;0 -->
<g id="edge1" class="edge">
<title>4&#45;&gt;0</title>
<path fill="none" stroke="black" d="M35.49,-54.99C44.95,-58.35 57.07,-62.65 67.89,-66.5"/>
<polygon fill="black" stroke="black" points="66.52,-69.73 77.12,-69.78 68.86,-63.13 66.52,-69.73"/>
<text text-anchor="middle" x="57" y="-66.33" font-family="Times,serif" font-size="14.00">ϵ</text>
</g>
<!-- 2 -->
<g id="node17" class="node">
<title>2</title>
<ellipse fill="none" stroke="black" cx="96" cy="-22.13" rx="18" ry="18"/>
<text text-anchor="middle" x="96" y="-17.08" font-family="Times,serif" font-size="14.00">2</text>
</g>
<!-- 4&#45;&gt;2 -->
<g id="edge17" class="edge">
<title>4&#45;&gt;2</title>
<path fill="none" stroke="black" d="M35.49,-43.27C44.95,-39.91 57.07,-35.61 67.89,-31.76"/>
<polygon fill="black" stroke="black" points="68.86,-35.13 77.12,-28.48 66.52,-28.53 68.86,-35.13"/>
<text text-anchor="middle" x="57" y="-40.33" font-family="Times,serif" font-size="14.00">ϵ</text>
</g>
<!-- 1 -->
<g id="node3" class="node">
<title>1</title>
<ellipse fill="none" stroke="black" cx="174.75" cy="-76.13" rx="18" ry="18"/>
<text text-anchor="middle" x="174.75" y="-71.08" font-family="Times,serif" font-size="14.00">1</text>
</g>
<!-- 0&#45;&gt;1 -->
<g id="edge2" class="edge">
<title>0&#45;&gt;1</title>
<path fill="none" stroke="black" d="M114.42,-76.13C123.44,-76.13 134.7,-76.13 144.98,-76.13"/>
<polygon fill="black" stroke="black" points="144.89,-79.63 154.89,-76.13 144.89,-72.63 144.89,-79.63"/>
<text text-anchor="middle" x="135.38" y="-79.33" font-family="Times,serif" font-size="14.00">b</text>
</g>
<!-- 5 -->
<g id="node4" class="node">
<title>5</title>
<ellipse fill="none" stroke="black" cx="252.75" cy="-49.13" rx="18" ry="18"/>
<text text-anchor="middle" x="252.75" y="-44.08" font-family="Times,serif" font-size="14.00">5</text>
</g>
<!-- 1&#45;&gt;5 -->
<g id="edge3" class="edge">
<title>1&#45;&gt;5</title>
<path fill="none" stroke="black" d="M192.24,-70.27C201.7,-66.91 213.82,-62.61 224.64,-58.76"/>
<polygon fill="black" stroke="black" points="225.61,-62.13 233.87,-55.48 223.27,-55.53 225.61,-62.13"/>
<text text-anchor="middle" x="213.75" y="-66.33" font-family="Times,serif" font-size="14.00">ϵ</text>
</g>
<!-- 6 -->
<g id="node5" class="node">
<title>6</title>
<ellipse fill="none" stroke="black" cx="330.75" cy="-49.13" rx="18" ry="18"/>
<text text-anchor="middle" x="330.75" y="-44.08" font-family="Times,serif" font-size="14.00">6</text>
</g>
<!-- 5&#45;&gt;6 -->
<g id="edge4" class="edge">
<title>5&#45;&gt;6</title>
<path fill="none" stroke="black" d="M271,-49.13C279.87,-49.13 290.93,-49.13 301.05,-49.13"/>
<polygon fill="black" stroke="black" points="300.8,-52.63 310.8,-49.13 300.8,-45.63 300.8,-52.63"/>
<text text-anchor="middle" x="291.75" y="-52.33" font-family="Times,serif" font-size="14.00">ϵ</text>
</g>
<!-- 7 -->
<g id="node6" class="node">
<title>7</title>
<ellipse fill="none" stroke="black" cx="408.75" cy="-49.13" rx="18" ry="18"/>
<text text-anchor="middle" x="408.75" y="-44.08" font-family="Times,serif" font-size="14.00">7</text>
</g>
<!-- 6&#45;&gt;7 -->
<g id="edge5" class="edge">
<title>6&#45;&gt;7</title>
<path fill="none" stroke="black" d="M349,-49.13C357.87,-49.13 368.93,-49.13 379.05,-49.13"/>
<polygon fill="black" stroke="black" points="378.8,-52.63 388.8,-49.13 378.8,-45.63 378.8,-52.63"/>
<text text-anchor="middle" x="369.75" y="-52.33" font-family="Times,serif" font-size="14.00">a</text>
</g>
<!-- 8 -->
<g id="node7" class="node">
<title>8</title>
<ellipse fill="none" stroke="black" cx="486.75" cy="-49.13" rx="18" ry="18"/>
<text text-anchor="middle" x="486.75" y="-44.08" font-family="Times,serif" font-size="14.00">8</text>
</g>
<!-- 7&#45;&gt;8 -->
<g id="edge6" class="edge">
<title>7&#45;&gt;8</title>
<path fill="none" stroke="black" d="M427,-49.13C435.87,-49.13 446.93,-49.13 457.05,-49.13"/>
<polygon fill="black" stroke="black" points="456.8,-52.63 466.8,-49.13 456.8,-45.63 456.8,-52.63"/>
<text text-anchor="middle" x="447.75" y="-52.33" font-family="Times,serif" font-size="14.00">ϵ</text>
</g>
<!-- 9 -->
<g id="node8" class="node">
<title>9</title>
<ellipse fill="none" stroke="black" cx="565.5" cy="-49.13" rx="18" ry="18"/>
<text text-anchor="middle" x="565.5" y="-44.08" font-family="Times,serif" font-size="14.00">9</text>
</g>
<!-- 8&#45;&gt;9 -->
<g id="edge7" class="edge">
<title>8&#45;&gt;9</title>
<path fill="none" stroke="black" d="M505.17,-49.13C514.19,-49.13 525.45,-49.13 535.73,-49.13"/>
<polygon fill="black" stroke="black" points="535.64,-52.63 545.64,-49.13 535.64,-45.63 535.64,-52.63"/>
<text text-anchor="middle" x="526.12" y="-52.33" font-family="Times,serif" font-size="14.00">b</text>
</g>
<!-- 10 -->
<g id="node9" class="node">
<title>10</title>
<ellipse fill="none" stroke="black" cx="645.63" cy="-49.13" rx="20.13" ry="20.13"/>
<text text-anchor="middle" x="645.63" y="-44.08" font-family="Times,serif" font-size="14.00">10</text>
</g>
<!-- 9&#45;&gt;10 -->
<g id="edge8" class="edge">
<title>9&#45;&gt;10</title>
<path fill="none" stroke="black" d="M583.84,-49.13C592.63,-49.13 603.57,-49.13 613.74,-49.13"/>
<polygon fill="black" stroke="black" points="613.63,-52.63 623.63,-49.13 613.63,-45.63 613.63,-52.63"/>
<text text-anchor="middle" x="604.5" y="-52.33" font-family="Times,serif" font-size="14.00">ϵ</text>
</g>
<!-- 11 -->
<g id="node10" class="node">
<title>11</title>
<ellipse fill="none" stroke="black" cx="728.64" cy="-49.13" rx="20.13" ry="20.13"/>
<text text-anchor="middle" x="728.64" y="-44.08" font-family="Times,serif" font-size="14.00">11</text>
</g>
<!-- 10&#45;&gt;11 -->
<g id="edge9" class="edge">
<title>10&#45;&gt;11</title>
<path fill="none" stroke="black" d="M666.24,-49.13C675.4,-49.13 686.51,-49.13 696.76,-49.13"/>
<polygon fill="black" stroke="black" points="696.7,-52.63 706.7,-49.13 696.7,-45.63 696.7,-52.63"/>
<text text-anchor="middle" x="687.14" y="-52.33" font-family="Times,serif" font-size="14.00">b</text>
</g>
<!-- 16 -->
<g id="node11" class="node">
<title>16</title>
<ellipse fill="none" stroke="black" cx="810.91" cy="-49.13" rx="20.13" ry="20.13"/>
<text text-anchor="middle" x="810.91" y="-44.08" font-family="Times,serif" font-size="14.00">16</text>
</g>
<!-- 11&#45;&gt;16 -->
<g id="edge10" class="edge">
<title>11&#45;&gt;16</title>
<path fill="none" stroke="black" d="M749.07,-49.13C758.08,-49.13 768.99,-49.13 779.08,-49.13"/>
<polygon fill="black" stroke="black" points="778.86,-52.63 788.86,-49.13 778.86,-45.63 778.86,-52.63"/>
<text text-anchor="middle" x="769.77" y="-52.33" font-family="Times,serif" font-size="14.00">ϵ</text>
</g>
<!-- 12 -->
<g id="node12" class="node">
<title>12</title>
<ellipse fill="none" stroke="black" cx="893.17" cy="-78.13" rx="20.13" ry="20.13"/>
<text text-anchor="middle" x="893.17" y="-73.08" font-family="Times,serif" font-size="14.00">12</text>
</g>
<!-- 16&#45;&gt;12 -->
<g id="edge11" class="edge">
<title>16&#45;&gt;12</title>
<path fill="none" stroke="black" d="M830.12,-55.71C839.9,-59.25 852.19,-63.69 863.24,-67.68"/>
<polygon fill="black" stroke="black" points="861.73,-70.86 872.33,-70.96 864.11,-64.27 861.73,-70.86"/>
<text text-anchor="middle" x="852.04" y="-67.33" font-family="Times,serif" font-size="14.00">ϵ</text>
</g>
<!-- 14 -->
<g id="node15" class="node">
<title>14</title>
<ellipse fill="none" stroke="black" cx="893.17" cy="-20.13" rx="20.13" ry="20.13"/>
<text text-anchor="middle" x="893.17" y="-15.08" font-family="Times,serif" font-size="14.00">14</text>
</g>
<!-- 16&#45;&gt;14 -->
<g id="edge14" class="edge">
<title>16&#45;&gt;14</title>
<path fill="none" stroke="black" d="M830.12,-42.55C839.9,-39.02 852.19,-34.58 863.24,-30.58"/>
<polygon fill="black" stroke="black" points="864.11,-33.99 872.33,-27.3 861.73,-27.41 864.11,-33.99"/>
<text text-anchor="middle" x="852.04" y="-39.33" font-family="Times,serif" font-size="14.00">ϵ</text>
</g>
<!-- 13 -->
<g id="node13" class="node">
<title>13</title>
<ellipse fill="none" stroke="black" cx="976.18" cy="-78.13" rx="20.13" ry="20.13"/>
<text text-anchor="middle" x="976.18" y="-73.08" font-family="Times,serif" font-size="14.00">13</text>
</g>
<!-- 12&#45;&gt;13 -->
<g id="edge12" class="edge">
<title>12&#45;&gt;13</title>
<path fill="none" stroke="black" d="M913.78,-78.13C922.93,-78.13 934.05,-78.13 944.29,-78.13"/>
<polygon fill="black" stroke="black" points="944.24,-81.63 954.24,-78.13 944.24,-74.63 944.24,-81.63"/>
<text text-anchor="middle" x="934.67" y="-81.33" font-family="Times,serif" font-size="14.00">a</text>
</g>
<!-- 17 -->
<g id="node14" class="node">
<title>17</title>
<ellipse fill="none" stroke="black" cx="1062.44" cy="-49.13" rx="20.13" ry="20.13"/>
<ellipse fill="none" stroke="black" cx="1062.44" cy="-49.13" rx="24.13" ry="24.13"/>
<text text-anchor="middle" x="1062.44" y="-44.08" font-family="Times,serif" font-size="14.00">17</text>
</g>
<!-- 13&#45;&gt;17 -->
<g id="edge13" class="edge">
<title>13&#45;&gt;17</title>
<path fill="none" stroke="black" d="M995.46,-71.84C1005.12,-68.52 1017.27,-64.33 1028.5,-60.47"/>
<polygon fill="black" stroke="black" points="1029.55,-63.81 1037.87,-57.24 1027.28,-57.19 1029.55,-63.81"/>
<text text-anchor="middle" x="1017.31" y="-67.33" font-family="Times,serif" font-size="14.00">ϵ</text>
</g>
<!-- 15 -->
<g id="node16" class="node">
<title>15</title>
<ellipse fill="none" stroke="black" cx="976.18" cy="-20.13" rx="20.13" ry="20.13"/>
<text text-anchor="middle" x="976.18" y="-15.08" font-family="Times,serif" font-size="14.00">15</text>
</g>
<!-- 14&#45;&gt;15 -->
<g id="edge15" class="edge">
<title>14&#45;&gt;15</title>
<path fill="none" stroke="black" d="M913.78,-20.13C922.93,-20.13 934.05,-20.13 944.29,-20.13"/>
<polygon fill="black" stroke="black" points="944.24,-23.63 954.24,-20.13 944.24,-16.63 944.24,-23.63"/>
<text text-anchor="middle" x="934.67" y="-23.33" font-family="Times,serif" font-size="14.00">b</text>
</g>
<!-- 15&#45;&gt;17 -->
<g id="edge16" class="edge">
<title>15&#45;&gt;17</title>
<path fill="none" stroke="black" d="M995.46,-26.42C1005.12,-29.75 1017.27,-33.93 1028.5,-37.79"/>
<polygon fill="black" stroke="black" points="1027.28,-41.07 1037.87,-41.02 1029.55,-34.45 1027.28,-41.07"/>
<text text-anchor="middle" x="1017.31" y="-38.33" font-family="Times,serif" font-size="14.00">ϵ</text>
</g>
<!-- 3 -->
<g id="node18" class="node">
<title>3</title>
<ellipse fill="none" stroke="black" cx="174.75" cy="-22.13" rx="18" ry="18"/>
<text text-anchor="middle" x="174.75" y="-17.08" font-family="Times,serif" font-size="14.00">3</text>
</g>
<!-- 2&#45;&gt;3 -->
<g id="edge18" class="edge">
<title>2&#45;&gt;3</title>
<path fill="none" stroke="black" d="M114.42,-22.13C123.44,-22.13 134.7,-22.13 144.98,-22.13"/>
<polygon fill="black" stroke="black" points="144.89,-25.63 154.89,-22.13 144.89,-18.63 144.89,-25.63"/>
<text text-anchor="middle" x="135.38" y="-25.33" font-family="Times,serif" font-size="14.00">b</text>
</g>
<!-- 3&#45;&gt;5 -->
<g id="edge19" class="edge">
<title>3&#45;&gt;5</title>
<path fill="none" stroke="black" d="M192.24,-27.99C201.7,-31.35 213.82,-35.65 224.64,-39.5"/>
<polygon fill="black" stroke="black" points="223.27,-42.73 233.87,-42.78 225.61,-36.13 223.27,-42.73"/>
<text text-anchor="middle" x="213.75" y="-40.33" font-family="Times,serif" font-size="14.00">ϵ</text>
</g>
</g>
</svg>
